<?xml version="1.0" encoding="UTF-8"?> <svg xmlns="http://www.w3.org/2000/svg" width="140" height="61" viewBox="0 0 140 61" fill="none"><path d="M59.1097 21.3463L57.9701 21.6962C57.9246 21.453 57.804 21.2303 57.6253 21.0596C57.5109 20.9587 57.3776 20.8818 57.2332 20.8333C57.0888 20.7848 56.9363 20.7657 56.7844 20.7771C56.5195 20.7656 56.2594 20.851 56.0527 21.0174C55.9641 21.0872 55.8924 21.1762 55.8428 21.2777C55.7934 21.3791 55.7673 21.4905 55.7668 21.6035C55.7668 21.9997 56.0022 22.2443 56.4732 22.337L57.3814 22.5098C57.8902 22.589 58.3593 22.8317 58.7186 23.2013C59.0305 23.5342 59.2009 23.9757 59.1938 24.4323C59.1941 24.6994 59.1375 24.9635 59.028 25.2071C58.9186 25.4506 58.7586 25.668 58.5588 25.8447C58.0884 26.2612 57.474 26.4762 56.8474 26.4434C56.471 26.4495 56.0965 26.388 55.7415 26.2621C55.4415 26.1601 55.1685 25.9914 54.9426 25.7689C54.7508 25.5786 54.5916 25.3577 54.4717 25.1153C54.3587 24.8945 54.2887 24.6541 54.2656 24.4071L55.4388 24.0908C55.4633 24.426 55.6135 24.7394 55.8593 24.9678C55.9972 25.0894 56.1577 25.1825 56.3315 25.2419C56.5055 25.3012 56.6893 25.3256 56.8726 25.3134C57.1478 25.3296 57.4203 25.2523 57.6463 25.0942C57.7351 25.027 57.8067 24.9397 57.8549 24.8393C57.9033 24.7387 57.9268 24.6281 57.9239 24.5167C57.9252 24.4246 57.9075 24.3334 57.8721 24.2485C57.8366 24.1637 57.7841 24.087 57.7179 24.0234C57.5572 23.8735 57.3548 23.7764 57.1376 23.7451L56.2293 23.5596C55.7504 23.4812 55.3087 23.2524 54.9678 22.9062C54.815 22.745 54.6953 22.5552 54.616 22.3475C54.5366 22.1399 54.499 21.9185 54.5053 21.6962C54.5015 21.4192 54.5597 21.1447 54.6753 20.8931C54.7911 20.6414 54.9614 20.4188 55.1738 20.2417C55.6136 19.8509 56.1844 19.6416 56.7717 19.6557C57.1118 19.6493 57.4504 19.7021 57.7725 19.8116C58.0354 19.8971 58.2755 20.0412 58.4747 20.2333C58.6399 20.3905 58.7815 20.5708 58.8952 20.7686C58.9911 20.9512 59.0631 21.1453 59.1097 21.3463Z" fill="#04003B"></path><path d="M61.2809 28.056H60.0615V21.7869H61.2432V22.3392C61.3752 22.1382 61.56 21.9778 61.7771 21.8754C62.0383 21.7455 62.3267 21.6805 62.6181 21.6857C62.905 21.672 63.1912 21.7241 63.455 21.8381C63.7188 21.9521 63.9532 22.1249 64.1402 22.3434C64.5084 22.836 64.7049 23.4361 64.6997 24.0516C64.6944 24.6671 64.4875 25.2638 64.1109 25.7499C63.9203 25.9684 63.6838 26.1418 63.4185 26.2577C63.153 26.3736 62.8654 26.429 62.5761 26.4202C62.3303 26.442 62.0831 26.403 61.8557 26.3068C61.6286 26.2104 61.4283 26.0598 61.2725 25.868L61.2809 28.056ZM63.19 24.9826C63.3973 24.7165 63.51 24.3885 63.51 24.0509C63.51 23.7132 63.3973 23.3852 63.19 23.1191C63.0884 23.0092 62.9646 22.9222 62.8268 22.8641C62.689 22.8059 62.5405 22.7779 62.391 22.7819C62.24 22.7781 62.0899 22.8065 61.9507 22.8654C61.8115 22.9243 61.6864 23.0122 61.5838 23.1234C61.3764 23.3879 61.2637 23.7145 61.2637 24.0509C61.2637 24.3873 61.3764 24.7138 61.5838 24.9783C61.6854 25.0909 61.8103 25.1802 61.9497 25.2398C62.089 25.2995 62.2396 25.3282 62.391 25.3241C62.5409 25.3283 62.6899 25.3 62.8278 25.2411C62.9657 25.1821 63.0893 25.094 63.19 24.9826Z" fill="#04003B"></path><path d="M66.8854 26.3078H65.666V19.655H66.8854V26.3078Z" fill="#04003B"></path><path d="M68.0411 20.3047C68.0395 20.2052 68.058 20.1065 68.0956 20.0145C68.1332 19.9224 68.1891 19.839 68.2599 19.7692C68.3274 19.6963 68.4094 19.6384 68.5007 19.5991C68.5919 19.5599 68.6904 19.5403 68.7896 19.5416C68.8892 19.5416 68.9878 19.5614 69.0796 19.5998C69.1715 19.6383 69.2549 19.6946 69.3249 19.7656C69.3949 19.8365 69.4501 19.9208 69.4874 20.0133C69.5248 20.1059 69.5434 20.2049 69.5423 20.3047C69.5435 20.4028 69.5248 20.5002 69.4872 20.5908C69.4496 20.6814 69.3939 20.7634 69.3237 20.8317C69.1819 20.972 68.9908 21.0506 68.7917 21.0506C68.5926 21.0506 68.4014 20.972 68.2599 20.8317C68.1895 20.7634 68.1339 20.6814 68.0962 20.5908C68.0587 20.5002 68.04 20.4028 68.0411 20.3047ZM69.4077 26.3082H68.1883V21.7845H69.4077V26.3082Z" fill="#04003B"></path><path d="M72.2141 20.4395V21.7885H73.1182V22.872H72.2141V24.7692C72.2044 24.8444 72.2106 24.9209 72.2324 24.9935C72.2541 25.0661 72.2909 25.1334 72.3403 25.1908C72.4593 25.2844 72.6106 25.3268 72.7607 25.3089C72.8866 25.3132 73.0126 25.3005 73.135 25.2709V26.2828C72.9155 26.3625 72.6829 26.3997 72.4495 26.3923C72.2593 26.403 72.0687 26.3756 71.8891 26.312C71.7093 26.2483 71.544 26.1494 71.4026 26.0214C71.2714 25.8865 71.1697 25.7258 71.1038 25.5495C71.0379 25.3731 71.0094 25.1849 71.0199 24.9969V22.8889H70.2041V21.8054H70.4313C70.5267 21.8128 70.6226 21.7988 70.712 21.7646C70.8015 21.7303 70.8823 21.6765 70.9485 21.6072C71.0742 21.4649 71.1391 21.2786 71.1293 21.0886V20.4563L72.2141 20.4395Z" fill="#04003B"></path><path d="M81.4721 26.307H80.2107V21.7368L78.3395 26.307H77.284L75.4171 21.7748V26.307H74.2061V19.7891H75.8881L77.8391 24.4941L79.7439 19.7891H81.4679L81.4721 26.307Z" fill="#04003B"></path><path d="M85.8618 24.7123L86.8795 25.0117C86.7602 25.4261 86.5073 25.7893 86.1604 26.0446C85.7718 26.3208 85.3035 26.4617 84.8275 26.4451C84.5231 26.4523 84.2204 26.3982 83.9372 26.2859C83.654 26.1737 83.3964 26.0056 83.1792 25.7916C82.7449 25.3191 82.502 24.7012 82.4981 24.0587C82.4942 23.4163 82.7295 22.7954 83.1581 22.3177C83.3578 22.1041 83.5995 21.9346 83.8682 21.8199C84.1368 21.7052 84.4262 21.6479 84.7181 21.6515C85.0192 21.6341 85.3206 21.6807 85.6025 21.7882C85.8844 21.8958 86.1404 22.0618 86.3539 22.2755C86.7685 22.7472 86.9814 23.3636 86.9467 23.9914C86.9467 24.042 86.9467 24.0967 86.9467 24.16C86.9467 24.2233 86.9467 24.2697 86.9467 24.3076V24.3708H83.7215C83.7244 24.5109 83.7571 24.6488 83.8172 24.7753C83.8774 24.9018 83.9637 25.014 84.0706 25.1044C84.2854 25.2999 84.5668 25.4055 84.8569 25.3995C85.0769 25.4145 85.2958 25.3549 85.478 25.2303C85.6602 25.1057 85.7954 24.9232 85.8618 24.7123ZM83.7258 23.5319H85.7441C85.7373 23.2946 85.6412 23.0686 85.475 22.8995C85.3756 22.8083 85.2588 22.7384 85.1315 22.6942C85.0042 22.6499 84.8693 22.6323 84.735 22.6423C84.6035 22.6373 84.4725 22.659 84.3496 22.706C84.2268 22.7532 84.1147 22.8247 84.0201 22.9163C83.8477 23.0801 83.7427 23.3027 83.7258 23.5403V23.5319Z" fill="#04003B"></path><path d="M89.4066 20.4395V21.7885H90.3149V22.872H89.4066V24.7692C89.3971 24.8444 89.4034 24.9209 89.4248 24.9935C89.4463 25.0661 89.4828 25.1334 89.5328 25.1908C89.6519 25.2832 89.8028 25.3254 89.9529 25.3089C90.0807 25.3131 90.2077 25.3003 90.3316 25.2709V26.2828C90.1109 26.3626 89.8766 26.3997 89.6416 26.3923C89.4526 26.4026 89.2629 26.3751 89.0834 26.3114C88.9048 26.2477 88.7396 26.1492 88.5991 26.0214C88.4673 25.8868 88.3649 25.7262 88.2982 25.5498C88.2315 25.3735 88.2029 25.1852 88.2124 24.9969V22.8889H87.3965V21.8054H87.6278C87.7232 21.8121 87.819 21.7979 87.9083 21.7638C87.998 21.7295 88.0782 21.676 88.1449 21.6072C88.2672 21.4631 88.3307 21.2777 88.322 21.0886V20.4563L89.4066 20.4395Z" fill="#04003B"></path><path d="M94.0357 21.7655V22.9967C93.915 22.9715 93.7927 22.9587 93.6697 22.9587C93.3616 22.9462 93.0599 23.0534 92.8288 23.258C92.7097 23.3894 92.62 23.5445 92.5652 23.713C92.5104 23.8815 92.4914 24.0598 92.5088 24.2361V26.3062H91.29V21.7824H92.4715V22.4528C92.5858 22.2164 92.7709 22.0216 93.0003 21.8954C93.2306 21.7692 93.4934 21.7179 93.7538 21.7487C93.8483 21.7496 93.942 21.7553 94.0357 21.7655Z" fill="#04003B"></path><path d="M94.755 20.3046C94.7534 20.2052 94.7717 20.1064 94.8098 20.0144C94.8471 19.9224 94.9027 19.8389 94.9733 19.7692C95.0416 19.6959 95.125 19.6378 95.2163 19.5986C95.3084 19.5594 95.4076 19.54 95.5077 19.5416C95.6562 19.5437 95.7999 19.5893 95.923 19.6728C96.0452 19.7564 96.1405 19.874 96.1969 20.0114C96.2533 20.1488 96.2683 20.2997 96.2398 20.4455C96.212 20.5913 96.1413 20.7256 96.0373 20.8316C95.896 20.972 95.7046 21.0507 95.5053 21.0507C95.3068 21.0507 95.1155 20.972 94.9733 20.8316C94.9035 20.7633 94.8479 20.6814 94.8098 20.5908C94.7724 20.5002 94.7534 20.4028 94.755 20.3046ZM96.1135 26.3082H94.8939V21.7845H96.1135V26.3082Z" fill="#04003B"></path><path d="M99.4457 22.7801C99.2941 22.7769 99.1432 22.8053 99.0027 22.8632C98.8621 22.9214 98.7351 23.0078 98.6303 23.1173C98.4135 23.3796 98.296 23.709 98.296 24.0491C98.296 24.3891 98.4135 24.7186 98.6303 24.9808C98.7359 25.0914 98.8629 25.1789 99.0042 25.2377C99.1456 25.2965 99.2972 25.3253 99.4497 25.3223C99.699 25.336 99.9451 25.2564 100.14 25.0989C100.304 24.9579 100.424 24.7718 100.484 24.5634L101.561 24.9218C101.442 25.3481 101.19 25.725 100.842 25.9968C100.445 26.3059 99.9523 26.4642 99.4497 26.4438C99.1376 26.4505 98.828 26.3934 98.539 26.2759C98.2499 26.1586 97.9871 25.9832 97.768 25.7608C97.3305 25.2972 97.0859 24.6832 97.0859 24.0449C97.0859 23.4066 97.3305 22.7925 97.768 22.3289C97.9832 22.1069 98.2412 21.9319 98.527 21.815C98.8129 21.6982 99.1202 21.6421 99.429 21.6502C99.9372 21.6282 100.437 21.7847 100.842 22.0929C101.191 22.3652 101.439 22.7465 101.548 23.1764L100.455 23.5431C100.409 23.3141 100.281 23.1097 100.095 22.969C99.9094 22.8283 99.6776 22.7611 99.4457 22.7801Z" fill="#04003B"></path><path d="M102.071 25.0492L103.118 24.8216C103.123 24.9147 103.145 25.0062 103.186 25.0903C103.226 25.1744 103.284 25.2494 103.354 25.3105C103.517 25.4495 103.728 25.5204 103.942 25.5087C104.1 25.5184 104.256 25.4738 104.383 25.3821C104.432 25.343 104.471 25.2935 104.498 25.2374C104.525 25.1813 104.539 25.1199 104.539 25.0576C104.539 24.8341 104.375 24.6867 104.052 24.6359L103.458 24.4969C103.096 24.4394 102.763 24.2647 102.509 23.9994C102.302 23.7678 102.189 23.4669 102.193 23.1562C102.191 22.9567 102.233 22.7591 102.316 22.5776C102.398 22.3962 102.521 22.2353 102.672 22.1064C103.007 21.8186 103.439 21.6681 103.879 21.6849C104.154 21.6788 104.428 21.723 104.687 21.8155C104.89 21.8857 105.074 22.0026 105.225 22.157C105.344 22.2815 105.443 22.4238 105.519 22.5787C105.583 22.712 105.627 22.8539 105.65 23.0002L104.632 23.2321C104.606 23.0727 104.531 22.9254 104.418 22.8104C104.346 22.746 104.262 22.6968 104.171 22.6657C104.08 22.6346 103.983 22.6221 103.888 22.6292C103.737 22.6223 103.589 22.667 103.467 22.7557C103.415 22.792 103.373 22.8406 103.343 22.8971C103.314 22.9537 103.299 23.0166 103.299 23.0803C103.299 23.2995 103.438 23.4344 103.72 23.4808L104.359 23.6199C104.735 23.6811 105.083 23.8579 105.355 24.1259C105.467 24.2428 105.556 24.3808 105.615 24.532C105.674 24.6832 105.703 24.8446 105.7 25.007C105.701 25.2043 105.66 25.3995 105.581 25.5802C105.502 25.761 105.386 25.9232 105.242 26.0568C104.882 26.3627 104.417 26.5142 103.947 26.4784C103.66 26.482 103.376 26.435 103.106 26.3392C102.886 26.2626 102.686 26.1372 102.521 25.9725C102.398 25.8369 102.293 25.6852 102.21 25.5213C102.139 25.3725 102.092 25.2129 102.071 25.0492Z" fill="#04003B"></path><path d="M33.9879 27.9898C34.9784 28.98 35.7326 30.1802 36.1947 31.5012C36.6568 32.8223 36.8149 34.2304 36.6572 35.6207C38.4081 35.4263 40.0685 34.742 41.4471 33.6469C42.8256 32.5515 43.8663 31.0898 44.4491 29.4301C45.032 27.7704 45.1336 25.98 44.7418 24.2651C44.3501 22.5503 43.4812 20.9808 42.2351 19.7374C40.989 18.4939 39.4165 17.6271 37.6987 17.2367C35.9808 16.8464 34.1875 16.9484 32.525 17.531C30.8627 18.1136 29.399 19.1531 28.3025 20.5298C27.2059 21.9064 26.5212 23.5643 26.3271 25.3124C27.7236 25.1543 29.1378 25.3129 30.4642 25.7765C31.7907 26.2401 32.9952 26.9967 33.9879 27.9898Z" fill="#00C4D1"></path><path d="M29.044 32.9411C28.051 31.9522 27.2942 30.7525 26.8299 29.4314C26.3655 28.1102 26.2056 26.7015 26.362 25.3101C24.6073 25.4974 22.9415 26.1763 21.5567 27.2683C20.1721 28.3605 19.1249 29.8211 18.5361 31.4819C17.9474 33.1427 17.841 34.9357 18.2295 36.6543C18.6178 38.3729 19.4851 39.9466 20.7311 41.1942C21.9772 42.4416 23.5512 43.312 25.2715 43.7047C26.9918 44.0973 28.7882 43.9963 30.4534 43.4133C32.1188 42.8304 33.585 41.7892 34.6828 40.4099C35.7807 39.0307 36.4655 37.3696 36.6583 35.6184C35.2692 35.7691 33.8641 35.6067 32.5463 35.1434C31.2286 34.68 30.0317 33.9274 29.044 32.9411Z" fill="#00C4D1"></path><path d="M54.2679 37.5767C54.2523 37.2044 54.3165 36.8332 54.4561 36.4879C54.5958 36.1425 54.8076 35.8309 55.0774 35.574C55.6672 35.0508 56.4026 34.7198 57.1854 34.6255L59.5801 34.2671C60.0691 34.2038 60.3136 33.9721 60.3136 33.5757C60.318 33.4017 60.2822 33.2291 60.209 33.0712C60.1359 32.9133 60.0274 32.7743 59.8921 32.665C59.5126 32.4164 59.065 32.2922 58.6117 32.3096C58.1584 32.327 57.7217 32.4851 57.3625 32.762C57.0432 33.0555 56.8473 33.4594 56.8144 33.8919L54.4787 33.3944C54.5938 32.5123 55.0473 31.7095 55.7435 31.1557C56.5721 30.4761 57.6245 30.1302 58.6947 30.186C60.145 30.186 61.2145 30.5332 61.903 31.2274C62.2463 31.5785 62.5143 31.9959 62.6912 32.4539C62.8681 32.9119 62.9499 33.4012 62.9318 33.8919V38.6855C62.9275 39.2039 62.9683 39.7215 63.0541 40.2328H60.592C60.5157 39.8483 60.4818 39.4568 60.4907 39.0649C60.1839 39.5394 59.7561 39.9235 59.2515 40.1777C58.7468 40.4318 58.1834 40.5469 57.6195 40.511C56.7265 40.5535 55.853 40.2396 55.1912 39.6384C54.9005 39.3793 54.6679 39.0617 54.5088 38.7064C54.3496 38.3511 54.2675 37.966 54.2679 37.5767ZM58.1719 38.5463C58.7305 38.5678 59.2773 38.3816 59.7066 38.0236C59.926 37.7953 60.0935 37.5222 60.1976 37.2231C60.3017 36.9241 60.3398 36.606 60.3094 36.2908V35.8692L58.1129 36.2065C57.3035 36.3245 56.9029 36.7376 56.9029 37.4376C56.8995 37.5873 56.9277 37.7361 56.9859 37.8741C57.0441 38.0122 57.1307 38.1364 57.2402 38.2385C57.3686 38.351 57.5186 38.4362 57.6809 38.4891C57.8431 38.542 58.0146 38.5615 58.1846 38.5463H58.1719Z" fill="#04003B"></path><path d="M69.8865 32.6214C69.558 32.6142 69.2314 32.6757 68.928 32.802C68.6246 32.9284 68.3508 33.1168 68.1243 33.3549C67.8783 33.6246 67.6887 33.9406 67.5663 34.2844C67.4439 34.6282 67.3914 34.9931 67.4118 35.3576C67.3927 35.7237 67.4468 36.0901 67.5706 36.4354C67.6944 36.7806 67.8854 37.0978 68.1327 37.3686C68.3612 37.6083 68.6369 37.7979 68.9424 37.9256C69.2478 38.0533 69.5766 38.1164 69.9077 38.1106C70.4454 38.1394 70.9746 37.9664 71.3916 37.6257C71.7504 37.3206 72.0126 36.9177 72.1464 36.4663L74.4652 37.2379C74.2126 38.1573 73.67 38.9705 72.9179 39.5567C72.061 40.2262 70.9942 40.5698 69.9077 40.5263C69.2279 40.5362 68.5532 40.4089 67.9238 40.1521C67.2944 39.8953 66.7231 39.5143 66.2442 39.0319C65.7653 38.5494 65.3886 37.9754 65.1364 37.3441C64.8843 36.7128 64.762 36.0372 64.7767 35.3576C64.756 34.6736 64.8742 33.9925 65.1242 33.3555C65.3741 32.7185 65.7509 32.1389 66.2313 31.6517C66.6981 31.1734 67.2581 30.7964 67.8768 30.544C68.4955 30.2916 69.1595 30.1692 69.8275 30.1844C70.9262 30.1377 72.0064 30.4779 72.8799 31.1457C73.6352 31.7284 74.1728 32.548 74.4062 33.4729L72.0453 34.2656C71.9462 33.7763 71.6726 33.3397 71.2754 33.0372C70.8782 32.7346 70.3847 32.5868 69.8865 32.6214Z" fill="#04003B"></path><path d="M85.6259 44.0001H83.0499V39.2655C82.5468 40.0722 81.6417 40.4742 80.3348 40.4713C79.6957 40.4885 79.0605 40.3674 78.4726 40.1163C77.8847 39.8652 77.3579 39.4902 76.9283 39.0169C76.0169 38.0138 75.5329 36.6949 75.5792 35.3404C75.5361 34.0083 76.0002 32.7095 76.8777 31.7062C77.2972 31.229 77.8173 30.8506 78.4005 30.5984C78.9837 30.3462 79.6154 30.2264 80.2505 30.2475C80.9021 30.2197 81.5496 30.3652 82.1266 30.6691C82.5355 30.883 82.8748 31.2091 83.1048 31.6092V30.4836H85.6344L85.6259 44.0001ZM78.9182 33.3378C78.4394 33.8914 78.1944 34.6096 78.2352 35.3404C78.1966 36.0761 78.441 36.7987 78.9182 37.3599C79.14 37.5983 79.4085 37.7884 79.7071 37.9184C80.0055 38.0485 80.3276 38.1155 80.6531 38.1155C80.9787 38.1155 81.3008 38.0485 81.5993 37.9184C81.8978 37.7884 82.1663 37.5983 82.388 37.3599C82.8652 36.7987 83.1096 36.0761 83.071 35.3404C83.1118 34.6096 82.8669 33.8914 82.388 33.3378C82.1624 33.1059 81.8927 32.9216 81.5948 32.7958C81.2968 32.6699 80.9766 32.605 80.6531 32.605C80.3296 32.605 80.0094 32.6699 79.7114 32.7958C79.4135 32.9216 79.1438 33.1059 78.9182 33.3378Z" fill="#04003B"></path><path d="M94.7398 40.2318C94.6795 39.8852 94.6525 39.5337 94.6596 39.182C94.404 39.622 94.0117 39.9669 93.5425 40.1644C93.0454 40.3803 92.5079 40.4909 91.9656 40.489C91.4606 40.5146 90.9556 40.4295 90.4863 40.2394C90.0171 40.0492 89.5955 39.759 89.2509 39.3886C88.5815 38.6341 88.2266 37.6519 88.26 36.6439V30.4844H90.8953V36.0916C90.8722 36.6032 91.0334 37.106 91.3502 37.5083C91.5146 37.6953 91.7202 37.8422 91.9505 37.9372C92.1808 38.0322 92.4301 38.0731 92.6786 38.0564C92.9279 38.0685 93.1764 38.0279 93.4091 37.9371C93.6417 37.8463 93.8521 37.7073 94.0276 37.5293C94.369 37.1469 94.5461 36.6457 94.5207 36.1338V30.4844H97.156V38.4695C97.1544 39.0584 97.1877 39.6469 97.2568 40.2318H94.7398Z" fill="#04003B"></path><path d="M102.607 40.2318H99.9717V30.4844H102.607V40.2318Z" fill="#04003B"></path><path d="M111.358 30.4446V33.1008C111.098 33.0468 110.832 33.02 110.566 33.0206C109.898 32.9907 109.244 33.2221 108.744 33.6657C108.281 34.0958 108.049 34.7984 108.049 35.7737V40.2342H105.414V30.4868H107.973V31.9329C108.445 30.9126 109.373 30.4067 110.747 30.4067C110.89 30.4067 111.097 30.4194 111.358 30.4446Z" fill="#04003B"></path><path d="M119.67 36.786L121.871 37.4395C121.611 38.3312 121.064 39.1122 120.315 39.6613C119.475 40.2606 118.462 40.566 117.431 40.5298C116.771 40.5433 116.116 40.4248 115.505 40.1816C114.892 39.9384 114.334 39.5752 113.865 39.1132C112.928 38.0927 112.408 36.7608 112.4 35.3767C112.393 33.9927 112.901 32.6556 113.826 31.6256C114.26 31.1676 114.782 30.8034 115.363 30.5562C115.943 30.3089 116.568 30.1836 117.199 30.1879C118.705 30.1879 119.884 30.6376 120.737 31.537C121.588 32.4365 122.009 33.6718 122.001 35.2429C122.001 35.3483 122.001 35.4664 122.001 35.5971C122.001 35.7277 122.001 35.8374 122.001 35.9133V36.0524H114.981C114.989 36.3548 115.06 36.652 115.191 36.925C115.32 37.1981 115.507 37.4408 115.735 37.6377C116.199 38.0536 116.801 38.2808 117.422 38.2743C117.911 38.3226 118.401 38.2011 118.811 37.93C119.22 37.6588 119.523 37.2548 119.67 36.786ZM115.057 34.2564H119.411C119.398 33.7438 119.19 33.2556 118.83 32.8904C118.616 32.6957 118.364 32.5464 118.089 32.4515C117.816 32.3566 117.526 32.3179 117.237 32.3381C116.952 32.3274 116.668 32.3747 116.402 32.477C116.136 32.5791 115.894 32.7341 115.689 32.9326C115.32 33.2751 115.094 33.7452 115.057 34.248V34.2564Z" fill="#04003B"></path></svg> 