<?xml version="1.0" encoding="UTF-8"?> <svg xmlns="http://www.w3.org/2000/svg" width="140" height="61" viewBox="0 0 140 61" fill="none"><path d="M67.383 35.9115C67.383 34.9032 67.0243 34.2041 65.9082 34.2041C64.9249 34.2041 64.3403 34.7419 64.3403 35.7637C64.3403 38.466 68.8247 36.8527 68.8247 40.3617C68.8247 42.5801 67.217 43.2187 65.8749 43.2187C63.656 43.2187 63.0049 42.0625 63.0049 40.0256H64.1675C64.1675 41.1012 64.234 42.2574 65.948 42.2574C66.1686 42.2646 66.3882 42.2256 66.5931 42.1426C66.798 42.0597 66.9837 41.9347 67.1385 41.7756C67.2933 41.6164 67.4139 41.4265 67.4925 41.2179C67.5712 41.0093 67.6063 40.7864 67.5956 40.5634C67.5956 37.8476 63.1112 39.4206 63.1112 35.8981C63.1112 35.0108 63.4832 33.2495 65.8882 33.2495C67.6953 33.2495 68.5191 34.1637 68.5457 35.925L67.383 35.9115Z" fill="black"></path><path d="M71.9536 37.6594H72.5382C73.5348 37.6594 73.9733 36.9334 73.9733 35.9788C73.9733 35.1049 73.6544 34.3924 72.7508 34.3924C71.5151 34.3924 71.3955 35.5486 71.3955 36.241H70.2329C70.2329 34.6142 70.9903 33.4983 72.7242 33.4983C74.6908 33.4983 75.1425 34.91 75.1425 35.9721C75.1425 36.9267 74.6642 37.7737 73.6809 38.0157V38.0426C74.7439 38.2577 75.4216 38.9434 75.4216 40.2609C75.4216 41.9953 74.5579 43.2053 72.7508 43.2053C70.2262 43.2053 70.0801 40.9735 70.0801 40.5567V40.4357H71.2427C71.2427 41.3096 71.6679 42.318 72.7375 42.318C73.4285 42.318 74.2324 41.9684 74.2324 40.3551C74.2324 39.2392 73.7009 38.54 72.5316 38.54H71.9337L71.9536 37.6594Z" fill="black"></path><path d="M34.8422 14.8472C36.7423 13.8875 38.6357 12.9162 40.5425 11.9717C40.5591 15.1648 40.5425 18.3713 40.5425 21.5712C38.6855 21.9879 36.8519 22.5123 34.995 22.9274L35.2508 23.0954L34.8621 23.0501C34.8189 22.1577 34.8621 21.2636 34.8389 20.3712C34.8389 18.5259 34.8422 16.6857 34.8422 14.8472Z" fill="#8C3223"></path><path d="M40.543 11.9717C42.4442 12.9352 44.3465 13.8971 46.2499 14.8572V20.3645C46.2399 21.2182 46.2499 22.0736 46.2499 22.9274L46.127 22.961C44.2717 22.4887 42.4181 22.0031 40.5529 21.5712C40.5413 18.3713 40.5596 15.1648 40.543 11.9717V11.9717Z" fill="#E15343"></path><path d="M25 19.8216C25.8437 19.4048 26.6759 18.9611 27.5263 18.5544C27.5196 26.8195 27.5196 35.0846 27.5263 43.3497C26.6759 42.9548 25.8504 42.5094 25.0066 42.0926C25.0022 34.6723 25 27.2486 25 19.8216Z" fill="#8C3223"></path><path d="M27.5265 18.5544C29.9597 19.1847 32.4096 19.7443 34.8445 20.3745C34.8611 21.2669 34.8245 22.161 34.8677 23.0534L35.2564 23.0987C37.0203 23.3878 38.7659 23.771 40.5314 24.0415C40.5514 24.7625 40.548 25.4818 40.5314 26.2028C38.6413 26.4246 36.7429 26.6582 34.8478 26.9288C34.8478 29.6328 34.8577 32.3386 34.8478 35.0426C36.7379 35.3401 38.6413 35.5468 40.5381 35.7888C40.5763 36.4997 40.5514 37.2122 40.5497 37.9248C38.6463 38.2492 36.7495 38.6105 34.8544 38.9768V41.5465C32.4062 42.1632 29.9597 42.7262 27.5215 43.348C27.5303 35.0841 27.532 26.8195 27.5265 18.5544Z" fill="#E15343"></path><path d="M46.246 20.3646C48.6876 19.7512 51.1341 19.1596 53.579 18.563C53.5701 26.5906 53.5701 34.6181 53.579 42.6457C53.579 42.8743 53.5557 43.1028 53.5358 43.3314C51.1042 42.7482 48.6776 42.155 46.2477 41.5516C46.2377 40.6945 46.2477 39.8358 46.2477 38.977C44.3493 38.6106 42.4475 38.2493 40.5408 37.9216C40.5408 37.209 40.5674 36.4965 40.5292 35.7856C38.6324 35.5486 36.729 35.3369 34.8389 35.0394C34.8571 32.3353 34.8389 29.6296 34.8389 26.9256C36.7423 26.6583 38.6407 26.4247 40.5391 26.1945C40.5474 25.4735 40.5508 24.7542 40.5391 24.0333C42.1353 23.803 43.7131 23.4417 45.3093 23.193C45.59 23.1466 45.8651 23.07 46.1298 22.9644L46.2527 22.9308C46.241 22.072 46.2361 21.2149 46.246 20.3646Z" fill="#8C3223"></path><path d="M53.5814 18.563C54.4118 18.9949 55.2622 19.4033 56.0977 19.8419C56.0899 27.2577 56.0899 34.6736 56.0977 42.0894C55.2439 42.5247 54.3803 42.9432 53.5332 43.3952V43.3331C53.5531 43.1045 53.5697 42.8759 53.5764 42.6474C53.5775 34.6187 53.5792 26.5906 53.5814 18.563Z" fill="#E15343"></path><path d="M35.001 22.9273C36.8595 22.5122 38.6915 21.9878 40.5484 21.571C42.4136 22.003 44.2672 22.4886 46.1225 22.9609C45.8578 23.0665 45.5827 23.1431 45.302 23.1894C43.7075 23.4415 42.1296 23.8029 40.5318 24.0297C38.7646 23.7608 37.019 23.376 35.2568 23.0869C35.1721 23.0382 35.0857 22.9844 35.001 22.9273Z" fill="#5E1F19"></path><path d="M40.5616 26.1978C42.4551 26.4364 44.3518 26.665 46.2436 26.9288V35.041C44.3469 35.3199 42.4434 35.5619 40.54 35.7771C40.5666 32.5823 40.5251 29.3892 40.5616 26.1978Z" fill="#E15343"></path><path d="M34.8477 38.9737C36.7411 38.6073 38.6395 38.246 40.5429 37.9216C42.448 38.2493 44.3498 38.6107 46.2498 38.977C44.3481 39.451 42.4513 39.9568 40.5413 40.4005C38.6379 39.9417 36.7428 39.4577 34.8477 38.9737Z" fill="#F2B0A9"></path><path d="M34.8427 41.5498C34.851 40.6927 34.8427 39.8373 34.8427 38.9802C36.7378 39.4626 38.6345 39.9482 40.5346 40.407C40.5546 43.6001 40.5429 46.8033 40.5346 49.9998C38.6262 49.057 36.7328 48.0839 34.8311 47.1243C34.8388 45.2633 34.8427 43.4052 34.8427 41.5498Z" fill="#8C3223"></path><path d="M40.54 40.402C42.4501 39.9583 44.3469 39.4524 46.2486 38.9785C46.2403 39.8356 46.237 40.6944 46.2486 41.5532C46.2569 43.4018 46.2486 45.2504 46.2486 47.1108C44.3463 48.071 42.4451 49.0329 40.545 49.9964C40.5483 46.7966 40.56 43.5984 40.54 40.402Z" fill="#E15343"></path><path d="M66.7539 20.8335C65.2193 20.8335 63.5235 21.4351 63.1531 23.4014C63.1448 23.4376 63.1438 23.4752 63.1502 23.5118C63.1566 23.5484 63.1702 23.5834 63.1902 23.6146C63.2101 23.6458 63.2361 23.6726 63.2666 23.6934C63.297 23.7143 63.3313 23.7287 63.3673 23.7358H63.3939L64.9685 23.9274C65.0406 23.9062 65.1041 23.862 65.1495 23.8015C65.195 23.741 65.22 23.6673 65.2209 23.5913C65.2804 23.293 65.4457 23.0271 65.6855 22.8435C65.9253 22.66 66.2232 22.5715 66.5231 22.5947C66.6957 22.587 66.8676 22.6215 67.0243 22.6952C67.181 22.7689 67.3179 22.8797 67.4233 23.0182C67.6069 23.3933 67.6801 23.8139 67.6342 24.2299V24.4618C66.5972 24.5061 65.5716 24.6991 64.5881 25.0349C64.0616 25.2609 63.6153 25.6433 63.3084 26.1316C63.0014 26.6199 62.8482 27.1909 62.8691 27.7692C62.8691 29.5137 63.9453 30.3825 65.2807 30.3825C65.7892 30.4135 66.2976 30.3195 66.7624 30.1085C67.2272 29.8975 67.6346 29.5758 67.9498 29.1708C68.1834 29.5852 68.4882 29.954 68.85 30.2598C68.9101 30.2925 68.9787 30.3057 69.0464 30.2976C69.1142 30.2895 69.1778 30.2605 69.2287 30.2145C69.5609 29.9136 70.1289 29.3742 70.4661 29.0902C70.5256 29.0297 70.5591 28.9478 70.5591 28.8624C70.5591 28.7771 70.5256 28.6952 70.4661 28.6347C70.0746 28.2152 69.8529 27.6622 69.8449 27.0852V24.5543C69.8449 23.4653 69.9346 22.4283 69.1523 21.662C68.4785 21.1009 67.6262 20.8065 66.7539 20.8335ZM87.9057 20.8335C86.371 20.8335 84.6752 21.4351 84.3048 23.4014C84.2962 23.4373 84.2948 23.4745 84.3007 23.511C84.3065 23.5474 84.3195 23.5823 84.3388 23.6136C84.3581 23.6449 84.3835 23.672 84.4133 23.6933C84.4431 23.7146 84.4768 23.7296 84.5124 23.7375H84.539L86.1219 23.9257C86.198 23.9086 86.2663 23.8662 86.3159 23.8053C86.3656 23.7444 86.3937 23.6685 86.3959 23.5896C86.4554 23.2917 86.6204 23.026 86.8599 22.8424C87.0994 22.6589 87.3969 22.5702 87.6964 22.593C87.8691 22.5853 88.041 22.6198 88.1977 22.6935C88.3544 22.7672 88.4912 22.878 88.5966 23.0166C88.7709 23.395 88.8343 23.8161 88.7793 24.2299V24.4618C87.7493 24.5063 86.7309 24.6992 85.7548 25.0349C85.2283 25.2609 84.782 25.6433 84.4751 26.1316C84.1681 26.6199 84.0149 27.1909 84.0358 27.7692C84.0358 29.5137 85.112 30.3825 86.4474 30.3825C86.9551 30.4127 87.4625 30.3183 87.9264 30.1073C88.3902 29.8964 88.7968 29.5751 89.1115 29.1708C89.3447 29.5854 89.6497 29.9543 90.0117 30.2598C90.0718 30.2925 90.1404 30.3057 90.2082 30.2976C90.2759 30.2895 90.3396 30.2605 90.3904 30.2145C90.7226 29.9136 91.2906 29.3742 91.6278 29.0902C91.6843 29.0281 91.7157 28.9468 91.7157 28.8624C91.7157 28.7781 91.6843 28.6968 91.6278 28.6347C91.2415 28.2135 91.0247 27.6615 91.0199 27.0869V24.5543C91.0199 23.4653 91.0913 22.4283 90.309 21.662C89.636 21.096 88.7803 20.801 87.9057 20.8335ZM76.0069 20.9192C75.5295 20.9084 75.062 21.0582 74.6776 21.3449C74.2932 21.6317 74.0136 22.0393 73.8826 22.504V21.383C73.8775 21.3049 73.8446 21.2314 73.7899 21.176C73.7352 21.1207 73.6625 21.0873 73.5853 21.0822H72.0905C72.0088 21.0843 71.931 21.1181 71.8732 21.1766C71.8154 21.2351 71.782 21.3138 71.7799 21.3965V29.9977C71.7875 30.0748 71.8213 30.1469 71.8755 30.2017C71.9297 30.2566 72.0009 30.2907 72.0772 30.2985H73.6932C73.775 30.2964 73.8527 30.2626 73.9105 30.2041C73.9683 30.1456 74.0017 30.0669 74.0038 29.9842V25.4315C74.0038 24.435 73.954 23.0787 75.115 23.0787C76.276 23.0787 76.0999 24.482 76.0999 25.4315V29.9859C76.1046 30.0655 76.1371 30.1407 76.1915 30.1983C76.246 30.2558 76.3189 30.292 76.3972 30.3002H78.0133C78.095 30.2981 78.1728 30.2643 78.2306 30.2058C78.2884 30.1473 78.3218 30.0686 78.3239 29.9859V25.4315C78.2866 24.8822 78.3354 24.3303 78.4684 23.7963C78.5368 23.5944 78.6625 23.4173 78.8296 23.287C78.9967 23.1568 79.198 23.0791 79.4085 23.0636C79.629 23.0355 79.8516 23.0967 80.0277 23.234C80.2038 23.3712 80.3191 23.5734 80.3485 23.7963C80.4022 24.3396 80.4172 24.8861 80.3934 25.4315V29.9859C80.3981 30.0655 80.4305 30.1407 80.485 30.1983C80.5395 30.2558 80.6124 30.292 80.6907 30.3002H82.3018C82.3835 30.2981 82.4613 30.2643 82.5191 30.2058C82.5769 30.1473 82.6103 30.0686 82.6124 29.9859V24.5257C82.6124 23.6148 82.7021 22.5544 82.1938 21.825C81.933 21.4945 81.5898 21.2402 81.1996 21.0883C80.8094 20.9365 80.3863 20.8925 79.9738 20.961C79.5613 21.0294 79.1742 21.2078 78.8524 21.4779C78.5306 21.7479 78.2857 22.0997 78.1428 22.4973C77.6446 21.4234 77.0134 20.9259 76.0052 20.9259L76.0069 20.9192ZM103.49 20.9192C101.165 20.9192 99.8576 22.9964 99.8576 25.6735C99.8576 28.3507 101.14 30.4733 103.49 30.4733C105.741 30.4733 107.181 28.3826 107.181 25.7559C107.181 23.0518 105.872 20.9192 103.459 20.9192H103.49ZM112.706 20.9192C111.59 20.9192 110.956 21.4654 110.501 22.6586V21.3477C110.483 21.2818 110.445 21.2235 110.391 21.1817C110.338 21.1398 110.273 21.1167 110.205 21.1158H108.71C108.634 21.1141 108.559 21.1417 108.502 21.1931C108.444 21.2445 108.408 21.3159 108.4 21.3931V29.9859C108.404 30.0655 108.437 30.1407 108.491 30.1983C108.546 30.2558 108.619 30.292 108.697 30.3002H110.313C110.395 30.2981 110.473 30.2643 110.53 30.2058C110.588 30.1473 110.622 30.0686 110.624 29.9859V25.3593C110.6 24.8008 110.694 24.2436 110.898 23.7241C110.963 23.5373 111.079 23.3732 111.233 23.2506C111.387 23.1281 111.572 23.0521 111.766 23.0317C112.883 23.0317 112.775 24.398 112.775 25.3442V30.0162C112.785 30.09 112.82 30.158 112.874 30.2086C112.928 30.2591 112.998 30.2891 113.072 30.2935H114.69C114.766 30.2922 114.839 30.2636 114.895 30.2128C114.952 30.1619 114.99 30.0922 115 30.0162V24.6131C115 23.7728 115 22.6233 114.582 21.9359C114.385 21.6121 114.107 21.347 113.776 21.1678C113.444 20.9885 113.072 20.9016 112.697 20.9158L112.706 20.9192ZM93.3053 21.0654C93.2265 21.0654 93.1509 21.0971 93.0951 21.1535C93.0394 21.2099 93.008 21.2864 93.008 21.3662V22.5998C93.0044 22.6787 93.0316 22.756 93.0838 22.8148C93.1361 22.8736 93.2091 22.9093 93.2871 22.914H96.0724L92.9167 27.6449C92.765 27.8979 92.6872 28.1892 92.6925 28.4852V29.7372C92.6902 29.7841 92.6995 29.8308 92.7196 29.8732C92.7397 29.9155 92.77 29.9521 92.8076 29.9796C92.8452 30.0072 92.889 30.0248 92.935 30.0308C92.981 30.0369 93.0278 30.0313 93.0711 30.0145C93.9335 29.5501 94.8954 29.3073 95.8723 29.3073C96.8491 29.3073 97.811 29.5501 98.6734 30.0145C98.7182 30.0332 98.767 30.0403 98.8152 30.0352C98.8634 30.0301 98.9096 30.0129 98.9496 29.9852C98.9897 29.9576 99.0223 29.9202 99.0445 29.8767C99.0667 29.8331 99.0779 29.7846 99.077 29.7355V28.4415C99.0713 28.3458 99.0408 28.2534 98.9886 28.1735C98.9364 28.0935 98.8644 28.0289 98.7797 27.986C97.8529 27.4804 96.8068 27.2415 95.7552 27.2953L98.5057 23.1964C98.7031 22.9807 98.8426 22.7174 98.9109 22.4317V21.383C98.9146 21.3041 98.8873 21.2268 98.8351 21.168C98.7829 21.1092 98.7099 21.0735 98.6319 21.0688H93.317L93.3053 21.0654ZM103.485 22.7006C103.733 22.6849 103.977 22.76 104.174 22.9122C104.372 23.0644 104.508 23.2835 104.558 23.5291C104.74 24.2734 104.817 25.0401 104.787 25.8063C104.787 26.8953 104.732 28.7339 103.487 28.7339C102.241 28.7339 102.233 26.4567 102.233 25.4164C102.233 24.3761 102.288 22.6838 103.457 22.6838L103.485 22.7006ZM67.6093 25.8198V26.1794C67.671 26.7878 67.5682 27.4018 67.312 27.9558C67.2127 28.1732 67.0569 28.3592 66.8611 28.4939C66.6654 28.6286 66.4372 28.7069 66.2009 28.7204C65.5797 28.7204 65.2159 28.2163 65.2159 27.4869C65.1977 26.0752 66.4533 25.8248 67.6143 25.8248L67.6093 25.8198ZM88.7611 25.8198V26.1794C88.8244 26.7906 88.7216 27.4077 88.4638 27.9642C88.3649 28.1819 88.2092 28.3682 88.0134 28.503C87.8175 28.6377 87.5891 28.7158 87.3526 28.7288C86.7314 28.7288 86.3677 28.2247 86.3677 27.4953C86.3677 26.0702 87.5918 25.8147 88.7528 25.8147L88.7611 25.8198Z" fill="#201C1D"></path></svg> 