<?xml version="1.0" encoding="UTF-8"?> <svg xmlns="http://www.w3.org/2000/svg" width="140" height="61" viewBox="0 0 140 61" fill="none"><path d="M50.213 32.6836H45.4278L44.2987 36.1526H42.8291L46.754 24.0566H49.0839L53.0268 36.1526H51.36L50.213 32.6836ZM47.8115 25.3098L45.8759 31.2852H49.765L47.8115 25.3098Z" fill="black"></path><path d="M58.9059 36.3157C58.2965 36.3339 57.7051 36.1704 57.1853 35.8435C56.7014 35.5166 56.2892 35.0625 56.0204 34.5358V39.1308H54.5508V27.3799H55.8591L55.9846 29.1053C56.2534 28.5605 56.6477 28.0883 57.1495 27.725C57.6872 27.3618 58.3324 27.1802 58.9596 27.2165C59.4615 27.2165 59.9454 27.3073 60.4113 27.4889C60.8773 27.6705 61.2895 27.9611 61.63 28.3425C62.0064 28.7603 62.2752 29.2325 62.4724 29.7592C62.6875 30.3948 62.795 31.085 62.7771 31.757C62.795 32.4472 62.6875 33.1373 62.4545 33.773C62.2752 34.2997 61.9706 34.7901 61.6121 35.1896C61.2716 35.5529 60.8415 35.8435 60.3755 36.0251C59.9095 36.2249 59.4077 36.3157 58.9059 36.3157ZM58.6908 34.9899C59.3898 35.008 60.0887 34.7174 60.5547 34.1907C61.0207 33.6459 61.2716 32.8467 61.2716 31.757C61.2716 30.7036 61.0386 29.8863 60.5547 29.3414C60.0887 28.7966 59.4077 28.4878 58.6908 28.5241C58.3324 28.5241 57.9739 28.5968 57.6334 28.7239C57.3108 28.8511 57.024 29.069 56.7911 29.3233C56.5401 29.6139 56.343 29.959 56.2175 30.3404C55.9308 31.2666 55.9308 32.2655 56.2175 33.1918C56.343 33.5732 56.5222 33.9183 56.7911 34.2089C57.024 34.4813 57.3108 34.6811 57.6334 34.8082C57.956 34.9354 58.3144 35.008 58.6908 34.9899Z" fill="black"></path><path d="M68.941 36.3157C68.3317 36.3339 67.7402 36.1704 67.2205 35.8435C66.7366 35.5166 66.3244 35.0625 66.0556 34.5358V39.1308H64.5859V27.3799H65.8943L66.0197 29.1053C66.2885 28.5605 66.6828 28.0883 67.1847 27.725C67.7223 27.3618 68.3675 27.1802 68.9948 27.2165C69.4966 27.2165 69.9805 27.3073 70.4465 27.4889C70.9125 27.6705 71.3247 27.9611 71.6652 28.3425C72.0416 28.7603 72.3104 29.2325 72.5075 29.7592C72.7226 30.3948 72.8301 31.085 72.8122 31.757C72.8301 32.4472 72.7226 33.1373 72.4896 33.773C72.3104 34.2997 72.0057 34.7901 71.6473 35.1896C71.3067 35.5529 70.8766 35.8435 70.4106 36.0251C69.9447 36.2249 69.4428 36.3157 68.941 36.3157ZM68.726 34.9899C69.4249 35.008 70.1239 34.7174 70.5899 34.1907C71.0558 33.6459 71.3067 32.8467 71.3067 31.757C71.3067 30.7036 71.0738 29.8863 70.5899 29.3414C70.1239 28.7966 69.4428 28.4878 68.726 28.5241C68.3675 28.5241 68.0091 28.5968 67.6686 28.7239C67.346 28.8511 67.0592 29.069 66.8262 29.3233C66.5753 29.6139 66.3782 29.959 66.2527 30.3404C65.9659 31.2666 65.9659 32.2655 66.2527 33.1918C66.3782 33.5732 66.5574 33.9183 66.8262 34.2089C67.0592 34.4813 67.346 34.6811 67.6686 34.8082C68.0091 34.9354 68.3675 35.008 68.726 34.9899Z" fill="black"></path><path d="M80.2689 34.281L76.6487 26.2352V36.1336H75.1611V24.0376H77.3656L81.0754 32.5375L84.9645 24.0558H86.9897V36.1517H85.4126V26.4168L81.7206 34.3174L80.2689 34.281Z" fill="black"></path><path d="M96.5247 35.4079C96.3813 35.5169 96.22 35.6077 96.0587 35.6985C95.8436 35.8075 95.6286 35.9164 95.3956 35.9891C95.1088 36.0981 94.8221 36.1707 94.5174 36.2252C94.159 36.2979 93.7826 36.316 93.4241 36.316C91.9725 36.316 90.8613 35.9164 90.1086 35.1173C89.3558 34.3182 88.9795 33.1921 88.9795 31.7573C88.9615 31.1035 89.0691 30.4678 89.2841 29.8503C89.4634 29.3236 89.768 28.8332 90.1444 28.4155C90.5208 28.0341 90.9509 27.7253 91.4527 27.5256C91.9725 27.3076 92.528 27.1986 93.1016 27.2168C93.6751 27.2168 94.2306 27.3258 94.7504 27.5437C95.2343 27.7435 95.6465 28.0704 95.9512 28.4881C96.2917 28.9422 96.5068 29.4871 96.5964 30.0319C96.7218 30.7402 96.7039 31.4667 96.5964 32.1751H90.4849C90.5387 33.1195 90.8254 33.8278 91.3273 34.3C91.847 34.7722 92.5639 35.0083 93.4958 35.0083C94.0335 35.0265 94.5532 34.9175 95.0551 34.7177C95.4314 34.5543 95.7899 34.3545 96.1304 34.1184L96.5247 35.4079ZM93.0657 28.5245C92.4564 28.5063 91.8828 28.7243 91.4169 29.1238C90.9688 29.5234 90.6641 30.1227 90.5566 30.9219H95.2164C95.2522 30.5586 95.1984 30.2135 95.0909 29.8685C95.0013 29.596 94.8579 29.3418 94.6608 29.1238C94.4636 28.924 94.2306 28.7787 93.9618 28.6879C93.6751 28.5608 93.3704 28.5245 93.0657 28.5245Z" fill="black"></path><path d="M102.171 36.2064C101.848 36.2791 101.526 36.3154 101.185 36.3154C100.809 36.3336 100.45 36.2609 100.11 36.1338C99.8231 36.0248 99.5722 35.8613 99.375 35.6434C99.1958 35.4436 99.0524 35.1893 98.9628 34.9351C98.8732 34.6626 98.8373 34.3902 98.8373 34.1178V28.651H97.7979V27.3796H98.8373V25.5271H100.325V27.3615H102.834V28.6328H100.325V33.918C100.307 34.2086 100.397 34.5173 100.594 34.7353C100.827 34.9169 101.113 35.0077 101.4 34.9896C101.633 34.9896 101.848 34.9532 102.081 34.8987C102.296 34.8443 102.511 34.7535 102.709 34.6445L102.959 35.9158C102.709 36.043 102.44 36.1519 102.171 36.2064Z" fill="black"></path><path d="M107.26 29.3419C106.758 29.6143 106.364 30.032 106.131 30.5769V36.1527H104.661V27.3804H105.969L106.095 29.2874H106.131C106.382 28.7607 106.74 28.2885 107.188 27.9252C107.69 27.5256 108.299 27.2714 108.945 27.1987V28.8515C108.371 28.906 107.798 29.0694 107.26 29.3419Z" fill="black"></path><path d="M111.418 26.0911C111.149 26.1092 110.899 26.0002 110.701 25.8186C110.522 25.637 110.415 25.3827 110.433 25.1285C110.433 24.8742 110.522 24.6199 110.701 24.4383C110.881 24.2385 111.149 24.1295 111.418 24.1477C111.687 24.1295 111.938 24.2385 112.099 24.4383C112.261 24.6199 112.35 24.8742 112.35 25.1285C112.35 25.3827 112.261 25.6188 112.099 25.8186C111.92 26.0002 111.669 26.1092 111.418 26.0911ZM112.135 27.3806V36.1529H110.666V27.3806H112.135Z" fill="black"></path><path d="M118.229 36.3156C117.638 36.3156 117.046 36.2248 116.473 36.0069C115.953 35.8071 115.487 35.5165 115.093 35.1169C114.698 34.7174 114.394 34.227 114.197 33.7003C113.766 32.4653 113.766 31.1031 114.197 29.8681C114.394 29.3232 114.698 28.8328 115.111 28.4151C115.505 28.0155 115.971 27.7068 116.491 27.507C117.046 27.2891 117.62 27.1801 118.211 27.1982C118.695 27.1982 119.197 27.2527 119.663 27.3617C120.075 27.4525 120.451 27.6341 120.792 27.8702L120.434 29.1598C120.129 28.9963 119.806 28.851 119.484 28.7239C119.089 28.5786 118.659 28.5059 118.229 28.5241C117.369 28.5241 116.67 28.7965 116.15 29.3414C115.63 29.8862 115.379 30.7035 115.379 31.7933C115.379 32.8285 115.63 33.6095 116.15 34.1725C116.67 34.7355 117.351 35.008 118.211 35.008C118.605 35.008 118.982 34.9535 119.358 34.8445C119.699 34.7355 120.039 34.5902 120.344 34.4086L120.702 35.6255C120.38 35.8616 120.021 36.025 119.627 36.1522C119.197 36.2611 118.713 36.3338 118.229 36.3156Z" fill="black"></path><path d="M127.548 34.6997C127.423 34.8995 127.262 35.0992 127.1 35.2809C126.921 35.4806 126.706 35.6623 126.491 35.8076C126.24 35.971 125.953 36.0981 125.667 36.1708C125.326 36.2616 124.985 36.3161 124.627 36.3161C123.856 36.3161 123.229 36.0981 122.745 35.6441C122.261 35.19 122.028 34.5544 122.028 33.7189C122.028 31.8119 123.426 30.8675 126.204 30.8675H127.477V30.2136C127.477 29.5961 127.315 29.1784 126.993 28.906C126.67 28.6517 126.15 28.5246 125.416 28.5246C124.896 28.5246 124.394 28.5972 123.91 28.7425C123.516 28.8696 123.122 29.0331 122.763 29.251L122.405 28.016C122.799 27.7799 123.211 27.5983 123.659 27.4711C124.251 27.2895 124.878 27.1987 125.505 27.2169C126.616 27.2169 127.459 27.453 128.05 27.907C128.642 28.3611 128.928 29.0876 128.928 30.032V34.736C128.928 34.845 128.928 34.9539 128.928 35.0811C128.928 35.2082 128.946 35.3353 128.946 35.4806C128.946 35.6259 128.964 35.7349 128.964 35.862C128.964 35.9892 128.982 36.08 129 36.1526H127.656C127.638 35.9892 127.602 35.7712 127.584 35.4806C127.566 35.19 127.548 34.9358 127.548 34.736V34.6997ZM124.95 34.9903C125.236 34.9903 125.523 34.9539 125.81 34.8631C126.061 34.7723 126.294 34.6633 126.509 34.4999C126.706 34.3546 126.885 34.2093 127.064 34.0277C127.208 33.8642 127.351 33.7008 127.477 33.5191V32.048H126.348C125.308 32.048 124.573 32.1933 124.143 32.4657C123.731 32.72 123.498 33.174 123.516 33.6463C123.498 34.0095 123.623 34.3546 123.874 34.6089C124.071 34.8813 124.448 34.9903 124.95 34.9903Z" fill="black"></path><path d="M22.7569 18.1899C16.2691 18.1899 11 23.5114 11 30.1043H18.1151L22.7569 22.3491L27.3988 30.1043H34.5139C34.4959 23.5296 29.2448 18.1899 22.7569 18.1899Z" fill="#FFCC00"></path><path d="M11 30.104C11 32.8465 11.932 35.4982 13.6346 37.605L18.1151 30.104H11Z" fill="#3BA8FF"></path><path d="M31.8614 37.605C33.564 35.48 34.496 32.8283 34.496 30.104H27.3809L31.8614 37.605Z" fill="#3BA8FF"></path><path d="M22.7561 22.3496L18.1143 30.1048H27.38L22.7561 22.3496Z" fill="#FF0000"></path><path d="M18.1143 30.104L13.6338 37.605C15.8561 40.3838 19.2076 42.0002 22.7562 42.0002C26.2868 42.0002 29.6383 40.3838 31.8785 37.605L27.398 30.104H18.1143Z" fill="#4643B9"></path></svg> 