<?xml version="1.0" encoding="UTF-8"?> <svg xmlns="http://www.w3.org/2000/svg" width="141" height="61" viewBox="0 0 141 61" fill="none"><path d="M15.2096 25.0253L20.0125 34.0771C20.3367 34.7034 21.1473 35.1883 21.8161 35.1883L31.6245 35.1682C32.2933 35.1682 32.577 34.663 32.2527 34.0569L27.4295 25.0051C27.1053 24.3787 26.2947 23.8938 25.6259 23.8938L15.8175 23.914C15.7973 23.914 15.7973 23.914 15.777 23.914C15.1488 23.9343 14.8853 24.4192 15.2096 25.0253Z" fill="#88B027"></path><path d="M33.8318 35.5721L36.75 40.9466C36.9526 41.3103 37.439 41.6133 37.8241 41.5931L43.6604 41.5325C44.0658 41.5325 44.2279 41.2294 44.0253 40.8657L41.1071 35.4912C40.9044 35.1275 40.418 34.8245 40.033 34.8447L34.1965 34.9053H34.1763C33.7912 34.9256 33.6494 35.2084 33.8318 35.5721Z" fill="#88B027"></path><path d="M33.8753 15.1855L28.0389 22.6006C27.6336 23.1058 27.5931 24.015 27.9173 24.6414L32.8013 33.6527C33.1255 34.2589 33.7335 34.3599 34.1185 33.8548L39.9549 26.4396C40.3602 25.9345 40.4008 25.0253 40.0765 24.4191L35.1925 15.4077C34.9899 15.044 34.7264 14.8824 34.4427 14.8824C34.2401 14.8622 34.0375 14.9633 33.8753 15.1855Z" fill="#008ECF"></path><path d="M32.5176 35.673L29.032 40.0979C28.7888 40.4009 28.7685 40.9465 28.9712 41.3101L31.8894 46.6846C32.092 47.0483 32.4365 47.1089 32.6797 46.8059L36.1654 42.381C36.4086 42.078 36.4288 41.5324 36.2262 41.1688L33.308 35.7942C33.1864 35.5922 33.0243 35.4709 32.8621 35.4709C32.7202 35.4709 32.5986 35.5316 32.5176 35.673Z" fill="#008ECF"></path><path d="M98.3357 22.7017H96.3906V37.229H98.3357V22.7017Z" fill="#008ECF"></path><path d="M61.4355 27.3082C58.6389 27.3082 56.3691 29.551 56.3691 32.3191V41.5729H58.3146V36.2792V32.3393C58.3146 30.6219 59.7129 29.2479 61.4557 29.2479C63.1783 29.2479 64.5968 30.642 64.5968 32.3393C64.5968 34.0567 63.1986 35.4306 61.4557 35.4306C60.483 35.4306 59.6116 34.9861 59.0239 34.2992V36.744C59.7332 37.1278 60.5641 37.3501 61.4152 37.3501C64.2118 37.3501 66.4816 35.1073 66.4816 32.3393C66.5018 29.5308 64.2321 27.288 61.4355 27.3082Z" fill="#88B027"></path><path d="M72.4394 27.2881C69.6427 27.2881 67.373 29.5309 67.373 32.2989V41.5528H69.3185V36.2591V32.3191C69.3185 30.6017 70.7168 29.2278 72.4596 29.2278C74.1822 29.2278 75.6007 30.6219 75.6007 32.3191C75.6007 34.0366 74.2024 35.4105 72.4596 35.4105C71.4869 35.4105 70.6155 34.966 70.0278 34.279V36.7238C70.7371 37.1077 71.568 37.33 72.4191 37.33C75.2157 37.33 77.4855 35.0872 77.4855 32.3191C77.5057 29.5309 75.236 27.2881 72.4394 27.2881Z" fill="#88B027"></path><path d="M50.1073 22.7219C47.3108 22.7219 45.041 24.9646 45.041 27.7327V37.2492H46.9865V27.7327C46.9865 26.0355 48.3848 24.6616 50.1073 24.6616C51.8299 24.6616 53.2282 26.0355 53.2282 27.7327V28.8238H48.2227V30.7432H53.2282V37.229H55.1737V27.7125C55.1737 24.9646 52.904 22.7219 50.1073 22.7219Z" fill="#88B027"></path><path d="M89.8874 27.7125C89.8874 26.0153 91.286 24.6413 93.0085 24.6413H95.4609V22.7219H93.0085C90.2121 22.7219 87.9424 24.9646 87.9424 27.7327V37.2492H89.8874V30.9453H95.2782V29.0258H89.8874V27.7125Z" fill="#008ECF"></path><path d="M106.506 27.3489V33.4104C106.485 34.6227 105.472 35.6127 104.236 35.6127C103 35.6127 101.986 34.6227 101.966 33.4104V27.3489H100.021V33.4104C100.041 35.3703 101.419 36.9866 103.264 37.4109V41.5327H105.209V37.4109C107.053 36.9866 108.431 35.35 108.451 33.4104V27.3489H106.506Z" fill="#008ECF"></path><path d="M117.49 33.0465C117.287 33.8144 116.78 34.5215 116.031 34.9458C114.551 35.7944 112.626 35.2893 111.775 33.8144C110.924 32.3394 111.43 30.4603 112.91 29.6117C114.105 28.9248 115.565 29.1268 116.537 29.9754L112.16 32.4808L113.133 34.1578L115.159 33.0061L119.253 30.6623C119.152 30.3593 119.01 30.0562 118.848 29.7734C117.449 27.3689 114.349 26.5608 111.917 27.9347C109.485 29.3087 108.654 32.3798 110.073 34.7842C111.471 37.1886 114.571 37.9967 117.004 36.6228C118.382 35.8348 119.253 34.4811 119.476 33.0465H117.49Z" fill="#008ECF"></path><path d="M125.593 27.2881C124.418 27.2881 123.344 27.6922 122.472 28.359V27.3487H120.527V37.229H122.472V32.2989C122.472 30.6017 123.871 29.2278 125.593 29.2278H125.999V27.3083L125.593 27.2881Z" fill="#008ECF"></path><path d="M84.9029 32.6427L80.0393 30.3999C79.7961 30.2787 79.715 30.0161 79.8163 29.7736C79.8974 29.5918 80.0798 29.4907 80.2419 29.4907H85.7741V27.5713H80.2419C79.3299 27.5713 78.4383 28.0764 78.033 28.9654C77.4655 30.1575 77.9925 31.5921 79.2083 32.1578L84.072 34.4005C84.3153 34.5015 84.4166 34.7845 84.295 35.0269C84.2139 35.2088 84.0315 35.3097 83.8491 35.3097H78.1749V37.2292H83.8491C84.7611 37.2292 85.6321 36.7241 86.0581 35.835C86.6661 34.643 86.1387 33.2084 84.9029 32.6427Z" fill="#88B027"></path></svg> 