<?xml version="1.0" encoding="UTF-8"?> <svg xmlns="http://www.w3.org/2000/svg" width="141" height="61" viewBox="0 0 141 61" fill="none"><path d="M98.5935 24.3728C100.521 22.4426 102.66 23.0107 102.66 24.8826C102.66 26.7108 100.47 28.6847 97.8296 30.2143C97.575 30.36 97.2694 30.5275 96.9638 30.6805C96.862 30.2216 96.8038 29.7117 96.8038 29.1436C96.8038 27.5776 97.4658 25.5017 98.5935 24.3728ZM88.3065 44.0826C85.7457 46.6465 82.4719 43.3761 86.2913 39.5521C87.157 38.6853 88.5757 37.7312 90.0525 36.8644C90.8964 38.9548 90.2271 42.1524 88.3065 44.0826ZM71.9884 33.8125C70.0242 33.8125 68.751 31.4526 69.1439 28.5391C69.5295 25.6256 71.4355 23.2656 73.3998 23.2656C75.2186 23.2656 76.4408 25.2905 76.3026 27.9054C76.2517 28.2841 76.208 28.6483 76.1716 28.9979C75.6551 31.6929 73.8436 33.8125 71.9884 33.8125ZM46.0455 32.8438C45.4053 33.4847 44.6195 33.8271 43.8266 33.8271C43.0845 33.8271 42.4443 33.492 41.9132 32.9603C40.0944 31.1394 40.2545 26.6744 42.5898 24.3291C43.2518 23.6662 44.0521 23.2802 44.8742 23.2802C45.609 23.2802 46.2564 23.608 46.7875 24.1397C48.4972 25.8514 48.599 30.2872 46.0455 32.8438ZM106.865 33.7979C106.865 33.7979 106.138 32.7782 105.912 32.4869C105.759 32.2975 105.57 32.0644 105.068 32.4067C103.962 33.1497 102.718 33.8271 101.183 33.8271C100.012 33.8271 98.9863 33.5284 98.2224 32.8802C98.5425 32.7345 98.8772 32.5743 99.2191 32.3922C101.031 31.4089 102.544 30.1633 103.271 29.435C106.8 25.9023 105.694 20.6362 101.394 20.6362C97.3349 20.6362 94.1266 24.5986 94.1266 28.9979C94.1266 29.6608 94.2066 30.6076 94.4903 31.6128C94.2502 31.7293 92.6424 32.5087 90.7145 33.5721C88.903 32.2101 86.073 32.8219 86.073 32.8219C88.6993 29.0926 92.6497 23.2656 92.9844 22.7849C93.2244 22.4426 93.1881 22.1002 92.9553 21.5612C92.657 20.913 92.3587 20.7964 91.9513 20.7964H83.745C83.4758 20.7964 83.2648 20.9203 83.1848 21.2262C83.1121 21.5248 82.9375 22.5664 82.9084 22.9233C82.872 23.2802 83.2066 23.4987 83.5559 23.4987H89.4996L84.1233 31.1976C84.0869 31.2268 84.0506 31.2632 84.0215 31.3142C83.243 32.4432 82.0426 34.0237 80.6022 34.0237C79.7073 34.0237 78.6015 33.3828 78.6015 31.285C78.6015 29.231 79.4309 24.8899 80.0347 21.5102C80.1002 21.1461 79.9765 20.7892 79.3945 20.7892H77.9395C77.6048 20.7892 77.4157 20.9931 77.3647 21.2772C77.2774 21.7943 77.1901 22.3042 77.1028 22.7922C76.3826 21.4156 75.2331 20.6362 73.5671 20.6362C72.0248 20.6362 70.5189 21.2116 69.2894 22.4353C66.2193 25.509 66.8013 30.5202 64.1532 33.1715C63.011 34.3151 61.716 33.9655 61.716 31.7148C61.716 29.1436 62.6982 26.2811 63.8258 23.5643C64.0222 23.0835 63.8112 22.6829 63.6003 22.3697C63.302 21.9327 63.1856 21.6996 62.6472 21.6996C61.8106 21.6996 60.472 22.2313 57.7947 22.2313C57.2273 22.2313 56.6817 22.2095 56.1942 22.1731C56.2233 21.7725 56.2306 21.503 56.2379 21.401C56.2524 21.0222 56.1215 20.7819 55.7213 20.7819H54.3536C53.8589 20.7819 53.7352 21.015 53.677 21.401C53.4442 23.0398 53.0005 29.0562 49.9886 32.0717C49.6394 32.4213 49.4284 32.5306 49.4284 32.5306C50.1777 31.0592 50.5851 29.129 50.5851 27.5995C50.5851 23.2948 48.0388 20.6289 44.8451 20.6289C43.8702 20.6289 42.8372 20.9421 41.8696 21.5467C42.3206 18.9245 42.7353 16.4699 42.8808 15.6395C43.0045 14.9403 42.7498 14.5761 42.568 14.2848C42.2624 13.8113 41.9932 13.6001 41.5858 13.6001H36.8716C36.6024 13.6001 36.3987 13.7895 36.3332 14.0881C36.2532 14.4377 36.0859 15.3555 36.064 15.7779C36.0495 16.1494 36.3041 16.2878 36.6024 16.2878H40.0508C39.4979 19.6747 38.4503 26.2374 38.1302 27.8835C37.73 29.9812 36.2386 32.5524 33.7287 33.4629C33.4159 33.5794 33.285 33.8635 33.4014 34.1985C33.5178 34.5336 33.947 35.4076 34.0779 35.6334C34.2089 35.8665 34.4999 36.0195 34.7763 35.9248C36.0786 35.4659 37.2717 34.723 38.2175 33.7834C38.4503 33.5503 38.6758 33.2881 38.894 33.004C40.0217 35.5387 42.3133 36.4638 44.6632 36.4638C47.3186 36.4638 50.185 35.5387 52.1929 33.5211C54.5428 31.1758 55.5249 27.2863 55.9396 24.533C56.5216 24.6131 57.1836 24.6787 57.8166 24.6787C59.4316 24.6787 60.7848 24.3363 60.7848 24.3363C60.7848 24.3363 59.1552 28.6629 59.1552 31.8532C59.1552 35.4513 60.8721 36.4711 62.7782 36.4711C64.7352 36.4711 66.1102 34.9997 67.0923 33.1788C67.3469 33.7469 67.7252 34.4243 68.2418 34.9415C69.1293 35.8301 70.2279 36.4711 71.8138 36.4711C73.6253 36.4711 75.1822 35.4222 76.288 33.8125C76.4845 34.4899 76.79 35.058 77.2047 35.4732C77.7649 36.034 78.7907 36.4711 80.0784 36.4711C82.29 36.4711 83.5704 34.8104 87.0115 34.8104C87.448 34.8104 87.8409 34.8759 88.1974 34.9997C86.6187 35.9612 85.12 36.9955 84.2033 37.9132C81.366 40.7539 81.2351 44.4905 83.0975 46.3551C85.3528 48.6131 88.5684 47.4841 90.5763 45.4738C92.9262 43.1211 93.61 38.6708 92.2496 35.6262C93.8938 34.7594 95.2688 34.1184 95.5961 33.9655C96.6219 35.3712 98.3243 36.4711 101.132 36.4711C103.14 36.4711 105.163 35.7573 106.742 34.5627C106.989 34.3952 107.04 34.0456 106.865 33.7979Z" fill="url(#paint0_linear_10698_46933)"></path><defs><linearGradient id="paint0_linear_10698_46933" x1="33.3594" y1="36.1435" x2="106.968" y2="13.6001" gradientUnits="userSpaceOnUse"><stop stop-color="#3ACCDD"></stop><stop offset="0.499476" stop-color="#F28986"></stop><stop offset="1" stop-color="#FFA262"></stop></linearGradient></defs></svg> 