<?xml version="1.0" encoding="UTF-8"?> <svg xmlns="http://www.w3.org/2000/svg" width="165" height="31" viewBox="0 0 165 31" fill="none"><g clip-path="url(#clip0_17230_68515)"><path d="M144.478 29.5599H149.94V20.7234L157.561 29.5599H164.244L155.372 19.376L162.951 10.5456H156.869L149.94 18.6844V0.716797L144.478 1.43267V29.5599ZM131.882 10.0585C125.819 10.0585 121.608 14.1368 121.608 20.0498C121.608 25.9628 125.819 30.041 131.882 30.041C137.945 30.041 142.156 25.9628 142.156 20.0498C142.156 14.1368 137.945 10.0585 131.882 10.0585ZM131.882 25.3853C129.073 25.3853 127.148 23.2138 127.148 20.0498C127.148 16.8858 129.073 14.7143 131.882 14.7143C134.691 14.7143 136.616 16.8858 136.616 20.0498C136.616 23.2138 134.691 25.3853 131.882 25.3853ZM109.686 10.0585C103.623 10.0585 99.4119 14.1368 99.4119 20.0498C99.4119 25.9628 103.623 30.041 109.686 30.041C115.749 30.041 119.96 25.9628 119.96 20.0498C119.96 14.1368 115.749 10.0585 109.686 10.0585ZM109.686 25.3853C106.877 25.3853 104.952 23.2138 104.952 20.0498C104.952 16.8858 106.877 14.7143 109.686 14.7143C112.495 14.7143 114.42 16.8858 114.42 20.0498C114.42 23.2138 112.495 25.3853 109.686 25.3853ZM88.7829 10.0585C86.2566 10.0585 84.1633 11.051 82.852 12.8675V0.716797L77.3842 1.42655V29.5538H82.2324L82.3286 26.6184C83.6219 28.8079 85.9378 30.041 88.7829 30.041C93.9682 30.041 97.7637 25.8303 97.7637 20.0498C97.7637 14.2691 93.9861 10.0585 88.7829 10.0585ZM87.4898 25.3853C84.6806 25.3853 82.7558 23.2138 82.7558 20.0498C82.7558 16.8858 84.6806 14.7143 87.4898 14.7143C90.2988 14.7143 92.2237 16.8858 92.2237 20.0498C92.2237 23.2138 90.2988 25.3853 87.4898 25.3853ZM66.4364 25.6319C63.5371 25.6319 61.4558 24.2844 60.7461 21.9627H74.202C74.3345 21.2529 74.4247 20.4107 74.4247 19.8452C74.4247 13.7277 71.0019 10.0585 65.2514 10.0585C59.4468 10.0585 55.4286 14.1368 55.4286 20.0498C55.4286 26.0409 59.6393 30.041 65.8891 30.041C69.1252 30.041 72.2712 28.9583 74.2382 27.1598L72.2712 23.6951C70.3644 25.0123 68.4936 25.6319 66.4364 25.6319ZM65.2153 14.3052C67.7418 14.3052 69.3538 15.839 69.3538 18.2151V18.2332H60.6318C61.1552 15.7129 62.7851 14.3052 65.2153 14.3052ZM46.875 30.047C49.7021 30.047 52.4691 28.9643 54.4179 27.0875L52.2825 23.4965C50.7667 24.6755 49.0465 25.313 47.4163 25.313C44.3846 25.313 42.3635 23.1956 42.3635 20.0557C42.3635 16.9158 44.3846 14.7984 47.4163 14.7984C48.914 14.7984 50.5442 15.3397 51.8675 16.2963L54.0391 12.6269C52.2825 11.0389 49.5637 10.0644 46.8688 10.0644C40.9379 10.0644 36.7453 14.2029 36.7453 20.0557C36.7512 25.8905 40.9438 30.047 46.875 30.047ZM29.509 10.5456L29.4128 13.5052C28.1195 11.2976 25.8036 10.0644 22.9585 10.0644C17.7552 10.0644 13.9776 14.2752 13.9776 20.0557C13.9776 25.8364 17.7793 30.047 22.9585 30.047C25.8036 30.047 28.1254 28.8138 29.4128 26.6243L29.509 29.5597H34.3572V10.5456H29.509ZM24.2516 25.3853C21.4426 25.3853 19.5177 23.2138 19.5177 20.0498C19.5177 16.8858 21.4426 14.7143 24.2516 14.7143C27.0608 14.7143 28.9856 16.8858 28.9856 20.0498C28.9856 23.2138 27.0547 25.3853 24.2516 25.3853ZM13.5686 10.5813H8.65418V8.9571C8.65418 6.52695 9.6046 5.59469 12.0709 5.59469C12.8347 5.59469 13.4543 5.61266 13.8092 5.64879V1.48028C13.1354 1.29372 11.4934 1.10734 10.543 1.10734C5.5202 1.10734 3.20436 3.47728 3.20436 8.5962V10.5752H0.100586V15.171H3.20436V29.5534H8.66011V15.1769H12.7265L13.5686 10.5813Z" fill="#0766FF"></path></g><defs><clipPath id="clip0_17230_68515"><rect width="164.147" height="29.3333" fill="white" transform="translate(0.0996094 0.714844)"></rect></clipPath></defs></svg> 