<?xml version="1.0" encoding="UTF-8"?> <svg xmlns="http://www.w3.org/2000/svg" width="141" height="61" viewBox="0 0 141 61" fill="none"><path fill-rule="evenodd" clip-rule="evenodd" d="M40.7452 45.9999C40.7452 45.9999 27.781 45.9999 25.9289 45.9999C24.0769 45.9999 22.0705 44.045 22.6364 41.6528L24.7714 32.4698C25.3373 30.0519 27.7295 28.1227 30.1217 28.1227H38.816C38.9188 28.1227 39.0217 28.097 39.0989 28.0455L45.0666 23.8013C45.4267 23.5441 45.9154 23.8784 45.8125 24.29L44.9379 28.1484C47.3301 28.1484 48.7963 30.1033 48.2304 32.4955L46.0955 41.6785C45.5296 44.045 43.1374 45.9999 40.7452 45.9999Z" fill="#00E6A0"></path><path fill-rule="evenodd" clip-rule="evenodd" d="M19.9624 14.2324C19.9624 14.2324 28.8368 14.2324 34.4957 14.2324C36.3992 14.2324 38.6371 15.6214 38.0455 18.631C37.1194 22.5923 35.9105 27.8654 35.9105 27.8654C35.3446 30.2833 32.9524 32.2125 30.5602 32.2125H21.8916C21.7888 32.2125 21.6859 32.2383 21.6087 32.3154L15.6668 36.5339C15.3067 36.7912 14.7922 36.4568 14.8951 36.0195L15.7439 32.2125C13.3517 32.2125 11.8855 30.2576 12.4514 27.8654C12.4514 27.8654 13.8919 21.5634 14.5864 18.5795C15.3324 15.6214 17.5702 14.2324 19.9624 14.2324Z" fill="#0059BE"></path><path opacity="0.8" fill-rule="evenodd" clip-rule="evenodd" d="M40.7452 45.9999C40.7452 45.9999 27.781 45.9999 25.9289 45.9999C24.0769 45.9999 22.0705 44.045 22.6364 41.6528L24.7714 32.4698C25.3373 30.0519 27.7295 28.1227 30.1217 28.1227H38.816C38.9188 28.1227 39.0217 28.097 39.0989 28.0455L45.0666 23.8013C45.4267 23.5441 45.9154 23.8784 45.8125 24.29L44.9379 28.1484C47.3301 28.1484 48.7963 30.1033 48.2304 32.4955L46.0955 41.6785C45.5296 44.045 43.1374 45.9999 40.7452 45.9999Z" fill="#00E6A0"></path><path opacity="0.8" d="M23.3576 41.627L22.6631 41.7556L24.7466 32.5212C25.3125 30.0776 27.7562 28.0969 30.1484 28.0969H38.8683V28.74L30.277 28.6885C28.2192 28.6885 25.9041 30.5406 25.3897 32.5469L23.3576 41.627Z" fill="#00E6A0"></path><path d="M20.272 28.5085C20.2205 28.5085 20.1691 28.5085 20.1176 28.4828C19.7318 28.3799 19.4746 27.9941 19.5775 27.6082L21.5324 19.1455C21.6095 18.8111 21.8925 18.5796 22.2526 18.5796H28.3746C29.3521 18.5796 29.918 18.9912 30.2266 19.3513C30.6125 19.7886 30.8182 20.3802 30.8182 21.049C30.8182 22.8238 29.4292 24.8045 27.4229 24.8045H21.7639L21.0437 27.9426C20.8893 28.277 20.6064 28.5085 20.272 28.5085ZM22.0468 23.3383H27.3714C28.5804 23.3383 29.3263 22.0007 29.3263 21.049C29.3263 20.7403 29.2492 20.4831 29.0948 20.303C28.9405 20.1229 28.6833 20.0458 28.3489 20.0458H22.8185L22.0468 23.3383Z" fill="white"></path><path d="M30.1495 41.807C30.0208 41.807 29.8922 41.7813 29.7893 41.7298C29.5064 41.5755 29.3521 41.2668 29.3778 40.9581L30.2781 34.013C30.3295 33.6015 30.7154 33.2928 31.1269 33.3442C31.5385 33.3957 31.8471 33.7815 31.7957 34.1931L31.1784 39.1318L34.9081 35.7879C35.0882 35.6335 35.3197 35.5564 35.5512 35.6078C35.7827 35.6335 35.9885 35.7879 36.0914 35.9937L37.9949 39.3633L40.5671 33.8072C40.7472 33.4214 41.2102 33.2671 41.596 33.4471C41.9819 33.6272 42.1362 34.0902 41.9561 34.476L38.7408 41.3954C38.6122 41.6526 38.355 41.8327 38.072 41.8327C37.7891 41.8327 37.5061 41.7041 37.3775 41.4469L35.2168 37.5885L30.6639 41.6269C30.5096 41.7555 30.3295 41.807 30.1495 41.807Z" fill="white"></path><path d="M56.7197 33.2416L55.8966 36.5855H54.0703L56.3853 27.2739H59.6264C60.5524 27.2739 61.2212 27.5569 61.6328 28.097C62.0443 28.6372 62.1215 29.3575 61.89 30.2578C61.6585 31.158 61.2212 31.8783 60.5524 32.4185C59.8836 32.9586 59.0862 33.2416 58.1602 33.2416H56.7197ZM57.0799 31.7754H58.4946C58.8804 31.7754 59.2148 31.621 59.4978 31.3381C59.7807 31.0552 59.9608 30.695 60.0894 30.2578C60.1923 29.8205 60.1923 29.4346 60.0637 29.1517C59.9351 28.8687 59.6778 28.7144 59.292 28.7144H57.8773L57.0799 31.7754Z" fill="black"></path><path d="M70.5336 27.2738L68.9646 33.6273C68.7073 34.6304 68.2443 35.3764 67.5241 35.9166C66.8039 36.4567 65.9807 36.714 65.029 36.714C64.0773 36.714 63.3828 36.431 62.9455 35.8909C62.5082 35.3507 62.4053 34.579 62.6368 33.6015L64.2059 27.248H66.0322L64.4631 33.6015C64.3345 34.1674 64.3345 34.579 64.5146 34.8619C64.6946 35.1192 64.9776 35.2735 65.4148 35.2735C65.8521 35.2735 66.2122 35.1449 66.5209 34.8877C66.8039 34.6304 67.0354 34.2189 67.1897 33.6015L68.7588 27.248H70.5336V27.2738Z" fill="black"></path><path d="M74.8035 34.1419C74.9064 33.7818 74.8807 33.4988 74.7264 33.2931C74.5977 33.0873 74.3148 32.8815 73.8775 32.6757C73.0029 32.3413 72.3599 31.9555 71.974 31.5182C71.5882 31.0809 71.511 30.4893 71.6911 29.7176C71.8711 28.9459 72.3084 28.3286 73.0029 27.8399C73.6975 27.3511 74.4691 27.1196 75.3437 27.1196C76.2183 27.1196 76.8871 27.3769 77.2986 27.917C77.7102 28.4572 77.8131 29.126 77.6073 29.9491L77.5816 29.9748H75.8067C75.9096 29.5376 75.8839 29.2032 75.7553 28.9459C75.6009 28.6887 75.3437 28.5601 74.9579 28.5601C74.5977 28.5601 74.2891 28.663 74.0319 28.8945C73.7746 29.126 73.5946 29.3832 73.5174 29.7176C73.4402 30.0263 73.4917 30.2835 73.6717 30.4636C73.8518 30.6694 74.1862 30.8751 74.6749 31.1324C75.4723 31.441 76.0639 31.8011 76.3726 32.2642C76.707 32.7272 76.7842 33.3445 76.5784 34.1162C76.3726 34.9136 75.961 35.5567 75.2923 36.0197C74.6492 36.4827 73.8775 36.7142 72.9772 36.7142C72.0769 36.7142 71.3824 36.4569 70.868 35.9425C70.3535 35.428 70.2249 34.6821 70.4821 33.7046L70.5078 33.6789H72.2827C72.1284 34.2448 72.1541 34.6564 72.3342 34.9136C72.5142 35.1708 72.8486 35.2994 73.3373 35.2994C73.7232 35.2994 74.0319 35.1965 74.2634 34.9908C74.5463 34.785 74.7006 34.502 74.8035 34.1419Z" fill="black"></path><path d="M84.2171 36.5855H82.3908L83.3426 32.7271H80.4616L79.5099 36.5855H77.6836L79.9986 27.2739H81.8249L80.8218 31.2867H83.7027L84.7059 27.2739H86.5322L84.2171 36.5855Z" fill="black"></path><path d="M93.2199 33.2159H93.2713L95.7664 27.2739H97.5413L93.4257 36.5855H91.728L91.8309 30.8751H91.8052L89.0786 36.5855H87.3809L87.8953 27.2739H89.6702L89.1814 33.2159H89.2072L92.0367 27.2739H93.3485L93.2199 33.2159Z" fill="black"></path><path d="M103.69 33.2415C103.407 34.3219 102.918 35.1964 102.172 35.8138C101.426 36.4311 100.552 36.7398 99.5743 36.7398C98.5969 36.7398 97.8766 36.4311 97.4394 35.8138C97.0021 35.1964 96.9249 34.3476 97.1821 33.2415L97.8252 30.6435C98.1081 29.5632 98.5969 28.6886 99.3428 28.0713C100.089 27.4539 100.938 27.1453 101.941 27.1453C102.918 27.1453 103.639 27.4539 104.076 28.0713C104.513 28.6886 104.616 29.5375 104.333 30.6435L103.69 33.2415ZM102.532 30.6178C102.687 29.949 102.712 29.4346 102.532 29.1002C102.378 28.7658 102.044 28.5857 101.581 28.5857C101.092 28.5857 100.706 28.7658 100.372 29.1002C100.037 29.4346 99.8058 29.949 99.6258 30.6178L98.957 33.2415C98.7769 33.9103 98.7769 34.4248 98.9313 34.7592C99.0856 35.0936 99.3943 35.2736 99.883 35.2736C100.346 35.2736 100.758 35.0936 101.092 34.7592C101.426 34.4248 101.684 33.9103 101.838 33.2415L102.532 30.6178Z" fill="black"></path><path d="M111.664 33.2415C111.381 34.3219 110.892 35.1964 110.146 35.8138C109.4 36.4311 108.525 36.7398 107.548 36.7398C106.57 36.7398 105.85 36.4311 105.413 35.8138C104.976 35.1964 104.899 34.3476 105.156 33.2415L105.799 30.6435C106.082 29.5632 106.57 28.6886 107.316 28.0713C108.062 27.4539 108.911 27.1453 109.914 27.1453C110.892 27.1453 111.612 27.4539 112.049 28.0713C112.487 28.6886 112.59 29.5375 112.307 30.6435L111.664 33.2415ZM110.506 30.6178C110.66 29.949 110.686 29.4346 110.506 29.1002C110.352 28.7658 110.017 28.5857 109.554 28.5857C109.066 28.5857 108.68 28.7658 108.345 29.1002C108.011 29.4346 107.779 29.949 107.599 30.6178L106.931 33.2415C106.751 33.9103 106.751 34.4248 106.905 34.7592C107.059 35.0936 107.368 35.2736 107.857 35.2736C108.32 35.2736 108.731 35.0936 109.066 34.7592C109.4 34.4248 109.657 33.9103 109.812 33.2415L110.506 30.6178Z" fill="black"></path><path d="M117.298 34.1419C117.401 33.7818 117.375 33.4988 117.221 33.2931C117.092 33.0873 116.809 32.8815 116.372 32.6757C115.497 32.3413 114.854 31.9555 114.468 31.5182C114.082 31.0809 114.005 30.4893 114.185 29.7176C114.365 28.9459 114.803 28.3286 115.497 27.8399C116.192 27.3511 116.963 27.1196 117.838 27.1196C118.712 27.1196 119.381 27.3769 119.793 27.917C120.204 28.4572 120.307 29.126 120.101 29.9491L120.076 29.9748H118.301C118.404 29.5376 118.378 29.2032 118.249 28.9459C118.095 28.6887 117.838 28.5601 117.452 28.5601C117.092 28.5601 116.783 28.663 116.526 28.8945C116.269 29.126 116.089 29.3832 116.012 29.7176C115.934 30.0263 115.986 30.2835 116.166 30.4636C116.346 30.6694 116.68 30.8751 117.169 31.1324C117.966 31.441 118.558 31.8011 118.867 32.2642C119.201 32.7272 119.278 33.3445 119.073 34.1162C118.867 34.9136 118.455 35.5567 117.786 36.0197C117.143 36.4827 116.372 36.7142 115.471 36.7142C114.571 36.7142 113.877 36.4569 113.362 35.9425C112.848 35.428 112.719 34.6821 112.976 33.7046L113.002 33.6789H114.777C114.623 34.2448 114.648 34.6564 114.828 34.9136C115.008 35.1708 115.343 35.2994 115.831 35.2994C116.217 35.2994 116.526 35.1965 116.757 34.9908C117.04 34.785 117.195 34.502 117.298 34.1419Z" fill="black"></path><path d="M126.685 36.5855H124.859L125.81 32.7271H122.929L121.978 36.5855H120.151L122.466 27.2739H124.293L123.29 31.2867H126.17L127.174 27.2739H129L126.685 36.5855Z" fill="black"></path></svg> 