<?xml version="1.0" encoding="UTF-8"?> <svg xmlns="http://www.w3.org/2000/svg" width="221" height="60" viewBox="0 0 221 60" fill="none"><path d="M127.548 37.0984C122.278 40.3063 117.466 39.7334 114.258 35.8381C111.28 32.0574 111.623 26.5582 115.06 23.0066C117.695 20.1424 124.111 19.2259 127.434 22.5483C127.892 20.1424 129.725 21.2881 130.985 21.2881C132.589 21.1735 131.902 22.6629 131.902 23.3503C132.016 27.5893 131.787 31.8283 132.016 36.0673C132.36 44.087 127.09 48.4406 118.268 46.8366C117.237 46.6075 116.206 46.2638 115.29 45.8055C112.998 44.7744 112.998 44.7744 114.258 42.4831C114.831 41.452 115.175 41.3374 116.206 41.9102C118.154 43.0559 120.216 43.5142 122.393 43.285C125.715 42.8268 127.434 40.7646 127.548 37.0984ZM127.663 29.8806C127.663 26.9019 125.257 24.3814 122.164 24.3814C119.299 24.3814 116.779 26.9019 116.779 29.7661C116.779 32.7448 119.185 35.2653 122.278 35.2653C125.257 35.2653 127.548 32.8594 127.663 29.8806Z" fill="#3E94E5"></path><path d="M178.989 22.5484C179.562 22.0902 178.989 20.8299 179.677 20.9445C180.937 21.2882 181.854 20.3717 182.999 20.7154C183.572 20.9445 183.572 21.4028 183.572 21.861C183.572 27.3603 183.572 32.7449 183.572 38.1296C183.572 38.817 183.343 39.3899 182.541 39.2753C181.281 39.0462 179.104 40.421 179.104 37.5568C174.063 40.7647 169.48 40.421 166.387 36.7548C163.294 33.0887 163.065 27.1311 166.158 23.5796C169.366 19.7988 173.834 19.4551 178.989 22.5484ZM174.063 35.7237C177.042 35.7237 179.562 33.2032 179.562 30.2245C179.562 26.902 177.042 24.3815 173.834 24.3815C170.97 24.3815 168.449 26.902 168.449 29.8808C168.449 33.2032 170.741 35.7237 174.063 35.7237Z" fill="#3E94E5"></path><path d="M95.8138 22.7775C97.7614 20.3716 100.282 20.3716 102.802 20.3716C105.781 20.4861 108.531 23.4649 108.645 26.7874C108.76 30.2244 108.645 33.776 108.645 37.213C108.645 38.9315 108.073 39.2752 106.469 39.2752C104.521 39.2752 103.834 38.9315 104.063 36.8693C104.292 34.2342 104.177 31.5992 104.063 28.9641C104.063 25.9854 102.459 24.2669 99.9382 24.1523C97.4177 24.1523 95.5847 26.1 95.5847 28.8496C95.5847 31.7138 95.4701 34.5779 95.5847 37.5567C95.6992 39.5043 94.3244 39.0461 93.2933 39.0461C92.2622 39.0461 91.002 39.6189 91.002 37.5567C91.1165 32.2866 91.002 27.0165 91.002 21.861C91.002 20.8299 91.3457 20.257 92.3768 20.4861C93.8661 21.059 96.0429 19.5696 95.8138 22.7775Z" fill="#3C93E4"></path><path d="M135.568 27.3609C135.568 25.6423 135.568 24.0384 135.568 22.3199C135.568 21.1742 135.797 20.4868 137.058 20.7159C137.516 20.7159 137.86 20.7159 138.318 20.7159C139.693 20.4868 140.266 20.9451 140.151 22.4345C140.036 25.4132 140.036 28.2774 140.151 31.2562C140.151 33.6621 141.411 35.266 143.359 35.6097C145.65 36.068 147.713 34.3495 147.827 31.9436C147.827 28.8502 147.827 25.6423 147.827 22.549C147.827 21.4033 147.942 21.1742 149.202 21.1742C152.41 21.2888 152.41 21.2888 152.41 24.4967C152.41 27.1317 152.41 29.7668 152.295 32.2873C152.066 36.87 148.858 39.6196 143.932 39.6196C139.12 39.6196 135.797 36.6408 135.683 32.1727C135.568 30.5687 135.568 28.9648 135.568 27.3609Z" fill="#3C93E4"></path><path d="M72.5554 39.7339C69.462 39.8485 67.3998 38.932 65.5667 37.328C64.7648 36.6406 64.4211 35.9532 65.4522 35.2658C66.2541 34.693 66.5978 32.9744 68.0872 34.4638C69.3475 35.7241 70.8368 36.2969 72.6699 36.0678C73.5865 35.9532 74.503 35.4949 74.8467 34.4638C75.0758 33.3181 74.2739 32.7453 73.3573 32.4016C71.7534 31.5996 70.0349 30.9122 68.4309 30.1103C66.2541 28.9646 65.3376 26.7878 66.025 24.3819C66.5978 22.3197 68.6601 20.9449 70.8368 20.6012C73.3573 20.1429 75.6487 20.4866 77.8255 21.976C78.3983 22.4342 79.4294 22.8925 78.3983 23.6945C77.5963 24.3819 77.4818 26.5587 75.6487 24.9547C74.6176 24.1527 73.3573 23.809 72.0971 23.9236C71.1805 23.9236 70.6077 24.4964 70.3786 25.2984C70.1494 26.1004 70.7223 26.6732 71.4097 27.0169C72.7845 27.7043 74.2739 28.2772 75.6487 28.85C78.8566 30.3394 79.8877 31.9433 79.544 34.8075C79.2003 37.2134 77.0235 39.1611 74.0447 39.6194C73.1282 39.7339 72.5554 39.7339 72.5554 39.7339Z" fill="#3C93E4"></path><path d="M155.846 26.2142C155.846 22.4335 155.846 18.5382 155.846 14.7575C155.846 13.6118 156.075 13.2681 157.221 13.3827C157.793 13.4972 158.481 13.4972 159.054 13.3827C160.085 13.2681 160.314 13.8409 160.314 14.6429C160.314 22.4335 160.314 30.2241 160.314 37.9001C160.314 38.9312 159.856 39.1604 158.939 39.1604C155.846 39.2749 155.846 39.2749 155.846 36.2962C155.846 32.9737 155.846 29.6513 155.846 26.2142Z" fill="#3E94E5"></path><path d="M191.362 23.4649C193.08 21.059 194.799 20.3716 196.861 20.3716C198.236 20.3716 199.038 20.4862 198.809 22.3192C198.58 23.8086 198.694 25.1834 196.288 24.7251C194.112 24.2669 192.049 26.3291 191.935 28.735C191.706 31.5992 191.706 34.4634 191.82 37.3276C191.935 39.5044 190.789 39.2752 189.414 39.3898C187.81 39.5044 187.237 39.1607 187.237 37.3276C187.352 32.6303 187.237 27.933 187.352 23.2358C187.352 22.4338 186.55 20.7153 188.498 20.9444C189.643 20.9444 191.935 19.5696 191.362 23.4649Z" fill="#3C93E4"></path><path d="M87.3363 21.517C87.3363 27.0162 87.3363 32.4009 87.4509 37.7856C87.4509 38.7021 87.2217 39.1604 86.076 39.2749C82.8682 39.3895 82.8682 39.3895 82.8682 36.2962C82.8682 31.8281 82.9827 27.2454 82.8682 22.7772C82.8682 21.2878 83.2119 20.8296 84.7012 21.0587C85.3886 21.1733 86.1906 21.0587 86.878 21.1733C86.9926 21.2879 87.2217 21.4024 87.3363 21.517Z" fill="#3E94E5"></path><path d="M49.1843 30.4539C48.7261 22.3196 45.0599 16.8203 38.0713 13.1542C39.7898 12.3522 41.5083 12.6959 42.9977 13.0396C51.0174 14.9872 51.934 16.8203 51.132 25.1837C51.132 26.9023 50.4446 28.6208 49.1843 30.4539Z" fill="#3E94E5"></path><path d="M55.256 36.9844C53.5375 41.1088 50.6733 43.8584 46.6634 45.5769C46.4343 45.6915 45.976 45.8061 45.7469 45.6915C41.2788 44.6604 37.498 42.3691 34.9775 38.2446C42.0807 41.4525 48.7256 40.9942 55.256 36.9844Z" fill="#3E94E5"></path><path d="M44.3721 38.2447C50.9024 33.8912 53.9957 27.9337 53.5375 20.1431C56.2871 23.6947 57.3182 27.7045 56.7454 32.0581C56.7454 32.4018 56.4017 32.7455 56.1725 33.0892C52.9646 36.4117 49.0693 38.2447 44.3721 38.2447Z" fill="#3E94E5"></path><path d="M44.4865 21.7468C37.6125 18.4243 31.0821 18.8826 24.5518 23.1216C24.7809 21.174 25.9266 19.7992 26.9577 18.768C32.5715 13.0397 34.9774 12.696 41.7369 17.9661C42.8826 18.9972 43.9137 20.1429 44.4865 21.7468Z" fill="#3E94E5"></path><path d="M35.7805 21.6316C28.6773 25.7561 25.9277 31.7136 26.3859 39.6187C24.6674 38.2439 24.2091 36.7545 23.7509 35.2652C21.8032 28.0474 22.3761 25.9852 29.5938 22.7773C31.3123 21.8608 33.26 21.4025 35.7805 21.6316Z" fill="#3E94E5"></path><path d="M42.4245 46.8363C38.1855 47.2946 34.9776 46.6072 31.7697 45.0032C29.9366 44.0867 28.9055 42.8264 28.6764 40.7642C28.2181 36.9835 28.3327 33.4319 30.7386 29.5366C30.624 37.9 34.7484 43.2847 42.4245 46.8363Z" fill="#3E94E5"></path><path d="M85.1588 18.6534C83.6694 18.6534 82.4092 17.3931 82.4092 15.7892C82.4092 14.1852 83.5549 13.0396 85.1588 13.0396C86.8773 13.0396 88.1376 14.2998 88.023 15.9037C88.023 17.3931 86.6482 18.6534 85.1588 18.6534Z" fill="#3E94E5"></path><path d="M87.3352 21.517C87.2207 21.4025 87.1061 21.2879 86.877 21.1733C87.2207 21.1733 87.3352 21.2879 87.3352 21.517Z" fill="#3C93E4"></path></svg> 