<?xml version="1.0" encoding="UTF-8"?> <svg xmlns="http://www.w3.org/2000/svg" width="141" height="60" viewBox="0 0 141 60" fill="none"><path d="M31.6722 27.5718C30.3237 29.8248 29.0288 32.007 27.7088 34.175C27.521 34.4149 27.4003 34.6998 27.359 35.0009C27.3176 35.3019 27.3571 35.6085 27.4734 35.8896C27.6577 36.3231 27.7438 36.7917 27.7255 37.262C27.7071 37.7322 27.5849 38.1928 27.3674 38.6109C27.1499 39.029 26.8424 39.3946 26.4668 39.6816C26.0912 39.9685 25.6566 40.17 25.1938 40.2716C23.3245 40.757 21.5016 39.5383 21.1306 37.551C20.8024 35.7798 22.1758 34.0652 24.1307 33.7924C24.2948 33.7676 24.4625 33.7676 24.7372 33.7464L27.7088 28.7869C25.8395 26.9412 24.7265 24.7838 24.9726 22.1092C25.1136 20.265 25.9281 18.5353 27.2629 17.2454C28.521 16.0032 30.1691 15.2257 31.9335 15.0421C33.6979 14.8584 35.4726 15.2796 36.9627 16.2358C39.9236 18.1239 41.2828 21.8081 40.1269 24.9574L37.4121 24.2241C37.7689 22.4741 37.5085 20.8977 36.317 19.5516C35.5558 18.7038 34.5093 18.161 33.3739 18.0247C32.242 17.8734 31.093 18.1291 30.1345 18.7457C29.176 19.3622 28.4712 20.299 28.1476 21.3866C27.3913 23.9301 28.54 26.006 31.6722 27.5718Z" fill="#C73A63"></path><path d="M35.5398 24.9077L38.4151 29.9416C43.2525 28.4538 46.8984 31.1142 48.2076 33.9624C48.9815 35.616 49.1447 37.4873 48.6685 39.2484C48.1924 41.0095 47.1073 42.5481 45.6034 43.5944C42.4177 45.7731 38.3901 45.4011 35.5648 42.6025L37.7801 40.7604C40.5698 42.5529 43.0063 42.4679 44.815 40.346C45.5616 39.4625 45.9642 38.3425 45.9498 37.1893C45.9354 36.0361 45.5049 34.9263 44.7365 34.0616C42.9029 32.014 40.4557 31.9361 37.4805 33.9163C36.2497 31.7483 34.9833 29.5945 33.806 27.4123C33.6517 27.0624 33.4091 26.7579 33.1016 26.5283C32.7941 26.2987 32.4323 26.1517 32.0509 26.1016C31.3432 25.9708 30.7029 25.6009 30.2386 25.0546C29.7743 24.5083 29.5147 23.8193 29.5038 23.1046C29.4664 22.4136 29.6509 21.7287 30.0308 21.1486C30.4107 20.5686 30.9663 20.1233 31.6175 19.877C32.2687 19.6307 32.9818 19.5961 33.654 19.7783C34.3263 19.9605 34.9229 20.3499 35.3579 20.8905C35.7155 21.3023 35.9567 21.8009 36.057 22.3355C36.1572 22.8701 36.113 23.4215 35.9286 23.9335C35.8252 24.2382 35.6861 24.5393 35.5398 24.9077Z" fill="#4B4B4B"></path><path d="M37.8121 38.5288H31.9866C31.43 40.8102 30.2243 42.6487 28.1445 43.8213C26.5704 44.7241 24.7273 45.0501 22.9361 44.7423C21.2359 44.431 19.6852 43.5753 18.5211 42.3061C17.357 41.0369 16.6435 39.424 16.4898 37.714C16.3603 35.8734 16.8926 34.0469 17.992 32.5595C19.0914 31.072 20.6866 30.0202 22.4937 29.5911L23.2393 32.2763C19.9466 33.9448 18.8086 36.0455 19.729 38.674C20.5388 40.9873 22.8433 42.2555 25.3476 41.7631C27.8519 41.2707 29.1897 39.1558 29.0327 35.7692C31.455 35.7692 33.8773 35.7444 36.2995 35.7692C37.2449 35.7692 37.9762 35.6877 38.6897 34.8588C39.8633 33.4949 42.0216 33.6189 43.2845 34.9048C43.5841 35.2158 43.819 35.5824 43.976 35.9835C44.1329 36.3847 44.2087 36.8126 44.1991 37.2429C44.1895 37.6732 44.0947 38.0973 43.92 38.4912C43.7453 38.8851 43.4942 39.2409 43.181 39.5384C42.8678 39.8359 42.4987 40.0692 42.0947 40.2251C41.6908 40.3809 41.2598 40.4562 40.8265 40.4467C40.3932 40.4372 39.9661 40.343 39.5694 40.1695C39.1728 39.996 38.8145 39.7467 38.5149 39.4357C38.2654 39.1454 38.0308 38.8427 37.8121 38.5288Z" fill="#4A4A4A"></path><path d="M56.288 26.8313H58.5248L59.809 32.8536L61.1254 26.8313H63.4228L60.9756 35.2093H58.7138L57.3903 29.1056L56.0526 35.2093H53.7623L51.3936 26.8313H53.7623L55.0787 32.8536L56.288 26.8313Z" fill="#4B4B4B"></path><path d="M69.5658 27.0015C70.1611 27.2684 70.6673 27.6986 71.0249 28.2413C71.3782 28.7606 71.6076 29.353 71.6956 29.9736C71.7626 30.5248 71.7865 31.0802 71.7669 31.635H65.6239C65.6571 32.4758 65.9509 33.0662 66.505 33.4063C66.8719 33.6245 67.294 33.7339 67.7215 33.7216C68.0664 33.7489 68.4116 33.6718 68.7116 33.5004C69.0115 33.329 69.2521 33.0714 69.4017 32.7616H71.6527C71.551 33.3398 71.2645 33.8701 70.8358 34.2742C70.0795 35.089 69.0212 35.4964 67.6608 35.4964C66.579 35.5106 65.5268 35.1456 64.6892 34.4655C63.8306 33.7783 63.4014 32.66 63.4014 31.1108C63.4014 29.6583 63.789 28.546 64.5643 27.7737C64.9605 27.3852 65.4328 27.0816 65.9519 26.8817C66.4711 26.6819 67.026 26.59 67.5824 26.6118C68.2639 26.6003 68.94 26.7331 69.5658 27.0015ZM66.2767 28.8967C65.9459 29.2553 65.7396 29.7097 65.6881 30.1933H69.4873C69.4853 29.9442 69.432 29.6983 69.3308 29.4705C69.2296 29.2426 69.0825 29.0377 68.8987 28.8684C68.5338 28.5617 68.0673 28.4001 67.5895 28.4149C67.349 28.4011 67.1083 28.4367 66.8824 28.5196C66.6565 28.6025 66.4503 28.7309 66.2767 28.8967Z" fill="#4B4B4B"></path><path d="M79.9071 27.8409C80.5677 28.728 80.9014 29.8135 80.8524 30.9158C80.8976 32.0665 80.57 33.2014 79.9178 34.1536C79.422 34.7765 78.7203 35.2052 77.937 35.3641C77.1536 35.5229 76.3389 35.4016 75.6369 35.0215C75.3125 34.7859 75.0333 34.4944 74.8128 34.1607V35.2235H72.6367V23.8945H74.8378V27.9224C75.0833 27.5658 75.3988 27.2622 75.7653 27.0296C76.2262 26.758 76.7567 26.6251 77.2922 26.6471C77.7922 26.6257 78.2901 26.7229 78.7448 26.9305C79.1994 27.1381 79.5979 27.4501 79.9071 27.8409ZM78.0485 32.9421C78.3895 32.4049 78.5563 31.7768 78.5265 31.1425C78.5417 30.6398 78.4619 30.1387 78.291 29.6653C78.1781 29.3281 77.9565 29.0373 77.6606 28.8375C77.3647 28.6378 77.0108 28.5403 76.6536 28.56C76.2956 28.5374 75.94 28.6309 75.6402 28.8264C75.3404 29.022 75.1126 29.3089 74.9912 29.644C74.8189 30.122 74.739 30.628 74.7558 31.1354C74.7339 31.7609 74.903 32.3783 75.2409 32.9067C75.4038 33.1412 75.6252 33.3298 75.8834 33.4539C76.1417 33.5781 76.4279 33.6337 76.7142 33.6152C76.9761 33.6258 77.2362 33.5695 77.4698 33.4516C77.7035 33.3338 77.9027 33.1583 78.0485 32.9421Z" fill="#4B4B4B"></path><path d="M88.0372 26.8774C88.4548 27.0513 88.8163 27.3356 89.0825 27.6993C89.301 27.9826 89.4467 28.3146 89.507 28.6664C89.5701 29.2036 89.5963 29.7445 89.5855 30.2853V35.2094H87.3237V30.1082C87.3394 29.731 87.2597 29.3559 87.0919 29.0171C86.9814 28.8191 86.8144 28.6579 86.6119 28.5539C86.4094 28.4499 86.1805 28.4077 85.9539 28.4326C85.7036 28.4171 85.4532 28.4619 85.2241 28.563C84.9949 28.6642 84.7937 28.8187 84.6375 29.0136C84.3083 29.5021 84.1503 30.0848 84.188 30.6714V35.2129H81.9727V23.9194H84.1773V27.9154C84.4415 27.4793 84.825 27.1267 85.2832 26.8987C85.6978 26.7078 86.1497 26.6098 86.6067 26.6117C87.0968 26.6017 87.5838 26.6922 88.0372 26.8774Z" fill="#4B4B4B"></path><path d="M98.1835 34.1857C97.4701 35.0595 96.3891 35.4964 94.9408 35.4964C93.4924 35.4964 92.4115 35.0595 91.698 34.1857C91.0051 33.2807 90.6299 32.1751 90.6299 31.0382C90.6299 29.9013 91.0051 28.7957 91.698 27.8907C92.4115 27.0051 93.4924 26.5623 94.9408 26.5623C96.3891 26.5623 97.4701 27.0051 98.1835 27.8907C98.877 28.7955 99.2526 29.9012 99.2526 31.0382C99.2526 32.1753 98.877 33.2809 98.1835 34.1857ZM96.4177 32.9742C96.7962 32.3993 96.9776 31.7184 96.9349 31.0329C96.9789 30.3483 96.7973 29.6682 96.4177 29.0951C96.2335 28.8825 96.0052 28.7118 95.7485 28.5948C95.4917 28.4778 95.2126 28.4172 94.9301 28.4172C94.6476 28.4172 94.3684 28.4778 94.1117 28.5948C93.8549 28.7118 93.6267 28.8825 93.4425 29.0951C93.0601 29.6671 92.8772 30.3478 92.9216 31.0329C92.8777 31.719 93.0606 32.4007 93.4425 32.9742C93.626 33.1879 93.854 33.3596 94.1109 33.4773C94.3677 33.595 94.6472 33.6559 94.9301 33.6559C95.2129 33.6559 95.4924 33.595 95.7493 33.4773C96.0061 33.3596 96.2341 33.1879 96.4177 32.9742Z" fill="#4B4B4B"></path><path d="M107.433 34.1857C106.72 35.0595 105.639 35.4964 104.191 35.4964C102.742 35.4964 101.661 35.0595 100.948 34.1857C100.254 33.2809 99.8789 32.1753 99.8789 31.0382C99.8789 29.9012 100.254 28.7955 100.948 27.8907C101.661 27.0051 102.742 26.5623 104.191 26.5623C105.639 26.5623 106.72 27.0051 107.433 27.8907C108.127 28.7955 108.503 29.9012 108.503 31.0382C108.503 32.1753 108.127 33.2809 107.433 34.1857ZM105.668 32.9742C106.046 32.3993 106.228 31.7184 106.185 31.0329C106.229 30.3483 106.047 29.6682 105.668 29.0951C105.483 28.8825 105.255 28.7118 104.998 28.5948C104.742 28.4778 104.462 28.4172 104.18 28.4172C103.898 28.4172 103.618 28.4778 103.362 28.5948C103.105 28.7118 102.877 28.8825 102.692 29.0951C102.31 29.6671 102.127 30.3478 102.172 31.0329C102.128 31.719 102.311 32.4007 102.692 32.9742C102.876 33.1879 103.104 33.3596 103.361 33.4773C103.618 33.595 103.897 33.6559 104.18 33.6559C104.463 33.6559 104.742 33.595 104.999 33.4773C105.256 33.3596 105.484 33.1879 105.668 32.9742Z" fill="#4B4B4B"></path><path d="M109.595 23.9194H111.764V30.0302L114.546 26.8703H117.29L114.264 29.9984L117.407 35.2165H114.721L112.677 31.635L111.764 32.5773V35.2129H109.595V23.9194Z" fill="#4B4B4B"></path><path d="M119.516 32.5347C119.528 32.8355 119.634 33.125 119.819 33.3637C120.095 33.6565 120.603 33.8029 121.342 33.8029C121.698 33.8189 122.054 33.7535 122.38 33.6116C122.488 33.5637 122.58 33.4875 122.648 33.3913C122.715 33.295 122.755 33.1824 122.762 33.0655C122.77 32.9485 122.746 32.8317 122.692 32.7276C122.637 32.6235 122.556 32.536 122.455 32.4745C121.709 32.1815 120.936 31.9596 120.147 31.812C119.411 31.6777 118.718 31.3744 118.121 30.9264C117.918 30.7331 117.761 30.4983 117.659 30.2382C117.557 29.9782 117.514 29.6992 117.532 29.4209C117.531 29.042 117.612 28.6674 117.771 28.323C117.93 27.9786 118.163 27.6726 118.453 27.4264C119.066 26.8714 119.928 26.5939 121.039 26.5939C121.941 26.5555 122.836 26.773 123.618 27.221C124.282 27.639 124.663 28.3605 124.763 29.3854H122.559C122.543 29.1445 122.461 28.9126 122.32 28.7159C122.16 28.5536 121.965 28.4291 121.75 28.3518C121.535 28.2746 121.306 28.2464 121.078 28.2695C120.721 28.2397 120.363 28.3175 120.051 28.4927C119.96 28.5482 119.885 28.6251 119.831 28.7166C119.778 28.8081 119.748 28.9113 119.744 29.017C119.738 29.1296 119.765 29.2416 119.823 29.3387C119.881 29.4358 119.966 29.5137 120.069 29.5626C120.818 29.8288 121.589 30.0314 122.373 30.1683C123.103 30.3013 123.784 30.6226 124.35 31.1C124.561 31.3041 124.728 31.5495 124.84 31.8208C124.952 32.0921 125.006 32.3834 124.999 32.6764C125.01 33.0634 124.931 33.4477 124.77 33.8C124.609 34.1524 124.368 34.4636 124.068 34.7098C123.445 35.2341 122.481 35.4962 121.178 35.4962C119.875 35.4962 118.894 35.2187 118.235 34.6638C117.928 34.4016 117.683 34.0748 117.519 33.7072C117.355 33.3396 117.276 32.9403 117.286 32.5383H119.523L119.516 32.5347Z" fill="#4B4B4B"></path></svg> 