<?xml version="1.0" encoding="UTF-8"?> <svg xmlns="http://www.w3.org/2000/svg" width="247" height="88" viewBox="0 0 247 88" fill="none"><path fill-rule="evenodd" clip-rule="evenodd" d="M91.3077 58.2297C88.4044 60.3668 84.9115 61.5141 81.2858 61.5141C71.9364 61.5141 64.3571 53.9347 64.3571 44.5854C64.3571 35.236 71.9364 27.6566 81.2858 27.6566C84.7833 27.6566 88.16 28.7242 91.0059 30.7241V28.0185H99.4202V61.092H91.3077V58.2297ZM82.504 35.041C77.2328 35.041 72.9597 39.3142 72.9597 44.5854C72.9597 49.8565 77.2328 54.1297 82.504 54.1297C87.7752 54.1297 92.0483 49.8565 92.0483 44.5854C92.0483 39.3142 87.7752 35.041 82.504 35.041Z" fill="black"></path><path fill-rule="evenodd" clip-rule="evenodd" d="M58.0834 62.9044C55.1013 60.6919 52.3552 58.1682 49.831 55.4463C46.9268 52.314 44.3523 48.8771 42.1551 45.2141L41.4835 44.0943L41.4774 44.0845C39.2019 40.1509 37.4035 35.9473 36.0635 31.607C34.9432 27.9798 34.162 24.2482 33.7367 20.476H24.3659C23.9405 24.2482 23.1593 27.9798 22.0395 31.6065C20.6725 36.0326 18.8078 40.3043 16.4917 44.3158C14.1807 48.3189 11.4141 52.0575 8.27151 55.4463C5.74645 58.1691 2.96581 60.6513 0 62.8839L4.462 71.1531C7.93991 69.6392 11.5577 68.4452 15.2567 67.602C19.7775 66.5717 24.4158 66.0759 29.0513 66.0759C33.6868 66.0759 38.3251 66.5717 42.8458 67.602C46.5443 68.4452 50.1617 69.6392 53.6396 71.1531L58.0834 62.9044ZM34.4041 49.6569L34.406 49.6602C35.1545 50.9153 35.9423 52.147 36.7668 53.3536L39.7583 57.7321L34.4713 57.3226C32.6686 57.1827 30.86 57.1118 29.0513 57.1118C27.2384 57.1118 25.426 57.1832 23.6187 57.3235L18.3372 57.7335L21.3217 53.3569C22.3445 51.8569 23.31 50.3178 24.2176 48.7456C25.1252 47.1739 25.9735 45.5676 26.7603 43.9315L29.0517 39.1659L31.3427 43.932C32.0796 45.4655 32.8711 46.9728 33.7148 48.4504L34.4041 49.6569Z" fill="#FF3344"></path><path fill-rule="evenodd" clip-rule="evenodd" d="M231.971 61.5141C229.339 61.5141 226.735 61.1694 224.197 60.4736C222.097 59.8976 219.885 59.0762 218.092 57.817L217.782 57.5987L221.07 51.0902L221.482 51.3649C223.031 52.3979 224.79 53.1171 226.575 53.6297C228.489 54.1791 230.459 54.4864 232.453 54.4864C234.175 54.4864 237.556 54.3307 238.499 52.5416C238.691 52.1769 238.767 51.7776 238.767 51.3681C238.767 50.3677 238.243 49.7787 237.329 49.4261C236.632 49.157 235.878 48.9606 235.151 48.7927C234.079 48.5455 232.99 48.3529 231.903 48.1845C230.688 47.9956 229.473 47.7844 228.27 47.5283C227.291 47.3198 226.313 47.082 225.358 46.7825C223.598 46.2317 222.088 45.264 220.828 43.9207C219.354 42.3504 218.87 40.2665 218.87 38.164C218.87 34.9217 220.254 32.3653 222.882 30.482C225.928 28.2993 229.806 27.6566 233.478 27.6566C235.745 27.6566 237.997 27.9192 240.207 28.421C242.106 28.8529 244.084 29.4858 245.762 30.4923L246.112 30.7026L242.823 37.2121L242.42 36.9747C239.655 35.3484 236.62 34.6236 233.417 34.6236C231.893 34.6236 229.951 34.7789 228.603 35.5592C227.732 36.0634 227.104 36.7578 227.104 37.8026C227.104 38.8953 227.681 39.5534 228.67 39.9587C229.402 40.2591 230.187 40.4853 230.953 40.6779C232.047 40.9526 233.16 41.1662 234.272 41.3486C235.454 41.5426 236.635 41.7548 237.805 42.0085C238.766 42.2165 239.727 42.453 240.665 42.7501C242.378 43.2934 243.862 44.2169 245.101 45.5191C246.544 47.0367 247 49.0879 247 51.127C247 54.3736 245.546 56.8856 242.892 58.7227C239.748 60.8994 235.716 61.5141 231.971 61.5141ZM205.184 57.6813C204.062 58.7955 202.749 59.6639 201.275 60.3019C199.363 61.1312 197.336 61.5141 195.253 61.5141C191.373 61.5141 187.635 60.557 184.788 57.803C181.821 54.9333 180.946 50.8374 180.946 46.8464V28.0185H189.361V45.8213C189.361 47.9429 189.716 50.3794 191.205 52.0066C192.578 53.5066 194.475 54.0042 196.458 54.0042C198.796 54.0042 200.927 53.3564 202.562 51.6386C204.321 49.7903 204.822 47.207 204.822 44.736V28.0185H213.236V61.092H205.184V57.6813ZM149.477 32.7207C150.825 31.1574 152.485 29.9685 154.38 29.1122C156.629 28.096 159.033 27.6566 161.494 27.6566C165.23 27.6566 168.751 28.6346 171.45 31.3108C174.331 34.167 175.137 38.29 175.137 42.2039V61.092H166.723V43.1684C166.723 41.0902 166.379 38.7186 164.962 37.096C163.664 35.6091 161.853 35.1059 159.927 35.1059C157.675 35.1059 155.695 35.7891 154.16 37.4658C152.465 39.3174 151.985 41.8798 151.985 44.3139V61.092H143.571V43.1684C143.571 41.0902 143.226 38.7186 141.81 37.096C140.511 35.6091 138.7 35.1059 136.774 35.1059C134.528 35.1059 132.515 35.756 130.978 37.4355C129.289 39.2824 128.832 41.8924 128.832 44.3139V61.092H120.418V28.0185H128.471V31.4302C129.592 30.3202 130.906 29.4606 132.383 28.8366C134.352 28.0055 136.452 27.6566 138.583 27.6566C140.87 27.6566 143.127 28.0558 145.195 29.0572C146.953 29.9074 148.385 31.1322 149.477 32.7207Z" fill="black"></path><path fill-rule="evenodd" clip-rule="evenodd" d="M105.713 61.0921H114.127V15.4781H105.713V61.0921Z" fill="black"></path></svg> 