<?xml version="1.0" encoding="UTF-8"?> <svg xmlns="http://www.w3.org/2000/svg" width="451" height="88" viewBox="0 0 451 88" fill="none"><path fill-rule="evenodd" clip-rule="evenodd" d="M71.4136 14.3682C71.3595 14.3142 71.3055 14.2692 71.2335 14.2062C71.0084 13.9811 70.7541 13.7561 70.4998 13.5467C68.8899 12.2256 67.0315 11.2405 65.0345 10.6498C63.0374 10.0592 60.9422 9.8748 58.8727 10.1077C54.7521 10.527 50.9004 12.348 47.9613 15.2663C47.8893 15.3383 47.8172 15.4193 47.7362 15.4913C47.4549 15.7817 47.1848 16.0698 46.9305 16.3781L38.7042 26.1957L30.4711 16.3871C27.5518 12.9266 23.3943 10.7459 18.8878 10.3114C14.3813 9.87688 9.88374 11.2231 6.35711 14.0621C6.22005 14.1583 6.09266 14.2676 5.97674 14.3885C2.55504 17.3517 0.430488 21.5375 0.0585602 26.0486C-0.313367 30.5597 1.09694 35.0369 3.98712 38.5205L35.7917 76.5933C35.8818 76.7013 35.9898 76.8184 36.1001 76.9197C36.7456 77.571 37.6109 77.9581 38.5266 78.0051C39.4424 78.0521 40.3428 77.7558 41.0516 77.174C41.2607 77.0041 41.4488 76.8099 41.6121 76.5956L47.9523 68.9972L48.0963 68.8171L56.4847 58.77L61.2539 53.078L69.3969 43.3145L78.1296 32.9185L88.0552 21.0843C88.1903 20.9223 88.3366 20.758 88.5054 20.5869C88.5594 20.5419 88.6134 20.4879 88.6584 20.4429C90.3918 18.7089 92.6699 17.6255 95.1089 17.3752C96.213 17.2446 97.3319 17.3349 98.4007 17.641C99.4695 17.947 100.467 18.4626 101.334 19.1577C101.415 19.2298 101.496 19.3018 101.589 19.3828L101.814 19.6079C101.884 19.6873 101.959 19.7625 102.039 19.8329C104.058 21.5229 105.324 23.9446 105.56 26.5669C105.796 29.1891 104.982 31.7979 103.297 33.821L74.2629 68.5853L69.1043 62.4409L69.0323 62.3599L64.7807 57.2936L60.0408 62.9856L63.3065 66.877L71.4091 76.6766C72.0529 77.4267 72.9654 77.8942 73.9503 77.9784C74.9353 78.0626 75.9139 77.7567 76.6757 77.1267C76.9219 76.92 77.1405 76.6825 77.3261 76.42L86.2479 65.6797L108.946 38.5092C111.835 35.0209 113.243 30.5404 112.869 26.0269C112.496 21.5133 110.37 17.3253 106.948 14.3592C106.894 14.3052 106.84 14.2602 106.768 14.1972C106.542 13.9721 106.288 13.7471 106.043 13.5377C104.427 12.2217 102.565 11.2406 100.565 10.6517C98.5658 10.0628 96.4692 9.87785 94.3977 10.1077C90.2798 10.5278 86.4307 12.3479 83.493 15.264C83.421 15.336 83.349 15.4171 83.268 15.4891C82.9866 15.7794 82.7166 16.0675 82.4622 16.3759L76.8535 23.0649L62.413 40.3391L62.377 40.303L56.4599 47.3522L51.6817 53.0442L45.6048 60.2735L38.7042 68.4503L34.5606 63.5955L33.6288 62.4702L33.6108 62.4882L30.0817 58.3536L9.60037 33.821C7.94786 31.795 7.16061 29.1993 7.40931 26.5967C7.65801 23.9941 8.92263 21.5945 10.9289 19.9181C12.9352 18.2417 15.5215 17.4238 18.1268 17.6417C20.7322 17.8596 23.1466 19.0958 24.8466 21.0821L48.1323 48.8152L52.9106 43.1322L43.4734 31.8787L52.5482 21.0753C52.6832 20.9133 52.8295 20.749 52.9983 20.5779C53.0524 20.5329 53.1064 20.4789 53.1514 20.4339C54.8848 18.6999 57.1629 17.6165 59.6019 17.3662C60.7059 17.2356 61.8249 17.3259 62.8937 17.632C63.9625 17.938 64.9597 18.4536 65.8273 19.1487C65.9083 19.2207 65.9894 19.2928 66.0816 19.3738L66.3067 19.5989C66.3772 19.6783 66.4524 19.7534 66.5318 19.8239C67.7564 20.8426 68.7157 22.1432 69.3272 23.6141L74.3642 17.6363C73.5257 16.4223 72.5339 15.3216 71.4136 14.3615" fill="#39B5CB"></path><path d="M146.452 31.5253H155.664L163.541 58.4077L172.222 31.3813H179.875L188.63 58.4077L196.647 31.5253H205.632L192.782 71.0296H184.765L176.003 44.2305L167.163 71.0318H159.146L146.452 31.5276V31.5253Z" fill="black"></path><path d="M209.645 51.282V51.1379C209.645 39.9272 217.59 30.7151 228.8 30.7151C241.278 30.7151 247.585 40.5146 247.585 51.8064C247.585 52.6211 247.513 53.4449 247.441 54.3317H218.632C218.884 57.1184 220.194 59.7029 222.292 61.5539C224.39 63.4049 227.118 64.3819 229.914 64.2843C231.913 64.2954 233.892 63.8845 235.721 63.0786C237.55 62.2727 239.188 61.0898 240.529 59.6073L245.804 64.2843C243.878 66.6633 241.428 68.5644 238.644 69.8388C235.861 71.1133 232.821 71.7265 229.761 71.6305C227.078 71.7106 224.406 71.2373 221.914 70.2402C219.421 69.243 217.16 67.7432 215.272 65.8343C213.384 63.9254 211.909 61.6483 210.94 59.1446C209.97 56.641 209.526 53.9646 209.636 51.282H209.645ZM238.679 48.3876C238.082 42.5965 234.67 38.0636 228.726 38.0636C223.234 38.0636 219.37 42.2972 218.555 48.3876H238.679Z" fill="black"></path><path d="M254.487 51.282V51.1379C254.487 39.9272 262.432 30.7151 273.643 30.7151C286.121 30.7151 292.427 40.5146 292.427 51.8064C292.427 52.6211 292.355 53.4449 292.283 54.3317H263.475C263.727 57.1184 265.036 59.7029 267.135 61.5539C269.233 63.4049 271.961 64.3819 274.757 64.2843C276.756 64.2954 278.735 63.8845 280.564 63.0786C282.393 62.2727 284.031 61.0898 285.372 59.6073L290.647 64.2843C288.721 66.6633 286.27 68.5644 283.487 69.8388C280.704 71.1133 277.664 71.7265 274.604 71.6305C271.921 71.7106 269.249 71.2373 266.756 70.2402C264.264 69.243 262.003 67.7432 260.115 65.8343C258.227 63.9254 256.752 61.6483 255.782 59.1446C254.813 56.641 254.369 53.9646 254.478 51.282H254.487ZM283.521 48.3876C282.925 42.5965 279.513 38.0636 273.569 38.0636C268.077 38.0636 264.213 42.2972 263.398 48.3876H283.521Z" fill="black"></path><path d="M296.373 31.5253H305.585L313.463 58.4077L322.144 31.3813H329.796L338.556 58.4077L346.573 31.5253H355.558L342.708 71.0296H334.691L325.925 44.2305L317.093 71.0318H309.076L296.382 31.5276L296.373 31.5253Z" fill="#39B5CB"></path><path d="M359.557 51.3495V51.2054C359.663 45.7447 361.903 40.5425 365.796 36.7116C369.688 32.8806 374.926 30.7252 380.388 30.7064C385.849 30.6876 391.102 32.8069 395.021 36.6109C398.94 40.4149 401.215 45.6015 401.359 51.0614V51.2054C401.35 53.9344 400.795 56.6341 399.728 59.146C398.662 61.658 397.104 63.9317 395.148 65.8338C393.191 67.736 390.874 69.2283 388.333 70.2233C385.791 71.2183 383.077 71.696 380.349 71.6283C377.641 71.7092 374.944 71.2443 372.419 70.261C369.894 69.2778 367.594 67.7965 365.653 65.9053C363.713 64.0141 362.174 61.7517 361.126 59.2529C360.079 56.7541 359.545 54.0701 359.557 51.3607V51.3495ZM392.374 51.3495V51.2054C392.442 49.5799 392.182 47.9574 391.609 46.4347C391.036 44.9119 390.163 43.5201 389.04 42.3422C387.918 41.1643 386.57 40.2245 385.077 39.5787C383.584 38.9329 381.976 38.5945 380.349 38.5835C378.743 38.589 377.154 38.9206 375.68 39.5582C374.206 40.1958 372.876 41.1262 371.772 42.2929C370.668 43.4597 369.813 44.8385 369.257 46.3457C368.702 47.8529 368.459 49.4573 368.542 51.0614V51.2054C368.479 52.8237 368.741 54.4382 369.311 55.954C369.881 57.4698 370.748 58.8564 371.862 60.0322C372.975 61.2081 374.313 62.1496 375.795 62.8013C377.278 63.453 378.876 63.8019 380.495 63.8273C382.102 63.8114 383.688 63.4733 385.162 62.833C386.635 62.1928 387.965 61.2633 389.073 60.0998C390.18 58.9363 391.043 57.5623 391.611 56.0593C392.178 54.5563 392.437 52.9547 392.374 51.3495Z" fill="#39B5CB"></path><path d="M408.336 51.3495V51.2054C408.443 45.7447 410.682 40.5425 414.575 36.7116C418.468 32.8806 423.705 30.7252 429.167 30.7064C434.629 30.6876 439.881 32.8069 443.8 36.6109C447.72 40.4149 449.995 45.6015 450.139 51.0614V51.2054C450.129 53.9345 449.575 56.6343 448.509 59.1464C447.442 61.6585 445.885 63.9323 443.928 65.8345C441.971 67.7368 439.654 69.2291 437.112 70.224C434.571 71.2189 431.857 71.6963 429.128 71.6283C426.42 71.7092 423.723 71.2443 421.199 70.261C418.674 69.2778 416.373 67.7965 414.433 65.9053C412.493 64.0141 410.953 61.7517 409.906 59.2529C408.858 56.7541 408.325 54.0701 408.336 51.3607V51.3495ZM441.154 51.3495V51.2054C441.222 49.5799 440.961 47.9574 440.389 46.4347C439.816 44.9119 438.942 43.5201 437.82 42.3422C436.698 41.1643 435.35 40.2245 433.857 39.5787C432.363 38.9329 430.755 38.5945 429.128 38.5835C427.522 38.589 425.934 38.9206 424.459 39.5582C422.985 40.1958 421.656 41.1262 420.552 42.2929C419.448 43.4597 418.592 44.8385 418.037 46.3457C417.482 47.8529 417.238 49.4573 417.321 51.0614V51.2054C417.259 52.8237 417.52 54.4382 418.09 55.954C418.66 57.4698 419.528 58.8564 420.641 60.0322C421.755 61.2081 423.092 62.1496 424.575 62.8013C426.058 63.453 427.655 63.8019 429.275 63.8273C430.881 63.8114 432.468 63.4733 433.941 62.833C435.415 62.1928 436.745 61.2633 437.852 60.0998C438.96 58.9363 439.823 57.5623 440.39 56.0593C440.957 54.5563 441.217 52.9547 441.154 51.3495Z" fill="#39B5CB"></path></svg> 