<?xml version="1.0" encoding="UTF-8"?> <svg xmlns="http://www.w3.org/2000/svg" width="158" height="41" viewBox="0 0 158 41" fill="none"><g clip-path="url(#clip0_14349_14706)"><path d="M8.18294 39.6873C14.1336 41.8577 20.9009 39.0904 23.2345 33.5557C24.6929 30.0287 24.0512 25.959 21.5427 22.9746C21.4843 22.9203 15.1837 16.1375 13.0251 13.1532L12.8501 12.9361C12.6751 12.6648 12.5 12.4477 12.1501 12.3392C11.8583 12.2307 11.5083 12.2307 11.2166 12.3392C10.9249 12.4477 10.6916 12.6648 10.5749 12.9904C10.4582 13.2617 10.4582 13.5872 10.5749 13.8585L10.6332 13.9671C10.9832 14.564 11.3916 15.1608 11.8583 15.7035C12.3834 16.3003 13.0835 17.06 13.8419 17.9282C16.2338 20.587 19.2091 23.8427 20.6675 25.959C21.8926 27.8039 22.0094 30.3542 20.9592 32.796C19.0924 37.1912 13.7835 39.3617 8.99971 37.6796C4.3326 35.9975 1.99905 31.1682 3.69088 26.8272L3.80755 26.5016C3.92423 26.2303 3.92423 25.9047 3.80755 25.6334C3.69088 25.3621 3.45752 25.145 3.16583 25.0365C2.87413 24.928 2.5241 24.928 2.2324 25.0365C1.9407 25.145 1.70735 25.3621 1.59067 25.6334L1.474 25.9047C0.42389 28.5093 0.540568 31.3852 1.76569 33.9355C2.99081 36.5943 5.26603 38.6563 8.18294 39.6873Z" fill="white"></path><path d="M1.59 8.05188C0.131523 11.5789 0.773252 15.6485 3.28183 18.633C3.34017 18.6872 9.64081 25.47 11.7993 28.4544L11.9744 28.6715C12.1494 28.8885 12.3244 29.1598 12.6161 29.214C13.2578 29.4311 13.9579 29.1598 14.1913 28.5629C14.3079 28.2916 14.3079 28.0203 14.1913 27.749V27.6947C14.1329 27.6405 13.3161 26.3925 12.9661 25.9583C12.4411 25.3615 11.741 24.6017 10.9826 23.7336C8.59069 21.0747 5.61539 17.819 4.15692 15.7028C2.9318 13.8579 2.81512 11.3076 3.86522 8.86581C4.74031 6.74956 6.49048 5.06744 8.76569 4.14498C11.0409 3.22253 13.5495 3.16827 15.8247 3.9822C18.0999 4.79613 19.9085 6.42399 20.9002 8.54024C21.8336 10.5479 21.9503 12.7727 21.1336 14.8346L21.0169 15.1602C20.7836 15.7028 21.0752 16.354 21.717 16.571C22.3587 16.788 23.0004 16.5167 23.2922 15.9199L23.4088 15.5943C25.5674 10.1138 22.592 3.9822 16.6998 1.86598C10.6909 -0.250237 3.92356 2.46286 1.59 8.05188Z" fill="white"></path><path d="M42.7677 13.4709C43.9695 12.5457 45.5942 11.9668 47.2965 11.9668C50.2623 11.9668 52.1941 13.6459 53.0351 15.0673C53.1463 15.2471 53.2729 15.474 53.3726 15.7073C53.4706 15.9366 53.5521 16.1935 53.5521 16.4249C53.5521 16.9949 53.069 17.5087 52.3778 17.5087C52.0232 17.5087 51.7859 17.3537 51.6122 17.1505C51.4961 17.0146 51.3947 16.8377 51.3011 16.6743C51.2697 16.6197 51.2392 16.5664 51.2093 16.5168C50.2785 14.9657 48.7711 14.0847 47.1889 14.0847C46.2434 14.0847 45.243 14.4239 44.481 14.9652C43.7167 15.5083 43.2281 16.2268 43.2281 16.9709C43.2281 17.7397 43.6748 18.2755 44.4468 18.7212C45.2315 19.1742 46.3069 19.5065 47.4858 19.8692L47.6173 19.9093C49.0762 20.3537 50.6669 20.8382 51.8993 21.6679C53.1892 22.5363 54.0897 23.7839 54.0897 25.7295C54.0897 27.4095 53.2748 28.7369 52.0127 29.6381C50.7563 30.5352 49.0642 31.0064 47.2965 31.0064C43.7206 31.0064 40.2344 28.5976 40.2344 24.9852C40.2344 24.3811 40.781 23.8766 41.4356 23.8766C42.09 23.8766 42.6367 24.3811 42.6367 24.9852C42.6367 27.0246 44.7121 28.9134 47.1889 28.9134C48.3728 28.9134 49.5066 28.6367 50.3365 28.1008C51.1582 27.5703 51.6874 26.7845 51.6874 25.7295C51.6874 24.6313 51.1377 23.8669 50.2495 23.2755C49.3474 22.6749 48.1086 22.2624 46.7653 21.8904C45.3849 21.5157 43.9001 20.9918 42.7557 20.2332C41.6077 19.4724 40.772 18.4532 40.772 17.0949C40.772 15.6811 41.5663 14.396 42.7677 13.4709Z" fill="white"></path><path d="M118.346 13.6711C118.346 13.067 118.892 12.5625 119.546 12.5625C120.201 12.5625 120.747 13.067 120.747 13.6711V29.3026C120.747 29.9066 120.201 30.4111 119.546 30.4111C118.892 30.4111 118.346 29.9066 118.346 29.3026V13.6711Z" fill="white"></path><path d="M151.623 12.5625C150.969 12.5625 150.422 13.067 150.422 13.6711V17.5249H149.385C148.731 17.5249 148.184 18.0294 148.184 18.6334C148.184 19.2375 148.731 19.742 149.385 19.742H150.422V27.2824C150.422 29.0587 152.052 30.3919 153.917 30.3919C154.848 30.3919 155.706 30.0668 156.34 29.5253C156.826 29.1095 156.856 28.4081 156.405 27.9588C155.955 27.5094 155.195 27.4823 154.708 27.8981C154.514 28.0639 154.238 28.1749 153.917 28.1749C153.247 28.1749 152.824 27.7164 152.824 27.2824V19.742H155.145C155.8 19.742 156.347 19.2375 156.347 18.6334C156.347 18.0294 155.8 17.5249 155.145 17.5249H152.824V13.6711C152.824 13.067 152.278 12.5625 151.623 12.5625Z" fill="white"></path><path fill-rule="evenodd" clip-rule="evenodd" d="M64.4523 16.8789C60.2221 16.8789 56.7988 20.0383 56.7988 23.9423C56.7988 27.8464 60.2221 31.0058 64.4523 31.0058C68.6826 31.0058 72.1059 27.8464 72.1059 23.9423C72.1059 20.0383 68.6826 16.8789 64.4523 16.8789ZM59.2011 23.9423C59.2011 21.2712 61.558 19.096 64.4523 19.096C67.3467 19.096 69.7036 21.2712 69.7036 23.9423C69.7036 26.6135 67.3467 28.7887 64.4523 28.7887C61.558 28.7887 59.2011 26.6135 59.2011 23.9423Z" fill="white"></path><path d="M82.4624 16.8789C78.2319 16.8789 74.8086 20.0383 74.8086 23.9423C74.8086 27.8464 78.2319 31.0058 82.4624 31.0058C84.7177 31.0058 86.6472 30.2046 88.1758 28.4603C88.6325 27.9401 89.0132 27.4095 89.0132 26.8206C89.0132 26.3177 88.6015 25.8113 87.9738 25.8113C87.2803 25.8113 86.9127 26.3053 86.6302 26.6843C85.525 28.1547 83.8865 28.7887 82.4624 28.7887C79.5678 28.7887 77.2109 26.6135 77.2109 23.9423C77.2109 21.2712 79.5678 19.096 82.4624 19.096C83.4477 19.096 84.217 19.275 84.8725 19.6008C85.5304 19.9278 86.09 20.4107 86.6418 21.0413C86.7068 21.1153 86.768 21.1918 86.8322 21.2717L86.8833 21.3365C86.9646 21.4372 87.052 21.5434 87.1495 21.6384C87.3477 21.8326 87.6069 21.999 87.9738 21.999C88.2795 21.999 88.5504 21.9163 88.7439 21.729C88.9343 21.5436 89.0132 21.2903 89.0132 21.0145C89.0132 20.3743 88.576 19.7927 88.1224 19.2755L88.117 19.2701L88.1123 19.2649C86.4228 17.5526 84.5792 16.8789 82.4624 16.8789Z" fill="white"></path><path fill-rule="evenodd" clip-rule="evenodd" d="M106.381 16.8789C102.152 16.8789 98.7285 20.0383 98.7285 23.9423C98.7285 27.8464 102.152 31.0058 106.381 31.0058C108.421 31.0058 110.279 30.2656 111.633 29.0837V29.3018C111.633 29.9058 112.179 30.4103 112.834 30.4103C113.489 30.4103 114.035 29.9058 114.035 29.3018V23.9423C114.035 20.0383 110.612 16.8789 106.381 16.8789ZM101.13 23.9423C101.13 21.2712 103.488 19.096 106.381 19.096C109.276 19.096 111.633 21.2712 111.633 23.9423C111.633 26.6135 109.276 28.7887 106.381 28.7887C103.488 28.7887 101.13 26.6135 101.13 23.9423Z" fill="white"></path><path d="M93.7375 17.5254C93.0835 17.5254 92.5371 18.0299 92.5371 18.6339V29.3031C92.5371 29.9071 93.0835 30.4116 93.7375 30.4116C94.3923 30.4116 94.9387 29.9071 94.9387 29.3031V18.6339C94.9387 18.0299 94.3923 17.5254 93.7375 17.5254Z" fill="white"></path><path d="M143.254 17.5254C142.599 17.5254 142.053 18.0299 142.053 18.6339V29.3031C142.053 29.9071 142.599 30.4116 143.254 30.4116C143.908 30.4116 144.455 29.9071 144.455 29.3031V18.6339C144.455 18.0299 143.908 17.5254 143.254 17.5254Z" fill="white"></path><path d="M143.282 12.5664C142.493 12.5664 141.893 13.1205 141.893 13.8486C141.893 14.5768 142.493 15.1308 143.282 15.1308C144.071 15.1308 144.672 14.5768 144.672 13.8486C144.672 13.1205 144.071 12.5664 143.282 12.5664Z" fill="white"></path><path d="M93.7643 12.5664C92.9756 12.5664 92.375 13.1205 92.375 13.8486C92.375 14.5768 92.9756 15.1308 93.7643 15.1308C94.5537 15.1308 95.1535 14.5768 95.1535 13.8486C95.1535 13.1205 94.5537 12.5664 93.7643 12.5664Z" fill="white"></path><path d="M126.793 12.5631C126.138 12.5631 125.592 13.0676 125.592 13.6717V29.3033C125.592 29.9073 126.138 30.4118 126.793 30.4118C127.448 30.4118 127.994 29.9073 127.994 29.3033V23.0637L136.273 30.1109C136.76 30.5259 137.52 30.4976 137.97 30.0476C138.419 29.5976 138.389 28.8963 137.901 28.4812L129.654 21.4605L137.865 14.4702C138.353 14.0551 138.384 13.3539 137.934 12.9038C137.484 12.4538 136.725 12.4255 136.237 12.8406L127.994 19.8572V13.6717C127.994 13.0676 127.448 12.5631 126.793 12.5631Z" fill="white"></path></g><defs><clipPath id="clip0_14349_14706"><rect width="157.115" height="40" fill="white" transform="translate(0 0.447266)"></rect></clipPath></defs></svg> 