<?xml version="1.0" encoding="UTF-8"?> <svg xmlns="http://www.w3.org/2000/svg" width="140" height="61" viewBox="0 0 140 61" fill="none"><path fill-rule="evenodd" clip-rule="evenodd" d="M32.7852 30.2282L32.7825 30.2304C32.7695 30.2409 32.7561 30.2508 32.7423 30.2601C32.7379 30.2632 32.7334 30.2664 32.7289 30.2693C32.7197 30.2753 32.7102 30.2809 32.7005 30.2865L32.697 30.2886C32.6895 30.2929 32.6819 30.2974 32.6742 30.3015L32.6727 30.3021C32.5836 30.3483 32.4824 30.3749 32.3749 30.3749H26.6476C26.6935 30.5631 26.7434 30.7769 26.7978 31.0097C27.1117 32.3536 27.9455 35.9239 28.8313 35.9239L28.8487 35.9243L28.8582 35.923L28.8753 35.9231C29.5671 35.923 29.9203 34.9311 30.6942 32.7581L30.6943 32.7578L30.7037 32.7314C30.8281 32.3824 30.9684 31.9886 31.1202 31.5719L31.1589 31.4656L31.1596 31.4659C31.1991 31.362 31.3 31.288 31.4186 31.288C31.5717 31.288 31.6958 31.4109 31.6958 31.5627C31.6958 31.5902 31.6916 31.6168 31.684 31.6418L31.6841 31.6419L31.6518 31.7487C31.5711 32.0073 31.4855 32.3594 31.3863 32.767H31.3862V32.7671V32.7672V32.7673L31.3861 32.7676L31.386 32.7679C30.9247 34.6635 30.2278 37.5272 28.4399 37.5272L28.4269 37.527C27.2717 37.518 26.5804 35.6867 26.2851 34.9047V34.9046C25.733 33.4423 25.3153 31.8841 24.9124 30.3749H19.6405L18.546 33.8483L18.53 33.8357C18.4299 33.9919 18.2544 34.0919 18.0606 34.0919C17.7551 34.0919 17.5053 33.8454 17.5039 33.5423L17.5046 33.5235L17.5709 33.1307C17.722 32.2382 17.9032 31.3117 18.1097 30.3749H15.8833L15.8751 30.3665C15.4711 30.3088 15.1606 29.9554 15.1606 29.5432C15.1606 29.1391 15.4491 28.7952 15.8464 28.7253C15.8831 28.7207 15.9566 28.7144 16.107 28.7144C16.1391 28.7144 16.1752 28.7146 16.2152 28.7153C16.921 28.7274 17.6693 28.7385 18.4906 28.7489C19.6527 24.0669 20.9987 21.6901 22.4916 21.6835C24.0937 21.6835 25.282 25.3006 26.2333 28.8388L26.237 28.853C28.1915 28.8918 30.2749 28.9483 32.3 29.0921L32.3849 29.0999C32.4174 29.1004 32.4493 29.1036 32.4805 29.1087L32.4923 29.1099C32.4947 29.1102 32.497 29.1109 32.4993 29.1114L32.5027 29.1122L32.5079 29.1132C32.8028 29.1718 33.0214 29.4283 33.0214 29.7362C33.0214 29.9333 32.9294 30.111 32.7852 30.2282ZM24.0911 18.021C17.4133 18.021 12 23.3888 12 30.0105C12 36.632 17.4133 41.9999 24.0911 41.9999C30.7688 41.9999 36.1821 36.632 36.1821 30.0105C36.1821 23.3888 30.7688 18.021 24.0911 18.021ZM22.6223 23.4587C22.5554 23.3712 22.4796 23.3252 22.3954 23.3252C22.3259 23.3252 22.2625 23.3562 22.2214 23.3822C21.581 23.8824 20.7046 26.0006 19.9863 28.7921L20.6221 28.7993C21.8778 28.8134 23.1746 28.828 24.4563 28.8477C24.1185 27.5691 23.799 26.4731 23.5064 25.5884C23.0786 24.2955 22.7894 23.7165 22.6223 23.4587ZM43.8185 30.6838L45.6275 26.2134L47.4728 30.6838H43.8185ZM41.9008 35.3876L42.8596 33.0357H48.4316L49.3905 35.3876H52.1584L46.8758 23.1075H44.4154L39.1148 35.3876H41.9008ZM67.8399 30.6678V35.3875H65.3219V30.8831C65.3219 29.5193 64.6523 28.7835 63.4748 28.7835C62.9495 28.7835 62.3697 29.0169 61.8449 29.7347C61.8809 30.0397 61.9169 30.3448 61.9169 30.6678V35.3875H59.3997V30.8831C59.3997 29.5193 58.7295 28.7835 57.5341 28.7835C57.0452 28.7835 56.5018 29.0706 55.9947 29.7526V35.3875H53.4771V26.7916H55.9947V27.3121C56.5381 26.8096 57.1176 26.5225 58.1318 26.5225C59.2367 26.5225 60.2147 26.9531 60.9028 27.7427C61.8264 26.8994 62.6961 26.5225 64.0545 26.5225C66.1735 26.5225 67.8399 28.1555 67.8399 30.6678ZM74.1678 28.6971C75.4739 28.6971 76.4174 29.8108 76.4174 31.0862C76.4174 32.3437 75.4739 33.4395 74.1678 33.4395C73.424 33.4395 72.6805 33.188 72.1179 32.4515V29.703C72.6805 28.9485 73.424 28.6971 74.1678 28.6971ZM74.5853 35.5592C76.9797 35.5592 78.9029 33.5832 78.9029 31.0862C78.9029 28.5533 76.9797 26.5952 74.5853 26.5952C73.6056 26.5952 72.7892 26.8467 72.1179 27.2779V26.7748H69.5964V39.5293H72.1179V34.8766C72.7892 35.3078 73.6056 35.5592 74.5853 35.5592ZM80.2949 35.3876H82.7864V22.6715H80.2949V35.3876ZM87.8315 35.3877H85.3305V26.8055H87.8315V35.3877ZM86.5721 22.3083C85.7266 22.3083 85.0609 22.9354 85.0609 23.7775C85.0609 24.6017 85.7266 25.2109 86.5721 25.2109C87.3996 25.2109 88.0656 24.6017 88.0656 23.7775C88.0656 22.9354 87.3996 22.3083 86.5721 22.3083ZM97.0038 35.2838C95.9569 35.6063 95.487 35.678 94.6745 35.678C92.5796 35.678 91.2074 34.2086 91.2074 31.9865V28.9221H89.3828V26.8255H91.2074V23.7612H93.6989V26.8255H96.8243V28.9221H93.6989V31.9686C93.6989 32.9362 94.2952 33.3843 95.2167 33.3843C95.6857 33.3843 96.1923 33.2768 96.6796 33.1513L97.0038 35.2838ZM104.529 35.4092H107.043V26.8134H104.529V32.3405C103.949 33.0404 103.262 33.4173 102.629 33.4173C101.453 33.4173 100.765 32.6815 100.765 31.3177V26.8134H98.2496V31.5509C98.2496 34.0454 99.7692 35.6784 102.049 35.6784C103.026 35.6784 103.822 35.3554 104.529 34.7991V35.4092ZM115.226 32.4979V29.7494C114.665 29.0129 113.922 28.7614 113.18 28.7614C111.858 28.7614 110.935 29.8572 110.935 31.1147C110.935 32.3901 111.858 33.5039 113.18 33.5039C113.922 33.5039 114.665 33.2523 115.226 32.4979ZM117.743 35.4261H115.226V34.923C114.556 35.3542 113.742 35.6056 112.763 35.6056C110.374 35.6056 108.436 33.6476 108.436 31.1147C108.436 28.6177 110.374 26.6416 112.763 26.6416C113.742 26.6416 114.556 26.8931 115.226 27.3243V22.6715H117.743V35.4261ZM125.498 30.2639H121.562C121.798 29.2925 122.469 28.5911 123.684 28.5911C124.7 28.5911 125.352 29.1846 125.498 30.2639ZM121.544 31.7388H127.945C127.982 31.487 128 31.2891 128 30.9294C128 28.2673 126.151 26.5225 123.666 26.5225C120.928 26.5225 119.06 28.4472 119.06 31.1093C119.06 33.6815 120.946 35.6781 123.739 35.6781C125.788 35.6781 127.419 34.5448 127.891 32.89H125.262C124.989 33.3217 124.5 33.5375 123.793 33.5375C122.414 33.5375 121.744 32.7461 121.544 31.7388Z" fill="#007FD2"></path></svg> 