<?xml version="1.0" encoding="UTF-8"?> <svg xmlns="http://www.w3.org/2000/svg" width="141" height="60" viewBox="0 0 141 60" fill="none"><path d="M8.88184 35.0293L10.8949 22.1204C10.9195 21.9621 11.0424 21.8373 11.2 21.8105C11.3576 21.7836 11.5147 21.8608 11.5901 22.0021L13.6719 25.8934L14.5018 24.3101C14.566 24.1876 14.6927 24.111 14.8308 24.111C14.9688 24.111 15.0955 24.1876 15.1598 24.3101L20.7779 35.0293L8.88184 35.0293Z" fill="#FFA000"></path><path d="M15.8364 30.0004L13.671 25.8911L8.88184 35.0289L15.8364 30.0004Z" fill="#F57C00"></path><path d="M19.2362 25.4673C19.2129 25.33 19.1151 25.2172 18.9827 25.1747C18.8502 25.1322 18.7053 25.1676 18.607 25.266L8.88184 35.0287L14.263 38.0529C14.6009 38.242 15.0125 38.242 15.3504 38.0529L20.778 35.0288L19.2362 25.4673Z" fill="#FFCA28"></path><path d="M26.6576 34.5106H25.5439V25.7148H30.6017V26.7955H26.6576V29.6832H30.215V30.7389H26.6576V34.5106ZM32.6957 26.9807C32.4302 27.2514 32.0133 27.2939 31.7001 27.0823C31.3869 26.8706 31.2646 26.4638 31.4081 26.1107C31.5516 25.7576 31.9209 25.5566 32.29 25.6308C32.6591 25.7049 32.9251 26.0335 32.9254 26.4154C32.929 26.6282 32.8454 26.8329 32.6947 26.9807H32.6957ZM32.6957 34.5106H31.582V28.4913H32.6957V34.5106ZM35.1394 34.5106H34.0258V28.4913H35.0903V29.474H35.1385C35.2671 29.1277 35.514 28.8399 35.8343 28.6631C36.1401 28.4638 36.4939 28.3532 36.8572 28.3435C37.1424 28.3353 37.4263 28.3855 37.6919 28.4913L37.2684 29.547C37.0775 29.4825 36.8767 29.4532 36.6757 29.4606C36.2673 29.4627 35.8786 29.6389 35.6046 29.9462C35.2938 30.27 35.1385 30.6938 35.1385 31.2178L35.1394 34.5106ZM40.7436 34.7025C39.848 34.7025 39.1201 34.3996 38.5598 33.7937C37.9995 33.1878 37.719 32.4235 37.7184 31.5009C37.702 30.6703 37.9935 29.8636 38.5352 29.2408C39.054 28.6209 39.8216 28.273 40.6226 28.2945C41.5018 28.2945 42.2058 28.5853 42.7345 29.1669C43.2633 29.7485 43.5274 30.5265 43.5268 31.5009L43.5145 31.7102H38.8302C38.8623 32.3161 39.0621 32.7959 39.4295 33.1497C39.7731 33.4921 40.2366 33.682 40.7181 33.6776C41.5166 33.6776 42.057 33.3337 42.3394 32.6459L43.332 33.0633C43.1309 33.5393 42.7991 33.9464 42.3762 34.2361C41.9319 34.5471 41.3877 34.7025 40.7436 34.7025ZM42.3413 30.7677C42.3173 30.4235 42.162 30.0959 41.8752 29.785C41.5884 29.474 41.1621 29.3218 40.5961 29.3282C40.2036 29.3212 39.8222 29.4613 39.525 29.7216C39.2136 29.9987 38.9957 30.3679 38.902 30.7773L42.3413 30.7677ZM47.5502 34.7025C47.1289 34.711 46.7122 34.612 46.3383 34.4146C46.0099 34.2465 45.7321 33.992 45.5338 33.6776H45.4856V34.5106H44.4201V25.7148H45.5338V28.4913L45.4856 29.3262H45.5338C45.7321 29.0118 46.0099 28.7573 46.3383 28.5892C46.7116 28.3895 47.1283 28.2882 47.5502 28.2945C48.3166 28.2945 48.9784 28.6017 49.5355 29.2159C50.0927 29.8301 50.3709 30.5918 50.3703 31.5009C50.3703 32.4101 50.092 33.1718 49.5355 33.786C48.979 34.4002 48.3173 34.7057 47.5502 34.7025ZM47.3687 33.6708C47.876 33.6749 48.3607 33.4579 48.6998 33.0749C49.071 32.6775 49.2566 32.1513 49.2566 31.4961C49.2566 30.841 49.071 30.3147 48.6998 29.9174C48.3568 29.5389 47.8737 29.3231 47.3671 29.322C46.8606 29.3209 46.3765 29.5347 46.032 29.9117C45.6652 30.3045 45.4818 30.8327 45.4818 31.4961C45.4818 32.1596 45.6671 32.6894 46.0377 33.0854C46.3789 33.4671 46.8649 33.6819 47.3725 33.6756L47.3687 33.6708ZM53.2054 34.7025C52.5752 34.7025 52.0489 34.5183 51.6267 34.1497C51.2044 33.7812 50.9926 33.294 50.9914 32.6881C50.9914 32.0329 51.2416 31.5192 51.742 31.1468C52.2424 30.7744 52.8594 30.5883 53.593 30.5883C54.2466 30.5883 54.7823 30.7111 55.2002 30.9568V30.785C55.2161 30.3804 55.0515 29.9901 54.7521 29.7226C54.4471 29.456 54.0548 29.3153 53.6526 29.3282C53.3448 29.3241 53.0417 29.4047 52.7753 29.5614C52.5258 29.7017 52.3345 29.9286 52.2364 30.2005L51.2202 29.7581C51.3576 29.3966 51.6279 29.0614 52.0313 28.7523C52.4346 28.4433 52.9672 28.2897 53.629 28.2917C54.3853 28.2917 55.0155 28.5156 55.5197 28.9635C56.0239 29.4113 56.2741 30.046 56.2703 30.8675V34.5106H55.2021V33.6756H55.1538C54.7095 34.3602 54.0601 34.7025 53.2054 34.7025ZM53.3869 33.6708C53.8549 33.6692 54.3041 33.4838 54.6405 33.1536C54.999 32.8467 55.2065 32.3954 55.2077 31.9194C54.8926 31.6571 54.4199 31.5259 53.7897 31.5259C53.2489 31.5259 52.8415 31.6446 52.5673 31.8819C52.3115 32.0816 52.1599 32.3893 52.1561 32.7169C52.1509 33.002 52.2948 33.2685 52.5342 33.4175C52.7861 33.5894 53.0835 33.6794 53.3869 33.6756V33.6708ZM59.546 34.7025C58.8843 34.7025 58.3378 34.5387 57.9068 34.2112C57.4873 33.8967 57.1605 33.4719 56.9614 32.9827L57.954 32.5653C58.2691 33.319 58.8049 33.6958 59.5612 33.6958C59.8616 33.7083 60.1586 33.6269 60.412 33.4626C60.621 33.3309 60.7471 33.0981 60.7448 32.8484C60.7448 32.4555 60.4744 32.1894 59.9336 32.0499L58.7358 31.7553C58.3417 31.6494 57.9745 31.4589 57.6591 31.1967C57.3233 30.9309 57.134 30.5173 57.1505 30.0854C57.1505 29.553 57.3824 29.1212 57.8463 28.7898C58.3315 28.4516 58.9095 28.2776 59.4978 28.2926C59.989 28.2847 60.4734 28.4102 60.9007 28.6564C61.3041 28.8889 61.6161 29.2557 61.7837 29.6948L60.8166 30.0959C60.5992 29.5636 60.1473 29.2974 59.4609 29.2974C59.169 29.2876 58.8801 29.36 58.6262 29.5067C58.4182 29.6161 58.2876 29.8341 58.2877 30.0719C58.2877 30.4161 58.5499 30.6497 59.0743 30.7725L60.2475 31.0556C60.804 31.1836 61.2155 31.4075 61.4821 31.7274C61.7404 32.0263 61.8822 32.4105 61.8811 32.8081C61.8862 33.3381 61.644 33.8392 61.2278 34.1593C60.7923 34.5215 60.2317 34.7025 59.546 34.7025ZM65.5359 34.7025C64.6403 34.7025 63.9124 34.3996 63.3521 33.7937C62.7918 33.1878 62.5113 32.4219 62.5107 31.4961C62.4943 30.6655 62.7858 29.8588 63.3275 29.236C63.8483 28.6177 64.6166 28.2716 65.4177 28.2945C66.3001 28.2945 67.004 28.5853 67.5297 29.1669C68.0553 29.7485 68.3194 30.5265 68.3219 31.5009L68.3096 31.7102H63.6215C63.6537 32.3161 63.8534 32.7959 64.2209 33.1497C64.5655 33.4921 65.0301 33.6813 65.5122 33.6756C66.3108 33.6756 66.8512 33.3317 67.1336 32.644L68.1262 33.0614C67.9251 33.5374 67.5933 33.9445 67.1704 34.2342C66.7261 34.5464 66.1813 34.7025 65.5359 34.7025ZM67.1336 30.7677C67.1096 30.4235 66.9543 30.0959 66.6675 29.785C66.3807 29.474 65.955 29.3218 65.3903 29.3282C64.9978 29.3213 64.6165 29.4613 64.3192 29.7216C64.0078 29.9987 63.7899 30.3679 63.6962 30.7773L67.1336 30.7677Z" fill="#757575"></path><path d="M76.3213 25.5891V35.3709" stroke="#888888" stroke-width="1.37557" stroke-linejoin="round"></path><path d="M71.4307 30.48H81.2125" stroke="#888888" stroke-width="1.37557" stroke-linejoin="round"></path><path d="M111.93 26.1841C111.93 27.4225 110.961 28.335 109.772 28.335C108.583 28.335 107.614 27.4225 107.614 26.1841C107.614 24.937 108.583 24.0332 109.772 24.0332C110.961 24.0332 111.93 24.937 111.93 26.1841ZM110.985 26.1841C110.985 25.4102 110.424 24.8808 109.772 24.8808C109.12 24.8808 108.559 25.4102 108.559 26.1841C108.559 26.9502 109.12 27.4874 109.772 27.4874C110.424 27.4874 110.985 26.9492 110.985 26.1841Z" fill="#747474"></path><path d="M116.583 26.1841C116.583 27.4225 115.614 28.335 114.425 28.335C113.236 28.335 112.268 27.4225 112.268 26.1841C112.268 24.938 113.236 24.0332 114.425 24.0332C115.614 24.0332 116.583 24.937 116.583 26.1841ZM115.638 26.1841C115.638 25.4102 115.077 24.8808 114.425 24.8808C113.774 24.8808 113.212 25.4102 113.212 26.1841C113.212 26.9502 113.774 27.4874 114.425 27.4874C115.077 27.4874 115.638 26.9492 115.638 26.1841Z" fill="#747474"></path><path d="M121.044 24.1631V28.0247C121.044 29.6131 120.107 30.2619 119 30.2619C117.958 30.2619 117.33 29.5646 117.094 28.9944L117.916 28.6521C118.062 29.0022 118.421 29.4153 118.999 29.4153C119.708 29.4153 120.147 28.9779 120.147 28.1546V27.8453H120.114C119.903 28.1061 119.496 28.334 118.982 28.334C117.906 28.334 116.921 27.3972 116.921 26.1919C116.921 24.9777 117.906 24.0332 118.982 24.0332C119.495 24.0332 119.902 24.2611 120.114 24.5142H120.147V24.1641H121.044V24.1631ZM120.214 26.1919C120.214 25.4345 119.709 24.8808 119.066 24.8808C118.414 24.8808 117.868 25.4345 117.868 26.1919C117.868 26.9415 118.414 27.4874 119.066 27.4874C119.709 27.4874 120.214 26.9415 120.214 26.1919Z" fill="#747474"></path><path d="M122.519 21.8999V28.2032H121.598V21.8999H122.519Z" fill="#747474"></path><path d="M126.113 26.8915L126.846 27.3803C126.61 27.7303 126.04 28.3335 125.054 28.3335C123.832 28.3335 122.92 27.389 122.92 26.1826C122.92 24.9035 123.84 24.0317 124.949 24.0317C126.065 24.0317 126.611 24.92 126.789 25.4L126.887 25.6444L124.012 26.8353C124.232 27.2668 124.574 27.4869 125.054 27.4869C125.535 27.4869 125.869 27.2503 126.113 26.8915ZM123.857 26.1177L125.779 25.3196C125.673 25.0509 125.355 24.8638 124.981 24.8638C124.501 24.8638 123.832 25.2876 123.857 26.1177Z" fill="#747474"></path><path d="M104.127 25.6244V24.7119H107.202C107.232 24.8709 107.247 25.0591 107.247 25.2627C107.247 25.9474 107.06 26.7939 106.457 27.3971C105.87 28.0081 105.121 28.3339 104.128 28.3339C102.287 28.3339 100.739 26.8347 100.739 24.9941C100.739 23.1535 102.287 21.6543 104.128 21.6543C105.146 21.6543 105.871 22.0538 106.416 22.5746L105.772 23.2185C105.381 22.8519 104.852 22.5668 104.127 22.5668C102.783 22.5668 101.731 23.65 101.731 24.9941C101.731 26.3382 102.783 27.4214 104.127 27.4214C104.998 27.4214 105.495 27.0713 105.813 26.7532C106.071 26.4953 106.241 26.1268 106.308 25.6235L104.127 25.6244Z" fill="#747474"></path><path d="M103.259 31.7248L102.312 34.3442H104.244L103.289 31.7248H103.259ZM101.495 36.6124H100.67L102.854 30.8083H103.702L105.886 36.6124H105.061L104.504 35.0392H102.06L101.495 36.6124Z" fill="#747474"></path><path d="M106.264 32.6403H106.982V33.1902H107.012C107.123 32.9973 107.297 32.837 107.531 32.7091C107.77 32.5773 108.014 32.5105 108.265 32.5105C108.753 32.5105 109.127 32.6518 109.387 32.9305C109.651 33.2055 109.784 33.6007 109.784 34.1142V36.6115H109.036V34.1677C109.021 33.5167 108.694 33.1902 108.058 33.1902C107.762 33.1902 107.512 33.3124 107.31 33.5568C107.111 33.7973 107.012 34.0818 107.012 34.4121V36.6115H106.264V32.6403Z" fill="#747474"></path><path d="M111.161 35.3968C111.161 35.5915 111.241 35.7538 111.405 35.8855C111.568 36.0134 111.76 36.0764 111.986 36.0764C112.295 36.0764 112.574 35.9619 112.818 35.7328C113.066 35.4998 113.192 35.2249 113.192 34.908C112.958 34.7247 112.631 34.6331 112.215 34.6331C111.913 34.6331 111.661 34.7075 111.459 34.8545C111.26 34.9977 111.161 35.1791 111.161 35.3968ZM112.123 32.51C112.673 32.51 113.105 32.6589 113.421 32.9529C113.742 33.2489 113.903 33.6536 113.903 34.1672V36.611H113.192V36.0612H113.162C112.851 36.5156 112.438 36.7408 111.925 36.7408C111.486 36.7408 111.119 36.611 110.825 36.3514C110.535 36.0917 110.39 35.769 110.39 35.3815C110.39 34.9691 110.544 34.6445 110.855 34.404C111.165 34.1596 111.581 34.0374 112.1 34.0374C112.543 34.0374 112.906 34.1176 113.192 34.2741V34.1061C113.192 33.8465 113.087 33.6288 112.879 33.4493C112.675 33.2661 112.436 33.1744 112.161 33.1744C111.743 33.1744 111.415 33.3501 111.176 33.7014L110.519 33.289C110.88 32.7697 111.415 32.51 112.123 32.51Z" fill="#747474"></path><path d="M115.465 30.8074V36.6114H114.717V30.8074H115.465Z" fill="#747474"></path><path d="M119.868 32.6401L117.378 38.3602H116.614L117.538 36.3593L115.896 32.6401H116.706L117.89 35.4963H117.905L119.058 32.6401H119.868Z" fill="#747474"></path><path d="M121.919 36.6728C121.598 36.6728 121.331 36.5735 121.117 36.375C120.903 36.1764 120.792 35.8996 120.789 35.5425V33.3202H120.086V32.6405H120.789V31.4263H121.529V32.6405H122.507V33.3202H121.529V35.2982C121.529 35.5636 121.579 35.7449 121.682 35.8404C121.789 35.932 121.905 35.9779 122.033 35.9779C122.094 35.9779 122.152 35.974 122.209 35.9626C122.264 35.9473 122.318 35.9301 122.369 35.9091L122.598 36.5735C122.404 36.6384 122.178 36.6728 121.919 36.6728Z" fill="#747474"></path><path d="M124.133 31.2735C124.133 31.4167 124.08 31.5408 123.973 31.6477C123.87 31.7508 123.747 31.8005 123.606 31.8005C123.457 31.8005 123.333 31.7508 123.232 31.6477C123.129 31.5408 123.079 31.4167 123.079 31.2735C123.079 31.1265 123.129 31.0024 123.232 30.8993C123.333 30.7981 123.457 30.7466 123.606 30.7466C123.747 30.7466 123.87 30.7981 123.973 30.8993C124.08 31.0024 124.133 31.1265 124.133 31.2735ZM123.98 32.6405V36.6117H123.232V32.6405H123.98Z" fill="#747474"></path><path d="M126.494 36.7413C125.902 36.7413 125.414 36.5409 125.028 36.138C124.646 35.7314 124.455 35.2273 124.455 34.6259C124.455 34.015 124.646 33.5109 125.028 33.1138C125.414 32.7129 125.902 32.5105 126.494 32.5105C126.901 32.5105 127.254 32.6136 127.556 32.816C127.855 33.0203 128.083 33.3009 128.235 33.656L127.556 33.9386C127.346 33.4403 126.977 33.1902 126.448 33.1902C126.107 33.1902 125.811 33.3276 125.562 33.6026C125.318 33.8775 125.196 34.2193 125.196 34.6259C125.196 35.0345 125.318 35.3743 125.562 35.6493C125.811 35.9242 126.107 36.0616 126.448 36.0616C126.992 36.0616 127.374 35.8135 127.594 35.3132L128.258 35.5958C128.115 35.9528 127.888 36.2335 127.579 36.4359C127.267 36.6382 126.907 36.7413 126.494 36.7413Z" fill="#747474"></path><path d="M131.95 35.5115C131.95 35.859 131.798 36.1511 131.492 36.3898C131.191 36.6227 130.813 36.7411 130.354 36.7411C129.957 36.7411 129.606 36.6361 129.301 36.428C128.999 36.2199 128.783 35.9449 128.651 35.6032L129.316 35.3206C129.417 35.5612 129.56 35.7464 129.743 35.8781C129.931 36.0118 130.135 36.0767 130.354 36.0767C130.593 36.0767 130.792 36.027 130.95 35.9239C131.112 35.8228 131.194 35.7006 131.194 35.5574C131.194 35.3034 130.998 35.1182 130.606 34.9999L129.927 34.8319C129.152 34.6333 128.766 34.2591 128.766 33.7092C128.766 33.3484 128.913 33.0582 129.209 32.8386C129.503 32.621 129.881 32.5103 130.339 32.5103C130.69 32.5103 131.007 32.5943 131.294 32.7623C131.578 32.9303 131.777 33.1556 131.889 33.4343L131.225 33.7092C131.149 33.5412 131.023 33.4114 130.851 33.3198C130.683 33.2243 130.494 33.1747 130.286 33.1747C130.091 33.1747 129.915 33.2243 129.759 33.3198C129.606 33.4171 129.53 33.5374 129.53 33.6787C129.53 33.904 129.743 34.0663 130.171 34.1675L130.767 34.3202C131.555 34.5149 131.95 34.9121 131.95 35.5115Z" fill="#747474"></path><path d="M93.6123 23.5967V35.8979C93.6123 37.2754 94.5617 38.0413 95.5693 38.0413C96.5012 38.0413 97.5263 37.389 97.5263 35.8979V23.6899C97.5263 22.4289 96.5944 21.6396 95.5693 21.6396C94.5442 21.6396 93.6123 22.5104 93.6123 23.5967Z" fill="#F8AB00"></path><path d="M88.4873 29.8403V35.8977C88.4873 37.2752 89.4367 38.0411 90.4443 38.0411C91.3762 38.0411 92.4013 37.3888 92.4013 35.8977V29.9335C92.4013 28.6725 91.4694 27.8833 90.4443 27.8833C89.4192 27.8833 88.4873 28.7541 88.4873 29.8403Z" fill="#E37300"></path><path d="M87.2754 36.0842C87.2754 37.1647 86.3988 38.0412 85.3183 38.0412C84.2379 38.0412 83.3613 37.1647 83.3613 36.0842C83.3613 35.0038 84.2379 34.1272 85.3183 34.1272C86.3988 34.1272 87.2754 35.0038 87.2754 36.0842Z" fill="#E37300"></path></svg> 