<?xml version="1.0" encoding="UTF-8"?> <svg xmlns="http://www.w3.org/2000/svg" width="141" height="61" viewBox="0 0 141 61" fill="none"><path d="M52.7724 37.1692C52.0024 37.1692 51.3026 37.0299 50.6732 36.6797C50.0431 36.3998 49.4833 35.98 49.0635 35.4202C48.6437 34.9301 48.2935 34.3006 48.0136 33.6706C47.7337 32.9708 47.6641 32.3414 47.6641 31.6417C47.6641 30.942 47.804 30.2422 48.0839 29.5425C48.3638 28.8428 48.714 28.283 49.2035 27.7929C49.6929 27.3034 50.1831 26.8836 50.8131 26.6037C51.4426 26.3238 52.1423 26.1838 52.842 26.1838C53.612 26.1838 54.3117 26.3238 54.9412 26.6733C55.5713 27.0235 56.1304 27.4433 56.5509 27.9328C56.9707 28.423 57.3203 29.0524 57.6001 29.6825C57.88 30.3119 57.9503 31.0116 57.9503 31.7113C57.9503 32.4111 57.8104 33.1108 57.5305 33.8105C57.2506 34.5102 56.9004 35.07 56.4806 35.5601C55.9911 36.0496 55.501 36.4695 54.8715 36.7494C54.1718 37.0292 53.4721 37.1692 52.7724 37.1692ZM48.714 31.6417C48.714 32.2711 48.7836 32.8309 48.9938 33.3907C49.2035 33.9505 49.4833 34.4406 49.8329 34.8604C50.1831 35.2802 50.6029 35.6298 51.093 35.9097C51.5825 36.1896 52.1423 36.2599 52.7724 36.2599C53.4018 36.2599 53.9616 36.1199 54.4517 35.84C54.9412 35.5601 55.361 35.21 55.7112 34.7901C56.0608 34.3703 56.3406 33.8808 56.5509 33.321C56.7605 32.7612 56.8308 32.2015 56.8308 31.6417C56.8308 31.0819 56.7605 30.4518 56.5509 29.8921C56.3406 29.3323 56.0608 28.8428 55.7112 28.423C55.361 28.0031 54.9412 27.6529 54.4517 27.4433C53.9616 27.1635 53.4018 27.0932 52.842 27.0932C52.2126 27.0932 51.6528 27.2331 51.1627 27.513C50.6726 27.7929 50.2534 28.1431 49.9032 28.5629C49.5536 28.9827 49.2731 29.4722 49.0635 30.032C48.7836 30.5221 48.714 31.0819 48.714 31.6417Z" fill="#E44A49"></path><path d="M66.886 37.1008H65.8361V32.6225C65.8361 31.6429 65.6961 30.9432 65.4162 30.5234C65.1363 30.1035 64.7165 29.8933 64.1567 29.8933C63.8768 29.8933 63.5267 29.9636 63.2468 30.0332C62.9669 30.1732 62.6173 30.3131 62.4071 30.5234C62.1272 30.733 61.9176 30.9432 61.7074 31.2231C61.4978 31.503 61.3578 31.7829 61.2876 32.1324V37.0305H60.2383V29.0536H61.1476V30.8729C61.2876 30.593 61.4978 30.3131 61.7777 30.1035C61.9879 29.8933 62.2672 29.6837 62.6173 29.4735C62.8972 29.3335 63.2468 29.1936 63.597 29.0536C63.9465 28.984 64.2967 28.9143 64.6462 28.9143C65.0661 28.9143 65.4859 28.984 65.7658 29.1936C66.0457 29.3335 66.3262 29.6134 66.4661 29.8933C66.6055 30.1732 66.8157 30.5234 66.8853 31.0129C66.9556 31.4327 67.0253 31.9228 67.0253 32.4123V37.1008H66.886Z" fill="#E44A49"></path><path d="M73.0825 37.2426C72.5221 37.2426 71.9629 37.1027 71.4728 36.8925C70.9827 36.6829 70.5629 36.403 70.2133 35.9831C69.8631 35.5633 69.5832 35.1435 69.3736 34.6533C69.1634 34.1638 69.0938 33.6041 69.0938 33.0443C69.0938 32.4845 69.1634 31.9247 69.3736 31.4346C69.5832 30.9451 69.8631 30.5253 70.2133 30.1055C70.5629 29.7553 70.9827 29.4057 71.4728 29.1955C71.9629 28.9859 72.5221 28.8459 73.0819 28.8459C73.6423 28.8459 74.2014 28.9859 74.6915 29.1955C75.1817 29.4057 75.6015 29.6856 75.951 30.1055C76.3012 30.455 76.5811 30.9451 76.7907 31.4346C77.0009 31.9247 77.0706 32.4845 77.0706 32.974V33.3938H70.2133C70.2133 33.8137 70.3533 34.2335 70.4932 34.5837C70.6331 34.9332 70.8434 35.2834 71.1233 35.5633C71.4032 35.8432 71.683 36.0528 72.0326 36.1927C72.3828 36.3327 72.7323 36.403 73.1521 36.403C73.432 36.403 73.7119 36.3327 73.9222 36.263C74.202 36.1927 74.4117 36.1231 74.6219 35.9831C74.8315 35.8432 75.0417 35.7032 75.1817 35.5633C75.3216 35.3531 75.4615 35.2131 75.6015 35.0035L76.5108 35.2834C76.3709 35.5633 76.2309 35.8432 76.0213 36.1231C75.8111 36.3327 75.5312 36.5429 75.2513 36.7525C74.9714 36.9627 74.6219 37.1027 74.2717 37.1724C73.7816 37.2426 73.432 37.2426 73.0819 37.2426H73.0825ZM76.0213 32.6941C76.0213 32.2743 75.8814 31.8544 75.7414 31.5049C75.6021 31.1547 75.3919 30.8748 75.112 30.5949C74.8321 30.3151 74.5522 30.1055 74.202 29.9655C73.8525 29.8256 73.5023 29.7553 73.0825 29.7553C72.6626 29.7553 72.3131 29.8256 71.9629 29.9655C71.6134 30.1055 71.3335 30.3151 71.0536 30.5949C70.7737 30.8748 70.5635 31.1547 70.4235 31.5049C70.2836 31.8544 70.1436 32.2743 70.1436 32.6941H76.0213Z" fill="#E44A49"></path><path d="M85.6257 29.0524C85.5561 28.9827 85.4161 28.9125 85.2059 28.7725C84.9963 28.6326 84.7861 28.5629 84.5062 28.423C84.2263 28.283 83.9464 28.2127 83.5962 28.1431C83.2467 28.0728 82.9668 28.0031 82.6166 28.0031C82.0568 28.0031 81.5673 28.1431 81.2874 28.3527C81.0076 28.5629 80.8676 28.8428 80.8676 29.2626C80.8676 29.4722 80.9373 29.6825 81.0076 29.8224C81.1475 29.9623 81.2874 30.1023 81.497 30.2422C81.7073 30.3822 81.9872 30.4518 82.2671 30.5221C82.5469 30.5918 82.9668 30.7317 83.3866 30.802C83.9464 30.942 84.4359 31.0819 84.8557 31.2915C85.2756 31.4315 85.6954 31.6417 85.9753 31.9216C86.2552 32.2015 86.5351 32.4814 86.675 32.8309C86.815 33.1811 86.9549 33.6009 86.9549 34.091C86.9549 34.6502 86.815 35.21 86.6053 35.5601C86.3951 35.98 86.1152 36.3302 85.6954 36.5398C85.3458 36.8196 84.926 36.9596 84.4359 37.0995C83.9464 37.2395 83.4563 37.3098 82.8965 37.3098C82.0568 37.3098 81.2874 37.1692 80.4478 36.9596C79.6778 36.6797 78.9084 36.3301 78.2783 35.9097L79.1883 34.091C79.2579 34.1607 79.4682 34.3006 79.6778 34.4406C79.888 34.5805 80.2375 34.7205 80.5174 34.8604C80.8676 35.0004 81.2172 35.1403 81.637 35.21C82.0568 35.2803 82.4767 35.3499 82.8965 35.3499C84.0863 35.3499 84.6461 35.0004 84.6461 34.2304C84.6461 33.9505 84.5758 33.8105 84.4359 33.6009C84.2959 33.461 84.0863 33.321 83.8761 33.1811C83.5962 33.0411 83.3163 32.9709 82.9668 32.8309C82.6166 32.7612 82.1968 32.6213 81.7769 32.4814C81.2874 32.3414 80.7973 32.2015 80.4478 31.9912C80.0279 31.8513 79.748 31.6417 79.4682 31.4315C79.1883 31.2219 79.0483 30.942 78.9084 30.6621C78.7684 30.3822 78.6982 29.9623 78.6982 29.5425C78.6982 28.9827 78.7684 28.4926 78.978 28.0728C79.1883 27.6529 79.4682 27.3034 79.8177 27.0235C80.1679 26.7436 80.5877 26.5334 81.0772 26.3934C81.5673 26.2535 82.0568 26.1838 82.6166 26.1838C83.3866 26.1838 84.0863 26.3238 84.7158 26.5334C85.3458 26.7436 85.9056 27.0932 86.3951 27.3731L85.6257 29.0524Z" fill="#515151"></path><path d="M88.7734 27.9364V25.9075H90.8023V27.9364H88.7734ZM88.7734 37.1031V29.0559H90.8023V37.1031H88.7734Z" fill="#515151"></path><path d="M96.1298 37.1724C95.57 37.1724 95.0799 37.033 94.66 36.8228C94.2402 36.6126 93.8204 36.3333 93.5405 35.9128C93.1909 35.5633 92.9807 35.0732 92.7711 34.5837C92.6312 34.0942 92.4912 33.5338 92.4912 33.0443C92.4912 32.4845 92.5609 31.9247 92.7711 31.4346C92.9807 30.9451 93.1909 30.5253 93.5405 30.1055C93.8907 29.7553 94.2402 29.4057 94.7303 29.1955C95.2198 28.9859 95.7099 28.8459 96.2697 28.8459C96.8992 28.8459 97.4589 28.9859 97.9491 29.2658C98.4386 29.5457 98.7887 29.8952 99.1383 30.3853V28.9859H100.958V36.6829C100.958 37.3129 100.818 37.8024 100.607 38.2925C100.398 38.782 100.048 39.1316 99.6981 39.4818C99.3479 39.8319 98.8584 40.0415 98.2986 40.2518C97.7388 40.3917 97.179 40.5316 96.4793 40.5316C95.5694 40.531 94.8697 40.3917 94.2402 40.1118C93.6108 39.8313 93.1207 39.4115 92.7008 38.8517L93.8204 37.7321C94.1003 38.0823 94.5201 38.4319 95.0096 38.6421C95.4997 38.8517 95.9892 38.9916 96.4793 38.9916C96.8289 38.9916 97.1088 38.922 97.3887 38.8517C97.6685 38.782 97.9484 38.6421 98.1587 38.4319C98.3683 38.2222 98.5785 38.012 98.6482 37.7321C98.7881 37.4522 98.8584 37.1027 98.8584 36.6829V35.7032C98.5785 36.1927 98.2283 36.5429 97.7388 36.7531C97.2493 36.9627 96.6896 37.1724 96.1298 37.1724ZM96.8992 35.493C97.1094 35.493 97.319 35.4234 97.5292 35.3537C97.7388 35.2834 97.9484 35.2131 98.089 35.0732C98.229 34.9339 98.4386 34.7939 98.5082 34.654C98.6482 34.5134 98.7184 34.3038 98.7887 34.1638V32.2046C98.5785 31.7145 98.2986 31.365 97.9491 31.0851C97.5292 30.8052 97.1791 30.6652 96.6896 30.6652C96.3394 30.6652 96.0595 30.7349 95.8499 30.8748C95.6397 31.0154 95.3598 31.225 95.1502 31.4352C94.9399 31.6448 94.8 31.9247 94.7303 32.2046C94.66 32.4845 94.5904 32.8341 94.5904 33.114C94.5904 33.4641 94.66 33.744 94.7303 34.0239C94.8703 34.3038 95.0102 34.5837 95.2198 34.7939C95.4301 35.0035 95.6397 35.1435 95.9195 35.2834C96.2691 35.4234 96.549 35.493 96.8992 35.493Z" fill="#515151"></path><path d="M110.692 37.1008H108.664V32.5523C108.664 31.9228 108.524 31.4327 108.313 31.1528C108.103 30.8729 107.754 30.733 107.403 30.733C107.194 30.733 106.984 30.8033 106.774 30.8729C106.564 30.9432 106.354 31.0831 106.144 31.2231C105.934 31.363 105.794 31.5726 105.654 31.7829C105.514 31.9925 105.375 32.2027 105.304 32.4826V37.1704H103.205V29.0536H105.095V30.5234C105.375 30.0332 105.794 29.6134 106.354 29.3335C106.914 29.0536 107.543 28.9143 108.243 28.9143C108.733 28.9143 109.153 28.984 109.503 29.1936C109.853 29.4038 110.062 29.6134 110.273 29.8933C110.482 30.1732 110.552 30.5234 110.622 30.9432C110.692 31.2927 110.692 31.7132 110.692 32.1324V37.1008Z" fill="#515151"></path><path d="M115.08 37.24C114.66 37.24 114.31 37.1697 113.96 37.0297C113.61 36.8904 113.33 36.7499 113.05 36.47C112.77 36.2604 112.63 35.9805 112.491 35.6303C112.351 35.3504 112.28 35.0009 112.28 34.581C112.28 34.2308 112.351 33.8813 112.561 33.5311C112.701 33.1816 112.98 32.9017 113.261 32.6915C113.54 32.4819 113.96 32.2716 114.379 32.1317C114.799 31.9917 115.289 31.9221 115.779 31.9221C116.129 31.9221 116.479 31.9221 116.829 31.9917C117.179 32.062 117.459 32.1317 117.739 32.2716V31.7821C117.739 31.2223 117.599 30.8722 117.319 30.5226C117.039 30.1724 116.549 30.1028 115.989 30.1028C115.569 30.1028 115.149 30.1724 114.73 30.3124C114.31 30.4523 113.89 30.6626 113.47 31.0121L112.841 29.683C113.89 28.9832 115.01 28.6331 116.199 28.6331C117.389 28.6331 118.228 28.9129 118.928 29.4727C119.558 30.0325 119.908 30.8722 119.908 31.9221V34.4411C119.908 34.6507 119.978 34.7906 120.048 34.9306C120.118 35.0009 120.258 35.0705 120.467 35.0705V36.8201C120.258 36.8904 120.118 36.8904 119.908 36.8904C119.698 36.8904 119.558 36.8904 119.488 36.8904C119.068 36.8904 118.788 36.8201 118.578 36.6099C118.368 36.4003 118.228 36.1901 118.228 35.9102L118.159 35.4904C117.808 35.9805 117.389 36.33 116.829 36.5402C116.199 37.1 115.64 37.24 115.08 37.24ZM115.64 35.7702C115.989 35.7702 116.339 35.7006 116.619 35.5606C116.899 35.4207 117.179 35.2807 117.319 35.0705C117.529 34.9312 117.668 34.721 117.668 34.5114V33.6014C117.389 33.5311 117.179 33.4615 116.899 33.3912C116.619 33.3215 116.339 33.3215 116.059 33.3215C115.5 33.3215 115.08 33.4615 114.73 33.6717C114.38 33.8813 114.24 34.2308 114.24 34.581C114.24 34.9312 114.38 35.2111 114.66 35.4207C114.94 35.6303 115.289 35.7709 115.64 35.7709V35.7702Z" fill="#515151"></path><path d="M122.011 25.8354H124.04V34.3721C124.04 35.0021 124.32 35.282 124.88 35.282C125.02 35.282 125.09 35.282 125.3 35.2118C125.44 35.1421 125.58 35.1421 125.72 35.0718L125.999 36.7511C125.72 36.8911 125.37 36.9614 125.02 37.031C124.67 37.1013 124.32 37.171 124.04 37.171C123.41 37.171 122.921 37.031 122.571 36.6815C122.221 36.3313 122.011 35.8418 122.011 35.2118V25.8354H122.011Z" fill="#515151"></path><path d="M27.0448 18.2095C19.9076 18.2095 14.0996 24.0169 14.0996 31.1541C14.0996 35.7026 16.4787 39.6913 19.9773 42.0001C20.1875 41.8601 20.3971 41.7202 20.6074 41.5803C20.7473 41.51 20.9569 41.37 21.0969 41.3004C21.3071 41.2301 21.5167 41.0908 21.6566 41.0205C21.8669 40.9508 22.0765 40.8805 22.2867 40.7406C22.4266 40.6709 22.6362 40.6006 22.7762 40.531C22.9864 40.4607 23.2663 40.391 23.4759 40.3208C23.6861 40.2511 23.8261 40.2511 24.0357 40.1808C24.2459 40.1111 24.3859 40.1111 24.5955 40.0409C24.8057 39.9712 25.0153 39.9712 25.2255 39.9712C25.4351 39.9712 25.715 39.9009 25.9253 39.9009V39.0613V38.3615V35.493V34.7932V32.204H25.2255V30.8045H28.7242V40.0409C30.6834 40.3208 32.4324 41.0205 34.0421 42.0001C37.6103 39.6913 39.9197 35.7026 39.9197 31.1547C39.9894 24.0175 34.182 18.2095 27.0442 18.2095H27.0448ZM30.8936 31.1547C30.8936 29.0555 29.144 27.3059 27.0448 27.3059C24.9456 27.3059 23.1966 29.0555 23.1966 31.1547C23.1966 32.6238 24.0363 33.9536 25.2958 34.583V35.353C23.6868 34.6533 22.4969 33.0436 22.4969 31.1547C22.4969 28.6357 24.5264 26.6062 27.0448 26.6062C29.5638 26.6062 31.5933 28.6357 31.5933 31.1547C31.5933 32.7637 30.7537 34.1632 29.4942 35.0029V34.1632C30.3338 33.3938 30.8936 32.3439 30.8936 31.1547ZM29.4942 38.7814V38.012C32.3633 37.0324 34.3922 34.3031 34.3922 31.0844C34.3922 27.0963 31.1038 23.8073 27.0448 23.8073C22.987 23.8073 19.698 27.0963 19.698 31.1547C19.698 34.583 22.0771 37.5219 25.2958 38.2919V38.9916C21.7275 38.2216 18.9983 35.0029 18.9983 31.1547C18.9983 26.6764 22.5666 23.1075 27.0454 23.1075C31.5237 23.1075 35.092 26.6764 35.092 31.1547C35.092 34.723 32.7129 37.8017 29.4942 38.7814Z" fill="#E44A49"></path></svg> 