<?xml version="1.0" encoding="UTF-8"?> <svg xmlns="http://www.w3.org/2000/svg" width="141" height="60" viewBox="0 0 141 60" fill="none"><path d="M64.0374 32.5836C64.0374 34.3552 62.8378 35.1672 61.6633 35.1672C60.2139 35.1672 59.2892 34.1091 59.2892 33.125C59.2892 32.1408 59.814 31.5749 60.9636 31.3042L63.4126 30.7629C63.6625 30.7137 63.8624 30.6399 64.0124 30.566V32.5836H64.0374ZM65.9117 32.6575V28.081C65.9117 25.7927 64.1374 24.1442 61.6883 24.1442C59.3142 24.1442 57.4648 25.8174 57.4648 27.958V28.1302C57.4648 28.6223 57.8147 28.9175 58.3895 28.9175C58.9643 28.9175 59.3142 28.6223 59.3142 28.1302V28.0071C59.3142 26.777 60.3638 25.7927 61.6883 25.7927C63.0628 25.7927 64.0624 26.7523 64.0624 28.1056V28.6715C64.0624 28.8438 63.8125 29.016 63.4376 29.0898L60.5887 29.7295C58.4895 30.197 57.4648 31.3043 57.4648 33.1004C57.4648 35.1672 59.3142 36.8157 61.6883 36.8157C64.1623 36.8157 65.9117 35.1179 65.9117 32.6575ZM75.783 32.6083C75.783 34.183 74.8333 35.1917 73.3589 35.1917C71.8845 35.1917 70.9348 34.183 70.9348 32.6083V28.4008C70.9348 26.8262 71.8845 25.8174 73.3589 25.8174C74.8333 25.8174 75.783 26.8262 75.783 28.4008V32.6083ZM77.6323 32.7312V21.2163C77.6323 20.7242 77.2824 20.429 76.7076 20.429C76.1329 20.429 75.783 20.7242 75.783 21.2163V25.1531C75.1332 24.5626 74.1586 24.1934 73.159 24.1934C71.1347 24.1934 69.0855 25.596 69.0855 28.3024V32.7312C69.0855 35.5608 71.3097 36.8402 73.3589 36.8402C75.4331 36.8402 77.6323 35.5608 77.6323 32.7312ZM81.3059 36.5204C81.3059 38.0212 80.5312 39.2269 79.2317 39.7436C78.8568 39.8913 78.557 40.2849 78.7819 40.9C78.9318 41.269 79.2317 41.4906 79.6065 41.4906C79.7315 41.4906 79.8565 41.4659 79.9814 41.4167C81.9806 40.7278 83.1802 38.9316 83.1802 36.6188V24.8824C83.1802 24.3903 82.8303 24.095 82.2555 24.095C81.6807 24.095 81.3309 24.3903 81.3309 24.8824V36.5204H81.3059ZM83.2552 22.3235V21.4131C83.2552 20.8472 82.8553 20.4782 82.2805 20.4782C81.7057 20.4782 81.3059 20.8472 81.3059 21.4131V22.3235C81.3059 22.8894 81.7057 23.2585 82.2805 23.2585C82.8553 23.2585 83.2552 22.8894 83.2552 22.3235ZM95.1257 32.7559V24.907C95.1257 24.415 94.7758 24.1197 94.201 24.1197C93.6262 24.1197 93.2764 24.415 93.2764 24.907V32.6328C93.2764 34.2075 92.3267 35.2164 90.8523 35.2164C89.3778 35.2164 88.4282 34.2075 88.4282 32.6328V24.907C88.4282 24.415 88.0783 24.1197 87.5036 24.1197C86.9288 24.1197 86.5789 24.415 86.5789 24.907V32.7559C86.5789 35.5854 88.8031 36.8649 90.8523 36.8649C92.9015 36.8894 95.1257 35.5854 95.1257 32.7559ZM100.199 27.4659C100.199 26.4817 101.049 25.7682 102.273 25.7682C103.547 25.7682 104.522 26.5802 104.522 27.6381V27.712C104.522 28.204 104.872 28.4993 105.447 28.4993C106.022 28.4993 106.372 28.204 106.372 27.712V27.5643C106.372 25.6452 104.572 24.1442 102.248 24.1442C99.9989 24.1442 98.2995 25.596 98.2995 27.5151C98.2995 29.3605 99.4991 30.566 101.973 31.1812C103.847 31.6486 104.647 32.313 104.647 33.4202C104.647 34.5028 103.822 35.1672 102.473 35.1672C101.223 35.1672 100.174 34.3305 100.174 33.3464V33.2479C100.174 32.7559 99.824 32.4606 99.2492 32.4606C98.6744 32.4606 98.3245 32.7559 98.3245 33.2479V33.3464C98.3245 35.2901 100.149 36.8157 102.473 36.8157C104.897 36.8157 106.521 35.4378 106.521 33.3956C106.521 31.4026 105.322 30.197 102.598 29.5327C100.948 29.1144 100.199 28.4501 100.199 27.4659ZM112.594 33.4202V26.1372H115.967C116.418 26.1372 116.693 25.8174 116.693 25.3007C116.693 24.6856 116.318 24.4642 115.967 24.4642H112.594V21.2163C112.594 20.7242 112.244 20.429 111.669 20.429C111.095 20.429 110.745 20.7242 110.745 21.2163V24.4642H109.095C108.646 24.4642 108.371 24.784 108.371 25.3007C108.371 25.8174 108.646 26.1372 109.095 26.1372H110.745V33.5187C110.745 35.5362 112.244 36.9387 114.418 36.9387C115.218 36.9387 116.017 36.7172 116.617 36.299C117.042 35.979 117.117 35.5116 116.818 35.0933C116.567 34.7489 116.318 34.675 116.143 34.675C115.993 34.675 115.818 34.7242 115.668 34.8472C115.343 35.1179 114.893 35.2656 114.418 35.2656C113.069 35.2656 112.594 34.306 112.594 33.4202Z" fill="#1B181C"></path><path d="M44.47 33.1986L43.4703 32.485C41.4711 31.058 39.6218 29.8278 38.0224 28.8928L37.6726 28.6468L40.0216 23.406L44.47 33.1986ZM45.8695 36.6924L47.4188 35.167L41.1962 21.4869H38.8721L36.0982 27.8348L35.7982 27.6872C34.1238 26.8752 32.8493 26.4816 31.8747 26.4816C30.6251 26.4816 30.0503 27.1459 29.8254 27.5642C29.1258 28.7698 29.5256 30.4675 31.025 32.7311C31.5749 33.5676 32.1746 34.3304 32.5745 34.8717H34.8236L35.7483 32.8295L34.7987 30.6889L33.674 33.1248L33.2992 32.6327C33.0492 32.2883 32.8243 31.9683 32.5994 31.6485C31.3749 29.8031 31.175 28.8436 31.4499 28.4991C31.6997 28.1793 33.2492 28.5976 34.9235 29.4095C35.8482 29.8031 36.7978 30.3445 37.7225 30.9596C38.3973 31.3779 39.122 31.8207 39.8467 32.3128C42.5207 34.109 44.9947 35.9789 45.8695 36.6924ZM51.5173 30C51.5173 36.7417 45.9694 42.2039 39.122 42.2039C32.2996 42.2039 26.7266 36.7171 26.7266 30C26.7266 23.283 32.2745 17.7961 39.122 17.7961C45.9445 17.7961 51.5173 23.2583 51.5173 30ZM53.3417 30C53.3417 22.2742 46.969 16 39.122 16C31.275 16 24.9023 22.2742 24.9023 30C24.9023 37.7258 31.275 44 39.122 44C46.969 44 53.3417 37.7013 53.3417 30Z" fill="#1B181C"></path></svg> 