<?xml version="1.0" encoding="UTF-8"?> <svg xmlns="http://www.w3.org/2000/svg" width="141" height="61" viewBox="0 0 141 61" fill="none"><path d="M30.1752 20.7996L24.3633 35.5822H27.1745L28.588 31.9339H34.9053L36.3149 35.5822H39.1301L33.3142 20.7996H30.1752ZM33.9064 29.3398H29.5909L31.7467 23.7687L33.9064 29.3398Z" fill="#0A69FF"></path><path d="M43.6088 25.3286H41.0029V35.5825H43.6088V25.3286Z" fill="#0A69FF"></path><path d="M60.7506 25.1348C59.6181 25.1367 58.5228 25.5395 57.659 26.2719L57.6235 26.3035V20.8074H55.0176V35.586H57.6235V34.7055L57.659 34.7371C58.5229 35.469 59.6184 35.8705 60.7506 35.8703C63.5144 35.8703 65.7768 33.4658 65.7768 30.5045C65.7768 27.5432 63.5223 25.1348 60.7506 25.1348ZM63.2578 30.5558C63.2662 31.3423 62.9627 32.1001 62.4135 32.6633C61.8645 33.2264 61.1146 33.5491 60.3281 33.5605C59.541 33.5501 58.7901 33.2279 58.2401 32.6646C57.6902 32.1014 57.386 31.343 57.3945 30.5558C57.386 29.7687 57.6902 29.0103 58.2401 28.447C58.7901 27.8837 59.541 27.5616 60.3281 27.5511C61.1149 27.5616 61.8654 27.8838 62.4147 28.4473C62.9641 29.0106 63.2672 29.769 63.2578 30.5558Z" fill="#0A69FF"></path><path d="M89.0615 26.3032L89.0259 26.2756C88.1646 25.539 87.0677 25.1355 85.9344 25.1385C83.1706 25.1385 80.9121 27.543 80.9121 30.5043C80.9121 33.4655 83.1666 35.874 85.9344 35.874C87.0671 35.8734 88.1628 35.4704 89.0259 34.7369L89.0615 34.7053V35.5858H91.6871V20.8071H89.0773L89.0615 26.3032ZM89.3063 30.5556C89.3136 31.3425 89.0092 32.1003 88.4594 32.6633C87.9098 33.2263 87.1595 33.5488 86.3727 33.5603C85.5855 33.5498 84.8346 33.2277 84.2846 32.6644C83.7347 32.1011 83.4306 31.3427 83.439 30.5556C83.4306 29.7684 83.7347 29.01 84.2846 28.4468C84.8346 27.8835 85.5855 27.5613 86.3727 27.5509C86.7634 27.5545 87.1496 27.6352 87.5092 27.7881C87.8688 27.9411 88.1947 28.1635 88.4683 28.4426C88.7418 28.7217 88.9577 29.0519 89.1036 29.4145C89.2493 29.777 89.3223 30.1648 89.3181 30.5556H89.3063Z" fill="#0A69FF"></path><path d="M101.512 26.26L101.477 26.2323C100.629 25.5127 99.5526 25.118 98.4405 25.1189C95.7122 25.1189 93.4893 27.4879 93.4893 30.4097C93.4893 33.3314 95.7122 35.7162 98.4405 35.7162C99.5469 35.717 100.618 35.3268 101.465 34.6147L101.5 34.587V34.6344C101.5 35.8189 101.161 36.6086 100.498 37.0587C99.9329 37.4535 99.1117 37.6193 97.8324 37.6193C96.9258 37.63 96.0413 37.3398 95.3173 36.7941L95.1515 36.6638L94.1092 38.7328L94.2394 38.8157C95.4274 39.5532 96.79 39.9619 98.1878 40.0002H98.5826C100.28 40.0002 101.694 39.5106 102.669 38.5867C103.153 38.0989 103.53 37.5163 103.778 36.8755C104.025 36.2347 104.137 35.5496 104.106 34.8634V25.3282H101.5L101.512 26.26ZM101.785 30.4571C101.789 31.2153 101.493 31.9446 100.962 32.4859C100.431 33.0273 99.708 33.3368 98.9498 33.3472C98.1888 33.3368 97.463 33.0251 96.9316 32.4803C96.4001 31.9355 96.1065 31.2023 96.1149 30.4413C96.1065 29.6803 96.4001 28.947 96.9316 28.4023C97.463 27.8575 98.1888 27.5457 98.9498 27.5353C99.328 27.5404 99.7013 27.6202 100.049 27.7699C100.396 27.9196 100.71 28.1364 100.974 28.4078C101.237 28.6792 101.444 29 101.583 29.3516C101.723 29.7032 101.791 30.0789 101.785 30.4571Z" fill="#0A69FF"></path><path d="M42.3045 20.7405C41.8748 20.7384 41.4618 20.9068 41.1561 21.2088C40.8504 21.5108 40.677 21.9217 40.6738 22.3514C40.6749 22.5646 40.7179 22.7753 40.8003 22.9719C40.8829 23.1683 41.0033 23.3466 41.1547 23.4966C41.3061 23.6466 41.4856 23.7652 41.6829 23.8458C41.8802 23.9264 42.0914 23.9673 42.3045 23.9663C42.7342 23.9673 43.1468 23.7979 43.4517 23.4952C43.7567 23.1924 43.9291 22.7812 43.9312 22.3514C43.9281 21.9224 43.7552 21.5121 43.4503 21.2102C43.1455 20.9083 42.7335 20.7395 42.3045 20.7405Z" fill="#0A69FF"></path><path d="M78.9565 25.3286H76.3506V35.5825H78.9565V25.3286Z" fill="#0A69FF"></path><path d="M77.6541 23.9661C78.5525 23.9661 79.2808 23.2431 79.2808 22.3512C79.2808 21.4593 78.5525 20.7363 77.6541 20.7363C76.7557 20.7363 76.0273 21.4593 76.0273 22.3512C76.0273 23.2431 76.7557 23.9661 77.6541 23.9661Z" fill="#0A69FF"></path><path d="M115.929 29.6632C115.534 27.0415 113.457 25.1384 110.97 25.1384C108.206 25.1384 105.943 27.543 105.943 30.5042C105.943 33.4655 108.056 35.7397 110.97 35.874H111.325C113.808 35.874 115.104 34.6895 115.344 34.4249L115.392 34.3775L113.939 32.8614L113.891 32.893L113.836 32.9246L113.769 32.968C113.37 33.2617 112.917 33.4731 112.435 33.5897C111.954 33.7063 111.454 33.7258 110.966 33.6471C110.393 33.5822 109.855 33.3422 109.423 32.9599C108.992 32.5777 108.69 32.0716 108.557 31.511V31.4834H115.917L115.937 31.3413C115.978 31.0616 116 30.7792 116 30.4963C115.997 30.2172 115.974 29.9387 115.929 29.6632ZM108.553 29.5171V29.4895C108.948 28.0523 109.738 27.3574 110.962 27.3574C112.186 27.3574 112.975 28.0523 113.37 29.4895V29.5171H108.553Z" fill="#0A69FF"></path><path d="M51.9832 25.2371C50.4671 25.47 49.5353 26.9388 49.2194 27.5508V25.2845H46.5938V35.5857H49.2194V30.978C49.2194 29.5092 50.4592 28.068 51.2804 27.7601C52.4215 27.3336 53.0532 27.7601 53.0572 27.7601L53.1322 27.8114L53.9219 25.474L53.8824 25.4424C53.6692 25.3042 53.0374 25.0752 51.9832 25.2371Z" fill="#0A69FF"></path><path d="M73.0516 25.2373C71.5354 25.4703 70.6036 26.9391 70.2877 27.551V25.2847H67.666V35.5859H70.2877V30.9782C70.2877 29.5094 71.5275 28.0683 72.3487 27.7603C73.4898 27.3339 74.1216 27.7603 74.1254 27.7603L74.2005 27.8116L74.9902 25.4742L74.9506 25.4426C74.7374 25.3044 74.1057 25.0754 73.0516 25.2373Z" fill="#0A69FF"></path></svg> 