<?xml version="1.0" encoding="UTF-8"?> <svg xmlns="http://www.w3.org/2000/svg" width="116" height="22" viewBox="0 0 116 22" fill="none"><path d="M0 17.5678L6.1359 0H10.4579L16.5816 17.5678H12.7223L11.3953 13.3067H5.1863L3.8593 17.5678H0ZM8.2543 3.40881L6.0385 10.5553H10.5431L8.3273 3.40881H8.2543ZM18.0791 21.8288V4.51671H21.634V6.79341H21.7193C22.4254 5.21071 23.8498 4.24891 25.7003 4.24891C29.0118 4.24891 31.0327 6.78121 31.0327 11.0301V11.0422C31.0327 15.279 29.0118 17.8356 25.749 17.8356C23.8863 17.8356 22.4132 16.886 21.7071 15.3398H21.634V21.8288H18.0791ZM24.5316 14.8894C26.2969 14.8894 27.4169 13.4163 27.4169 11.0422V11.0301C27.4169 8.64391 26.2969 7.19511 24.5316 7.19511C22.8028 7.19511 21.6219 8.68041 21.6219 11.0422V11.0544C21.6219 13.4041 22.8028 14.8894 24.5316 14.8894ZM32.8833 21.8288V4.51671H36.4382V6.79341H36.5234C37.2296 5.21071 38.654 4.24891 40.5045 4.24891C43.816 4.24891 45.8369 6.78121 45.8369 11.0301V11.0422C45.8369 15.279 43.816 17.8356 40.5532 17.8356C38.6905 17.8356 37.2174 16.886 36.5113 15.3398H36.4382V21.8288H32.8833ZM39.3357 14.8894C41.101 14.8894 42.2211 13.4163 42.2211 11.0422V11.0301C42.2211 8.64391 41.101 7.19511 39.3357 7.19511C37.607 7.19511 36.426 8.68041 36.426 11.0422V11.0544C36.426 13.4041 37.607 14.8894 39.3357 14.8894ZM47.7727 17.5678V0H51.3276V17.5678H47.7727ZM59.6671 17.8356C55.6739 17.8356 53.2512 15.2424 53.2512 11.0666V11.0544C53.2512 6.90291 55.6982 4.24891 59.5211 4.24891C63.3441 4.24891 65.7421 6.84201 65.7421 10.7866V11.8823H56.7574C56.7939 13.9641 57.9262 15.1816 59.7401 15.1816C61.2011 15.1816 62.0901 14.3781 62.3451 13.6476L62.3701 13.5745H65.6331L65.5961 13.7085C65.1941 15.632 63.3921 17.8356 59.6671 17.8356ZM59.5821 6.90291C58.121 6.90291 57.0253 7.87691 56.7939 9.64221H62.3331C62.1141 7.84041 61.0551 6.90291 59.5821 6.90291ZM71.7081 17.5678L77.8441 0H82.1651L88.2891 17.5678H84.4301L83.1031 13.3067H76.8941L75.5671 17.5678H71.7081ZM79.9621 3.40881L77.7461 10.5553H82.2511L80.0351 3.40881H79.9621ZM94.1331 17.8356C90.8461 17.8356 88.8251 15.279 88.8251 11.0422V11.0301C88.8251 6.78121 90.8461 4.24891 94.1331 4.24891C95.9831 4.24891 97.4441 5.19851 98.1511 6.78121H98.2241V0H101.779V17.5678H98.2241V15.3398H98.1511C97.4571 16.886 96.0201 17.8356 94.1331 17.8356ZM95.3261 14.8894C97.0551 14.8894 98.2361 13.4041 98.2361 11.0422V11.0301C98.2361 8.68041 97.0431 7.19511 95.3261 7.19511C93.5611 7.19511 92.4411 8.64391 92.4411 11.0301V11.0422C92.4411 13.4163 93.5491 14.8894 95.3261 14.8894ZM109.522 17.8356C105.906 17.8356 103.897 16.1677 103.617 13.6963L103.605 13.5867H107.074L107.099 13.6963C107.33 14.7189 108.097 15.3155 109.522 15.3155C110.861 15.3155 111.676 14.792 111.676 13.9519V13.9398C111.676 13.2458 111.238 12.8441 109.96 12.5641L107.744 12.1014C105.212 11.5657 103.933 10.2996 103.933 8.35171V8.33951C103.933 5.85591 106.076 4.24891 109.4 4.24891C112.869 4.24891 114.805 6.08721 114.89 8.37601V8.49781H111.616L111.603 8.40041C111.482 7.46291 110.715 6.75681 109.4 6.75681C108.17 6.75681 107.403 7.30471 107.403 8.14471V8.15691C107.403 8.82651 107.854 9.26481 109.168 9.54481L111.384 10.0196C114.111 10.5918 115.231 11.6631 115.231 13.5867V13.5989C115.231 16.1555 112.882 17.8356 109.522 17.8356Z" fill="#242422"></path></svg> 