<?xml version="1.0" encoding="UTF-8"?> <svg xmlns="http://www.w3.org/2000/svg" width="141" height="61" viewBox="0 0 141 61" fill="none"><path d="M25.5182 37.9603C24.8891 37.9603 24.4274 37.7491 24.1329 37.3268C23.8385 36.9046 23.8385 36.3767 24.1329 35.7434L29.1318 25.1339C29.3727 24.6193 29.6672 24.2432 30.0152 24.0057C30.3631 23.7682 30.7714 23.6494 31.2398 23.6494C31.6948 23.6494 32.0964 23.7682 32.4443 24.0057C32.7923 24.2432 33.0868 24.6193 33.3276 25.1339L38.3266 35.7434C38.6344 36.3899 38.6478 36.9244 38.3667 37.3466C38.0856 37.7557 37.644 37.9603 37.0417 37.9603C36.5063 37.9603 36.0915 37.8415 35.797 37.6039C35.5159 37.3664 35.2617 36.9837 35.0341 36.4559C35.0341 36.4559 34.7609 35.4729 34.3917 34.9516C32.9642 32.9363 28.0678 34.9516 28.0678 34.9516L27.4254 36.4559C27.1845 36.9837 26.9369 37.3664 26.6826 37.6039C26.4283 37.8415 26.0401 37.9603 25.5182 37.9603ZM31.1996 27.6279L29.2724 32.1607H33.1671L31.2398 27.6279H31.1996Z" fill="#FF4E2C"></path><path d="M47.6596 37.9999C46.8432 37.9999 46.0001 37.9207 45.1301 37.7623C44.2735 37.5908 43.5374 37.3533 42.9218 37.0498C42.5604 36.8782 42.3061 36.6473 42.1589 36.357C42.0117 36.0667 41.9581 35.7698 41.9983 35.4663C42.0384 35.1496 42.1522 34.8725 42.3395 34.6349C42.5269 34.3842 42.7746 34.2193 43.0823 34.1401C43.3902 34.0477 43.7382 34.0873 44.1263 34.2589C44.6349 34.5096 45.2104 34.7009 45.8528 34.8329C46.4953 34.9516 47.0975 35.011 47.6596 35.011C48.543 35.011 49.1586 34.8989 49.5066 34.6745C49.868 34.437 50.0487 34.1467 50.0487 33.8036C50.0487 33.5001 49.9215 33.256 49.6672 33.0712C49.4263 32.8865 48.9914 32.7281 48.3623 32.5962L46.0134 32.1013C43.4705 31.5603 42.199 30.2474 42.199 28.1624C42.199 27.2519 42.4466 26.4536 42.9418 25.7674C43.4504 25.0812 44.1531 24.5534 45.0498 24.1839C45.9465 23.8012 46.9904 23.6099 48.1816 23.6099C48.8776 23.6099 49.5802 23.689 50.2896 23.8474C51.0123 23.9925 51.6346 24.2169 52.1566 24.5204C52.5581 24.7315 52.8125 25.0218 52.9195 25.3913C53.0266 25.7476 53.0132 26.0973 52.8794 26.4404C52.7455 26.7835 52.5046 27.0342 52.1566 27.1925C51.822 27.3509 51.3938 27.3245 50.8718 27.1133C50.4703 26.9418 50.0286 26.8164 49.5468 26.7373C49.065 26.6449 48.5965 26.5987 48.1415 26.5987C47.392 26.5987 46.8165 26.7307 46.4149 26.9946C46.0134 27.2453 45.8127 27.5752 45.8127 27.9843C45.8127 28.2746 45.9331 28.5121 46.174 28.6968C46.4149 28.8816 46.8432 29.0399 47.4589 29.1719L49.7877 29.6667C52.3708 30.2077 53.6623 31.4877 53.6623 33.5067C53.6623 34.4172 53.4147 35.209 52.9195 35.8819C52.4243 36.5549 51.7283 37.0761 50.8316 37.4456C49.9349 37.8151 48.8776 37.9999 47.6596 37.9999Z" fill="#FF4E2C"></path><path d="M58.3912 37.9603C57.7622 37.9603 57.3004 37.7491 57.006 37.3268C56.7115 36.9046 56.7115 36.3767 57.006 35.7434L62.0049 25.1339C62.2458 24.6193 62.5402 24.2432 62.8882 24.0057C63.2362 23.7682 63.6444 23.6494 64.1128 23.6494C64.5679 23.6494 64.9694 23.7682 65.3174 24.0057C65.6654 24.2432 65.9598 24.6193 66.2008 25.1339L71.1996 35.7434C71.5075 36.3899 71.5208 36.9244 71.2397 37.3466C70.9587 37.7557 70.517 37.9603 69.9148 37.9603C69.3794 37.9603 68.9645 37.8415 68.6701 37.6039C68.389 37.3664 68.1347 36.9837 67.9072 36.4559L67.2647 34.9516H60.9409L60.2984 36.4559C60.0576 36.9837 59.8099 37.3664 59.5556 37.6039C59.3014 37.8415 58.9132 37.9603 58.3912 37.9603ZM64.0727 27.6279L62.1454 32.1607H66.0401L64.1128 27.6279H64.0727Z" fill="#FF4E2C"></path><path d="M77.2971 37.9603C76.7083 37.9603 76.2532 37.802 75.932 37.4853C75.6108 37.1686 75.4502 36.7133 75.4502 36.1195V25.6684C75.4502 25.0746 75.6108 24.6194 75.932 24.3027C76.2532 23.986 76.715 23.8276 77.3172 23.8276H82.2561C83.8622 23.8276 85.0997 24.2367 85.9698 25.0548C86.8531 25.8598 87.2948 26.9748 87.2948 28.4C87.2948 29.8251 86.8531 30.9468 85.9698 31.7649C85.0997 32.5698 83.8622 32.9723 82.2561 32.9723H79.1441V36.1195C79.1441 36.7133 78.9835 37.1686 78.6623 37.4853C78.3545 37.802 77.8994 37.9603 77.2971 37.9603ZM79.1441 30.1814H81.6135C83.0591 30.1814 83.7814 29.5876 83.7814 28.4C83.7814 27.2124 83.0591 26.6185 81.6135 26.6185H79.1441V30.1814Z" fill="#FF4E2C"></path><path d="M96.2918 37.9603C95.7029 37.9603 95.248 37.802 94.9269 37.4853C94.6054 37.1686 94.4449 36.7133 94.4449 36.1195V26.7967H91.2929C90.2757 26.7967 89.7676 26.3018 89.7676 25.3122C89.7676 24.3225 90.2757 23.8276 91.2929 23.8276H101.291C102.308 23.8276 102.817 24.3225 102.817 25.3122C102.817 26.3018 102.308 26.7967 101.291 26.7967H98.1392V36.1195C98.1392 36.7133 97.9782 37.1686 97.6572 37.4853C97.3494 37.802 96.8945 37.9603 96.2918 37.9603Z" fill="#FF4E2C"></path><path d="M111.954 37.9603C111.365 37.9603 110.91 37.8019 110.589 37.4852C110.268 37.1553 110.107 36.6868 110.107 36.0799V31.6065L106.253 26.1038C106.025 25.7871 105.925 25.4374 105.951 25.0548C105.992 24.6721 106.152 24.3422 106.434 24.0651C106.728 23.788 107.143 23.6494 107.678 23.6494C108.053 23.6494 108.394 23.7418 108.702 23.9265C109.01 24.1113 109.298 24.4082 109.566 24.8172L112.015 28.3603L114.464 24.7974C114.745 24.3884 115.033 24.0981 115.327 23.9265C115.622 23.7418 115.97 23.6494 116.371 23.6494C116.88 23.6494 117.275 23.7748 117.555 24.0255C117.836 24.2762 117.984 24.5929 117.997 24.9756C118.024 25.3583 117.903 25.7475 117.636 26.1434L113.801 31.6065V36.0799C113.801 37.3335 113.186 37.9603 111.954 37.9603Z" fill="#FF4E2C"></path></svg> 