<?xml version="1.0" encoding="UTF-8"?> <svg xmlns="http://www.w3.org/2000/svg" width="141" height="60" viewBox="0 0 141 60" fill="none"><path fill-rule="evenodd" clip-rule="evenodd" d="M100.439 29.473C101.95 29.473 103.087 29.8269 103.85 30.5278C104.612 31.2287 104.994 32.3515 105.001 33.8893V39.932V41.6128C105.001 41.7012 104.923 41.7761 104.831 41.7761H103.264C103.172 41.7761 103.094 41.7012 103.094 41.6128V39.932V33.9574C103.094 32.9707 102.861 32.2358 102.395 31.7526C101.929 31.2695 101.202 31.0245 100.213 31.0245H100.185C100.142 31.0245 100.1 31.0262 100.058 31.0279C100.015 31.0296 99.9728 31.0313 99.9305 31.0313C98.7653 31.0994 97.9037 31.5757 97.3388 32.2086C96.7244 32.889 96.4208 34.0186 96.4208 35.5905V41.606C96.4208 41.6944 96.3431 41.7693 96.2513 41.7693H94.6765C94.5847 41.7693 94.507 41.6944 94.507 41.606V32.3515L94.5635 30.5278L94.6695 27.0982L92.5721 25.8189C92.1131 26.1931 91.4987 26.3292 90.9197 26.1999C89.8957 25.9686 89.2531 24.9819 89.4932 23.9952C89.7333 23.0085 90.7573 22.3892 91.7812 22.6206C92.8052 22.852 93.4478 23.8387 93.2077 24.8254L94.7118 25.7508L94.8601 21.0623C94.4294 20.9058 94.0904 20.5724 93.9209 20.1573C93.589 19.3407 94.0127 18.4288 94.8601 18.109C95.7075 17.7892 96.6609 18.1975 96.9857 19.0141C97.3176 19.8306 96.8939 20.7493 96.0465 21.0623L96.1312 23.3283L97.5153 22.5049C97.3882 21.9946 97.5012 21.457 97.8261 21.0419C98.4263 20.2729 99.5632 20.1164 100.361 20.6948C101.159 21.2733 101.322 22.3688 100.721 23.1378C100.121 23.9067 98.9842 24.0632 98.1862 23.4848L96.1736 24.6688L96.2795 27.4996L97.7201 26.6422C97.6566 26.2544 97.7484 25.8597 97.9814 25.5399C98.4757 24.8594 99.4503 24.6893 100.156 25.1656C100.863 25.6419 101.039 26.581 100.545 27.2615C100.051 27.9419 99.076 28.1121 98.3698 27.6357L96.329 28.8402L96.4137 31.1878C96.795 30.4937 98.165 29.473 100.439 29.473ZM38.1809 31.2278C39.0636 30.0233 40.3771 29.4994 42.1142 29.4994C43.7596 29.4994 45.0449 30.0369 45.9558 31.1257C46.8668 32.2077 47.3258 33.7387 47.3258 35.7257C47.3258 37.7127 46.8668 39.2574 45.9488 40.353C45.0307 41.4486 43.7526 41.9998 42.1213 41.9998C41.3516 42.0066 40.5889 41.8637 39.8827 41.5643C39.1977 41.2717 38.6116 40.8089 38.1809 40.2237V41.6187C38.1809 41.7072 38.1032 41.782 38.0114 41.782H36.4507C36.3589 41.782 36.2812 41.7072 36.2812 41.6187V23.3342C36.2812 23.2458 36.3589 23.1709 36.4507 23.1709H38.0114C38.1032 23.1709 38.1809 23.2458 38.1809 23.3342V31.2278ZM42.0648 40.1421C43.2088 40.1421 44.0633 39.761 44.6282 38.9989C45.1932 38.2367 45.4756 37.1411 45.4756 35.7121C45.4756 34.2423 45.1932 33.1535 44.6282 32.4322C44.0633 31.7109 43.1947 31.3503 42.0154 31.3503C40.7443 31.3503 39.8262 31.6837 39.2613 32.3506C38.6964 33.0174 38.4139 34.1402 38.4139 35.7257C38.4139 37.3113 38.7034 38.4409 39.2825 39.1213C39.8616 39.8018 40.7866 40.1421 42.0648 40.1421ZM72.2261 31.1936C72.6074 30.4995 73.9774 29.4787 76.2513 29.4787C77.7625 29.4719 78.8995 29.8258 79.6551 30.5267C80.4177 31.2276 80.7991 32.3504 80.7991 33.8951V41.6321C80.7991 41.7206 80.7214 41.7954 80.6296 41.7954H79.0689C78.9771 41.7954 78.8995 41.7206 78.8995 41.6321V33.9767C78.8995 32.99 78.6664 32.2551 78.2003 31.772C77.7413 31.2888 77.0069 31.0438 76.0183 31.0438C74.7048 31.0438 73.7444 31.5474 73.1371 32.2279C72.5227 32.9084 72.2191 34.038 72.2191 35.6099V41.6253C72.2191 41.7138 72.1414 41.7886 72.0496 41.7886H70.4889C70.3971 41.7886 70.3194 41.7138 70.3194 41.6253V29.8666C70.3194 29.7782 70.3971 29.7033 70.4889 29.7033H72.0566C72.1484 29.7033 72.2261 29.7782 72.2261 29.8666V31.1936ZM92.0369 30.0387C91.6274 29.8754 91.1966 29.7461 90.7658 29.6645C90.1726 29.542 89.5653 29.4807 88.958 29.4739C87.0867 29.4739 85.6531 30.0251 84.6363 31.1275C83.6264 32.2299 83.118 33.795 83.118 35.816C83.118 37.7826 83.6123 39.3068 84.608 40.382C85.6037 41.4572 87.009 41.9947 88.8239 41.9947C90.0526 41.9947 91.0765 41.7974 91.8957 41.4095C91.9522 41.3823 91.9875 41.3279 91.9875 41.2598V39.9805C91.9875 39.8921 91.9098 39.8172 91.818 39.8172C91.7968 39.8172 91.7757 39.824 91.7545 39.8308C90.8011 40.1915 89.7913 40.382 88.7674 40.3956C87.5457 40.3956 86.6277 40.0009 86.0062 39.2048C85.3848 38.4086 85.0741 37.2722 85.0741 35.7888C85.0741 32.6586 86.3452 31.0935 88.8945 31.0935C89.3394 31.1003 89.7772 31.1547 90.208 31.2568C90.6175 31.3452 91.0271 31.4541 91.4226 31.597C91.5073 31.631 91.6062 31.5902 91.6415 31.5017L92.1146 30.2429C92.1641 30.1612 92.1217 30.0727 92.0369 30.0387ZM63.4964 29.1739C64.9935 29.1739 66.1022 29.4937 66.8225 30.1334C67.5428 30.773 67.9029 31.8822 67.8888 33.2908V41.6063C67.8888 41.6947 67.8111 41.7696 67.7193 41.7696H66.201C66.1092 41.7696 66.0316 41.6947 66.0316 41.6063V40.7148C65.5372 41.1708 64.944 41.5246 64.3014 41.7424C63.8212 41.9057 63.3128 41.9873 62.8043 41.9873C61.8369 41.9873 60.8977 41.7015 60.1068 41.1572C59.0616 40.4358 58.419 39.4968 58.2919 38.2379C58.1577 36.9178 58.6167 35.6044 59.5559 34.6382C60.1562 34.0325 60.8835 33.563 61.6956 33.2704C62.5854 32.937 63.4681 32.8893 64.2096 32.8825L65.968 32.8689C65.9398 32.3041 65.6926 31.6645 65.4031 31.3582C64.9794 30.9023 64.3014 30.6778 63.3693 30.6778C62.3665 30.6778 61.2437 30.9636 59.9867 31.5284C59.9867 31.5352 59.9796 31.5352 59.9796 31.5352C59.8949 31.5692 59.796 31.5284 59.7607 31.4467L59.3017 30.3443C59.2664 30.2695 59.3017 30.181 59.3794 30.1402C59.9867 29.8408 60.6223 29.6094 61.279 29.4461C62.0064 29.2624 62.7478 29.1739 63.4964 29.1739ZM63.6376 40.3474C65.2689 39.7894 66.081 38.0678 66.088 36.4959L66.0951 34.5157L64.2096 34.5089C63.5388 34.5157 62.882 34.5633 62.2535 34.7947C61.6745 34.9988 61.1519 35.3322 60.7211 35.7609C59.5559 36.9518 59.5912 38.9864 61.0177 39.9731C61.7733 40.4971 62.7549 40.64 63.6376 40.3474ZM56.7408 29.6982C56.2889 29.6369 55.8369 29.6097 55.385 29.6097C53.1634 29.6842 51.5928 31.0536 51.5858 31.2068V29.9704C51.5858 29.8819 51.5081 29.807 51.4163 29.807H49.8556C49.7638 29.807 49.6862 29.8819 49.6862 29.9704V41.729C49.6862 41.8175 49.7638 41.8924 49.8556 41.8924H51.4163C51.5081 41.8924 51.5858 41.8175 51.5858 41.729V35.4074C51.5858 34.2234 51.9459 33.2367 52.6662 32.4405C53.3865 31.6443 54.2551 31.2497 55.272 31.2497C55.6745 31.2565 56.077 31.2973 56.4725 31.379C56.5643 31.3994 56.6561 31.3381 56.6702 31.2497V31.2429L56.8821 29.8751C56.9033 29.7934 56.8397 29.7118 56.7408 29.6982Z" fill="#333E48"></path><path fill-rule="evenodd" clip-rule="evenodd" d="M94.4556 19.5891C94.4556 19.0583 94.9005 18.6296 95.4513 18.6296C96.0021 18.6296 96.4541 19.0583 96.447 19.5891C96.447 20.1199 96.0021 20.5486 95.4513 20.5486C94.9005 20.5486 94.4556 20.1199 94.4556 19.5891ZM98.3142 26.4257C98.3142 25.9426 98.7167 25.5547 99.2181 25.5547C99.7194 25.5547 100.122 25.9426 100.122 26.4257C100.122 26.9088 99.7194 27.2967 99.2181 27.2967C98.7167 27.2967 98.3142 26.9088 98.3142 26.4257ZM99.7744 23.0251C100.304 22.7801 100.523 22.1609 100.269 21.6505C100.014 21.1401 99.3718 20.9292 98.8422 21.1742C98.3126 21.4191 98.0937 22.0384 98.3479 22.5419C98.6021 23.0591 99.2447 23.27 99.7744 23.0251ZM90.2051 24.4202C90.2051 23.8078 90.7206 23.3111 91.3561 23.3111C91.9917 23.3111 92.5001 23.8078 92.5072 24.4202C92.5072 25.0327 91.9917 25.5294 91.3561 25.5294C90.7206 25.5294 90.2051 25.0327 90.2051 24.4202Z" fill="#009BDE"></path></svg> 