<?xml version="1.0" encoding="UTF-8"?> <svg xmlns="http://www.w3.org/2000/svg" width="141" height="61" viewBox="0 0 141 61" fill="none"><path d="M21.1664 41.3666L15.3523 31.2907C14.8995 30.5002 14.8995 29.53 15.3523 28.7466L21.1664 18.6707C21.6192 17.8802 22.46 17.3987 23.3727 17.3987H35.0082C35.9209 17.3987 36.7618 17.8874 37.2145 18.6707L43.0287 28.7466C43.4814 29.5372 43.4814 30.5074 43.0287 31.2907L37.2145 41.3666C36.7618 42.1572 35.9209 42.6387 35.0082 42.6387H23.3727C22.46 42.6387 21.6192 42.15 21.1664 41.3666Z" fill="url(#paint0_linear_4919_23699)"></path><g opacity="0.07"><path d="M41.3574 34.4506L33.9478 27.041L25.9345 27.7741L24.375 29.3264L25.6974 30.6416L24.3894 32.9629L34.2784 42.852H36.6788L41.3574 34.4506Z" fill="black"></path></g><path d="M33.7687 26.9761H24.5911C24.4402 26.9761 24.3252 27.0982 24.3252 27.242V29.1393C24.3252 29.2902 24.4474 29.4052 24.5911 29.4052H33.7687C33.9196 29.4052 34.0346 29.283 34.0346 29.1393V27.242C34.0418 27.0982 33.9196 26.9761 33.7687 26.9761ZM32.3529 28.744C32.051 28.744 31.8067 28.4997 31.8067 28.1978C31.8067 27.896 32.051 27.6516 32.3529 27.6516C32.6547 27.6516 32.8991 27.896 32.8991 28.1978C32.8991 28.4997 32.6547 28.744 32.3529 28.744Z" fill="white"></path><path d="M33.7687 30.6267H24.5911C24.4402 30.6267 24.3252 30.7489 24.3252 30.8926V32.7899C24.3252 32.9409 24.4474 33.0558 24.5911 33.0558H33.7687C33.9196 33.0558 34.0346 32.9337 34.0346 32.7899V30.8926C34.0418 30.7417 33.9196 30.6267 33.7687 30.6267ZM32.3529 32.3875C32.051 32.3875 31.8067 32.1431 31.8067 31.8413C31.8067 31.5394 32.051 31.2951 32.3529 31.2951C32.6547 31.2951 32.8991 31.5394 32.8991 31.8413C32.8991 32.1431 32.6547 32.3875 32.3529 32.3875Z" fill="white"></path><path d="M57.3095 20.6912H52.8465V22.0136H56.0087C55.8506 23.8678 54.3054 24.6583 52.8537 24.6583C50.9923 24.6583 49.3609 23.1922 49.3609 21.1368C49.3609 19.1317 50.9133 17.5937 52.8537 17.5937C54.3557 17.5937 55.2397 18.5496 55.2397 18.5496L56.1668 17.5865C56.1668 17.5865 54.981 16.2642 52.8106 16.2642C50.0508 16.2642 47.9092 18.5927 47.9092 21.1152C47.9092 23.5803 49.9215 25.9879 52.8753 25.9879C55.4769 25.9879 57.3814 24.2056 57.3814 21.568C57.3886 21.0074 57.3095 20.6912 57.3095 20.6912Z" fill="#7F7F7F"></path><path d="M60.959 19.728C59.1264 19.728 57.8184 21.1582 57.8184 22.8255C57.8184 24.5216 59.0904 25.9733 60.9806 25.9733C62.691 25.9733 64.0924 24.6654 64.0924 22.8615C64.0996 20.7989 62.4682 19.728 60.959 19.728ZM60.9806 20.957C61.8789 20.957 62.7341 21.6828 62.7341 22.8543C62.7341 24.0042 61.8861 24.7516 60.9806 24.7516C59.9816 24.7516 59.1982 23.9539 59.1982 22.8471C59.191 21.7691 59.9672 20.957 60.9806 20.957Z" fill="#7F7F7F"></path><path d="M67.793 19.728C65.9603 19.728 64.6523 21.1582 64.6523 22.8255C64.6523 24.5216 65.9244 25.9733 67.8145 25.9733C69.525 25.9733 70.9264 24.6654 70.9264 22.8615C70.9264 20.7989 69.295 19.728 67.793 19.728ZM67.8073 20.957C68.7057 20.957 69.5609 21.6828 69.5609 22.8543C69.5609 24.0042 68.7129 24.7516 67.8073 24.7516C66.8084 24.7516 66.025 23.9539 66.025 22.8471C66.025 21.7691 66.8012 20.957 67.8073 20.957Z" fill="#7F7F7F"></path><path d="M74.4949 19.7354C72.8132 19.7354 71.498 21.2086 71.498 22.8544C71.498 24.7374 73.0288 25.9807 74.4662 25.9807C75.3574 25.9807 75.8317 25.6285 76.1767 25.2189V25.8369C76.1767 26.915 75.5227 27.5618 74.5309 27.5618C73.575 27.5618 73.1007 26.8503 72.9282 26.4478L71.728 26.9509C72.152 27.8492 73.0145 28.7907 74.5381 28.7907C76.2054 28.7907 77.4775 27.7414 77.4775 25.5351V19.9222H76.1695V20.454C75.7814 20.0156 75.228 19.7354 74.4949 19.7354ZM74.6171 20.9571C75.4436 20.9571 76.2845 21.6614 76.2845 22.8616C76.2845 24.0834 75.4436 24.7517 74.5956 24.7517C73.6972 24.7517 72.8635 24.0259 72.8635 22.8688C72.8707 21.6758 73.7403 20.9571 74.6171 20.9571Z" fill="#7F7F7F"></path><path d="M83.3173 19.728C81.7362 19.728 80.3994 20.9857 80.3994 22.8471C80.3994 24.8163 81.8799 25.9805 83.4682 25.9805C84.7906 25.9805 85.6027 25.2547 86.0842 24.6079L85.0062 23.8892C84.7259 24.3276 84.2587 24.7516 83.4754 24.7516C82.5986 24.7516 82.1961 24.2701 81.9446 23.8029L86.1345 22.0637L85.9189 21.5535C85.5092 20.5617 84.5606 19.728 83.3173 19.728ZM83.3676 20.9282C83.9353 20.9282 84.3522 21.2301 84.5246 21.5966L81.729 22.768C81.6068 21.8625 82.462 20.9282 83.3676 20.9282Z" fill="#7F7F7F"></path><path d="M78.4043 25.8009H79.7842V16.5874H78.4043V25.8009Z" fill="#7F7F7F"></path><path d="M52.3434 32.4737C51.3301 32.4737 50.5252 32.8114 49.943 33.487C49.3609 34.1626 49.0591 35.0897 49.0591 36.2611C49.0591 37.4685 49.3394 38.4028 49.9071 39.064C50.4749 39.7251 51.2798 40.0557 52.3291 40.0557C52.9759 40.0557 53.7089 39.9407 54.5354 39.7108V40.6522C53.8958 40.8894 53.1052 41.0116 52.1638 41.0116C50.8055 41.0116 49.7562 40.6019 49.0159 39.7754C48.2757 38.949 47.9092 37.7775 47.9092 36.2539C47.9092 35.3053 48.0889 34.4716 48.441 33.7529C48.8003 33.0342 49.3106 32.488 49.979 32.1C50.6474 31.7119 51.4379 31.5178 52.3506 31.5178C53.3208 31.5178 54.1689 31.6975 54.8876 32.0496L54.4348 32.9696C53.7377 32.639 53.0406 32.4737 52.3434 32.4737Z" fill="#7F7F7F"></path><path d="M57.1167 40.8821H56.0674V31.0505H57.1167V40.8821Z" fill="#7F7F7F"></path><path d="M64.7988 37.4111C64.7988 38.5394 64.5113 39.4234 63.9436 40.0558C63.3758 40.6882 62.5925 41.0044 61.5863 41.0044C60.9682 41.0044 60.4149 40.8607 59.9405 40.5661C59.4662 40.2714 59.0925 39.8617 58.8266 39.3156C58.5678 38.7694 58.4385 38.1369 58.4385 37.4111C58.4385 36.2827 58.7188 35.4059 59.2865 34.7735C59.8543 34.1411 60.6376 33.832 61.6366 33.832C62.6068 33.832 63.3758 34.1554 63.9436 34.7951C64.5113 35.4419 64.7988 36.3187 64.7988 37.4111ZM59.5237 37.4111C59.5237 38.295 59.7034 38.9706 60.0555 39.4305C60.4077 39.8905 60.9323 40.1277 61.615 40.1277C62.2978 40.1277 62.8224 39.8977 63.1818 39.4377C63.5411 38.9778 63.7136 38.3022 63.7136 37.4111C63.7136 36.5343 63.5339 35.8659 63.1818 35.4059C62.8224 34.946 62.2978 34.7232 61.6079 34.7232C60.9179 34.7232 60.4005 34.946 60.0555 35.3988C59.6962 35.8515 59.5237 36.5199 59.5237 37.4111Z" fill="#7F7F7F"></path><path d="M67.1056 33.9612V38.4529C67.1056 39.0207 67.2349 39.4375 67.4937 39.7178C67.7524 39.9981 68.1548 40.1346 68.701 40.1346C69.4269 40.1346 69.9515 39.9334 70.2893 39.5381C70.6271 39.1429 70.7924 38.496 70.7924 37.5977V33.9612H71.8417V40.8821H70.9793L70.8283 39.955H70.7708C70.5552 40.2927 70.2606 40.5587 69.8797 40.7383C69.4988 40.918 69.0604 41.0114 68.5789 41.0114C67.738 41.0114 67.1056 40.8102 66.6887 40.4149C66.2719 40.0125 66.0635 39.3728 66.0635 38.496V33.9684H67.1056V33.9612Z" fill="#7F7F7F"></path><path d="M78.2517 39.955H78.1942C77.7127 40.6593 76.9868 41.0114 76.0238 41.0114C75.1182 41.0114 74.4139 40.7024 73.9109 40.0843C73.4078 39.4663 73.1562 38.5823 73.1562 37.4468C73.1562 36.3041 73.4078 35.4201 73.9109 34.7877C74.4139 34.1552 75.1182 33.839 76.0238 33.839C76.9653 33.839 77.6839 34.1768 78.187 34.8595H78.2661L78.2229 34.3636L78.1942 33.8749V31.0505H79.2435V40.8821H78.3882L78.2517 39.955ZM76.1531 40.1275C76.8718 40.1275 77.3893 39.9334 77.7127 39.5453C78.0361 39.1572 78.1942 38.5248 78.1942 37.6624V37.4396C78.1942 36.455 78.0289 35.7579 77.7055 35.3411C77.3821 34.9242 76.8575 34.7158 76.1388 34.7158C75.5207 34.7158 75.0536 34.953 74.7302 35.4345C74.4067 35.916 74.2415 36.5844 74.2415 37.4612C74.2415 38.3451 74.4067 39.0135 74.7302 39.4663C75.0536 39.9047 75.5279 40.1275 76.1531 40.1275Z" fill="#7F7F7F"></path><path d="M89.5505 38.4243C89.5505 39.2364 89.2558 39.8689 88.6665 40.3288C88.0772 40.7816 87.2794 41.0116 86.2661 41.0116C85.1737 41.0116 84.3256 40.8678 83.7363 40.5876V39.5527C84.1172 39.7108 84.5269 39.8401 84.9725 39.9336C85.418 40.027 85.8636 40.0701 86.302 40.0701C87.0207 40.0701 87.5597 39.9336 87.919 39.6605C88.2784 39.3874 88.4653 39.0136 88.4653 38.5249C88.4653 38.2015 88.4006 37.9428 88.2712 37.7416C88.1418 37.5404 87.9262 37.3463 87.6244 37.1738C87.3225 37.0013 86.8626 36.8073 86.2517 36.5845C85.3893 36.2755 84.7784 35.9161 84.4119 35.4921C84.0454 35.0681 83.8585 34.5219 83.8585 33.8463C83.8585 33.1348 84.1244 32.5671 84.6634 32.1503C85.1953 31.7262 85.9067 31.5178 86.7835 31.5178C87.7034 31.5178 88.5443 31.6831 89.3133 32.0209L88.9755 32.9552C88.2137 32.6318 87.4735 32.4737 86.7548 32.4737C86.187 32.4737 85.7414 32.5958 85.4252 32.8402C85.1018 33.0845 84.9437 33.4223 84.9437 33.8607C84.9437 34.1841 85.0012 34.4428 85.1234 34.6441C85.2384 34.8453 85.4396 35.0322 85.7199 35.2046C86.0002 35.3771 86.4314 35.564 87.0063 35.7724C87.9765 36.1174 88.6377 36.4911 89.0043 36.8864C89.3708 37.2816 89.5505 37.7919 89.5505 38.4243Z" fill="#7F7F7F"></path><path d="M92.9984 40.1418C93.1853 40.1418 93.3649 40.1274 93.5374 40.0987C93.7099 40.0699 93.8465 40.0412 93.9471 40.0124V40.8174C93.8321 40.8748 93.6668 40.918 93.444 40.9539C93.2212 40.9898 93.0272 41.0042 92.8475 41.0042C91.5107 41.0042 90.8424 40.2999 90.8424 38.8913V34.7733H89.8506V34.2702L90.8424 33.8318L91.2879 32.3513H91.8916V33.954H93.8968V34.7661H91.8916V38.841C91.8916 39.2578 91.9923 39.5812 92.1863 39.804C92.3803 40.034 92.6534 40.1418 92.9984 40.1418Z" fill="#7F7F7F"></path><path d="M100.791 37.4111C100.791 38.5394 100.504 39.4234 99.9358 40.0558C99.368 40.6882 98.5846 41.0044 97.5785 41.0044C96.9604 41.0044 96.407 40.8607 95.9327 40.5661C95.4584 40.2714 95.0847 39.8617 94.8187 39.3156C94.56 38.7694 94.4307 38.1369 94.4307 37.4111C94.4307 36.2827 94.7109 35.4059 95.2787 34.7735C95.8465 34.1411 96.6298 33.832 97.6288 33.832C98.599 33.832 99.368 34.1554 99.9358 34.7951C100.504 35.4419 100.791 36.3187 100.791 37.4111ZM95.5159 37.4111C95.5159 38.295 95.6955 38.9706 96.0477 39.4305C96.3998 39.8905 96.9245 40.1277 97.6072 40.1277C98.29 40.1277 98.8146 39.8977 99.174 39.4377C99.5333 38.9778 99.7058 38.3022 99.7058 37.4111C99.7058 36.5343 99.5261 35.8659 99.174 35.4059C98.8146 34.946 98.29 34.7232 97.6 34.7232C96.9101 34.7232 96.3927 34.946 96.0477 35.3988C95.6884 35.8515 95.5159 36.5199 95.5159 37.4111Z" fill="#7F7F7F"></path><path d="M105.266 33.832C105.575 33.832 105.848 33.8608 106.093 33.9111L105.949 34.8813C105.662 34.8166 105.41 34.7879 105.194 34.7879C104.634 34.7879 104.152 35.0179 103.757 35.4706C103.362 35.9234 103.161 36.4911 103.161 37.1667V40.8823H102.111V33.9614H102.974L103.096 35.2406H103.146C103.405 34.7879 103.714 34.4429 104.073 34.1986C104.433 33.9542 104.835 33.832 105.266 33.832Z" fill="#7F7F7F"></path><path d="M111.135 40.8825L110.926 39.898H110.876C110.531 40.3292 110.186 40.6238 109.841 40.7819C109.496 40.9329 109.072 41.0119 108.555 41.0119C107.865 41.0119 107.333 40.8322 106.938 40.4801C106.55 40.1279 106.355 39.6249 106.355 38.9709C106.355 37.5694 107.477 36.8436 109.712 36.7717L110.883 36.7358V36.3046C110.883 35.7584 110.768 35.3631 110.531 35.1044C110.294 34.8456 109.92 34.7163 109.41 34.7163C108.835 34.7163 108.181 34.896 107.455 35.2481L107.132 34.4432C107.469 34.2563 107.843 34.1126 108.253 34.0048C108.662 33.897 109.065 33.8467 109.475 33.8467C110.301 33.8467 110.912 34.0263 111.307 34.3929C111.702 34.7594 111.904 35.3487 111.904 36.1536V40.8754L111.135 40.8825ZM108.763 40.1423C109.417 40.1423 109.927 39.9626 110.301 39.6033C110.675 39.244 110.862 38.7409 110.862 38.1013V37.476L109.812 37.5191C108.979 37.5479 108.375 37.6772 108.008 37.9072C107.642 38.1372 107.455 38.4965 107.455 38.978C107.455 39.3589 107.57 39.6464 107.8 39.8405C108.03 40.0417 108.353 40.1423 108.763 40.1423Z" fill="#7F7F7F"></path><path d="M119.411 33.9613V34.6224L118.131 34.7734C118.246 34.9243 118.354 35.1111 118.448 35.3483C118.541 35.5855 118.584 35.8514 118.584 36.1532C118.584 36.8288 118.354 37.375 117.887 37.7774C117.427 38.1799 116.787 38.3811 115.983 38.3811C115.774 38.3811 115.58 38.3668 115.4 38.3308C114.955 38.568 114.732 38.8626 114.732 39.222C114.732 39.4088 114.811 39.5526 114.969 39.6388C115.127 39.7322 115.393 39.7754 115.774 39.7754H117.003C117.751 39.7754 118.325 39.9335 118.728 40.2497C119.13 40.5659 119.332 41.0259 119.332 41.6296C119.332 42.3985 119.023 42.9807 118.412 43.3831C117.794 43.7856 116.902 43.9868 115.724 43.9868C114.818 43.9868 114.121 43.8215 113.632 43.4838C113.144 43.146 112.899 42.6716 112.899 42.0536C112.899 41.6296 113.036 41.2702 113.302 40.9612C113.568 40.6522 113.949 40.4437 114.437 40.3359C114.258 40.2569 114.114 40.1347 113.992 39.9622C113.87 39.7969 113.812 39.5957 113.812 39.3729C113.812 39.1214 113.877 38.8986 114.013 38.7117C114.15 38.5249 114.358 38.338 114.653 38.1655C114.294 38.0146 114.006 37.7703 113.776 37.4109C113.553 37.0588 113.438 36.6563 113.438 36.1963C113.438 35.4417 113.668 34.8524 114.121 34.4428C114.574 34.0331 115.221 33.8247 116.054 33.8247C116.414 33.8247 116.744 33.8678 117.032 33.9541L119.411 33.9613ZM113.891 42.0464C113.891 42.4201 114.049 42.7076 114.366 42.9016C114.682 43.0957 115.135 43.1891 115.724 43.1891C116.601 43.1891 117.255 43.0597 117.679 42.7938C118.103 42.5279 118.311 42.1758 118.311 41.723C118.311 41.3493 118.196 41.0906 117.966 40.9396C117.736 40.7959 117.298 40.724 116.658 40.724H115.4C114.926 40.724 114.552 40.839 114.286 41.0618C114.021 41.2846 113.891 41.6224 113.891 42.0464ZM114.459 36.1748C114.459 36.6563 114.595 37.0228 114.869 37.2744C115.142 37.5259 115.523 37.6481 116.011 37.6481C117.032 37.6481 117.549 37.1522 117.549 36.1604C117.549 35.1183 117.032 34.6009 115.997 34.6009C115.501 34.6009 115.127 34.7302 114.861 34.9962C114.595 35.2621 114.459 35.6573 114.459 36.1748Z" fill="#7F7F7F"></path><path d="M123.436 41.0115C122.415 41.0115 121.603 40.7025 121.014 40.0772C120.425 39.452 120.13 38.5896 120.13 37.4828C120.13 36.3689 120.403 35.4777 120.956 34.8237C121.51 34.1697 122.243 33.8391 123.17 33.8391C124.04 33.8391 124.722 34.1266 125.233 34.6943C125.736 35.2621 125.987 36.0167 125.987 36.951V37.6122H121.215C121.237 38.4243 121.438 39.0423 121.833 39.4664C122.221 39.8904 122.775 40.0988 123.479 40.0988C124.226 40.0988 124.959 39.9407 125.692 39.6317V40.5659C125.319 40.7241 124.974 40.839 124.643 40.9109C124.298 40.9756 123.903 41.0115 123.436 41.0115ZM123.148 34.7087C122.595 34.7087 122.149 34.8884 121.819 35.2549C121.488 35.6142 121.294 36.1173 121.237 36.7569H124.859C124.859 36.0958 124.708 35.5927 124.413 35.2405C124.119 34.8884 123.695 34.7087 123.148 34.7087Z" fill="#7F7F7F"></path><defs><linearGradient id="paint0_linear_4919_23699" x1="29.1904" y1="17.3988" x2="29.1904" y2="42.6017" gradientUnits="userSpaceOnUse"><stop stop-color="#4387FD"></stop><stop offset="1" stop-color="#4683EA"></stop></linearGradient></defs></svg> 