<?xml version="1.0" encoding="UTF-8"?> <svg xmlns="http://www.w3.org/2000/svg" width="141" height="61" viewBox="0 0 141 61" fill="none"><g clip-path="url(#clip0_4919_23688)"><path d="M20.6504 36.7225H26.6096V36.0889H26.1632C25.2916 36.0889 25.0831 35.8509 25.0831 34.982V27.1246C25.6899 26.0953 26.508 25.4349 27.5373 25.4349C28.8313 25.4349 29.62 26.384 29.62 28.178V34.982C29.62 35.8536 29.4088 36.0889 28.564 36.0889H28.0881V36.7225H33.9163V36.0915H33.4939C32.6223 36.0915 32.4138 35.8536 32.4138 34.9847V27.8865C32.4138 27.6486 32.4138 27.4107 32.3871 27.1754C32.9672 26.1194 33.8388 25.4349 34.8654 25.4349C36.1594 25.4349 36.9507 26.384 36.9507 28.178V34.982C36.9507 35.8536 36.7395 36.0889 35.8947 36.0889H35.4188V36.7225H41.247V36.0915H40.8514C39.9531 36.0915 39.7445 35.8536 39.7445 34.9847V27.8865C39.7445 25.2237 38.242 23.7453 36.0524 23.7453C34.4189 23.7453 32.9939 24.6436 32.2293 26.4348C31.7829 24.6944 30.4621 23.7453 28.7217 23.7453C27.1657 23.7453 25.8209 24.5874 25.0804 26.2771V24.0608H20.6504V24.6944H21.1771C22.0754 24.6944 22.2839 24.9323 22.2839 25.8012V34.9794C22.2839 35.8509 22.0727 36.0862 21.1771 36.0862H20.6504V36.7225ZM44.7574 21.954C45.7065 21.954 46.4978 21.1627 46.4978 20.2136C46.4978 19.2645 45.7065 18.4731 44.7574 18.4731C43.8083 18.4731 43.0169 19.2645 43.0169 20.2136C43.0169 21.1627 43.8083 21.954 44.7574 21.954ZM41.8031 36.7225H47.6581V36.0889H47.2624C46.3909 36.0889 46.1823 35.8509 46.1823 34.982V24.0634H41.7497V24.6971H42.2763C43.1746 24.6971 43.3832 24.935 43.3832 25.8039V34.982C43.3832 35.8536 43.172 36.0889 42.2763 36.0889H41.8005L41.8031 36.7225ZM51.9304 29.2875H53.6173C53.1949 29.0228 53.0372 28.6538 52.826 27.9694L52.1924 25.6221C51.9036 24.5661 51.6657 24.0661 50.5054 24.0661H48.0805V24.6997H48.4254C49.1366 24.6997 49.2168 24.9644 49.428 25.7558L49.9814 27.8144C50.2701 28.8143 50.7219 29.2875 51.9304 29.2875ZM55.8363 29.2875H57.5233C58.7371 29.2875 59.1568 28.8116 59.4482 27.8117L60.0017 25.7531C60.2129 24.9617 60.3171 24.6971 61.0042 24.6971H61.3491V24.0634H58.9483C57.7613 24.0634 57.5233 24.5393 57.2587 25.6194L56.625 27.9668C56.4165 28.6779 56.2561 29.0228 55.8363 29.2875ZM53.62 31.5011H55.8363V29.2848H53.62V31.5011ZM48.0805 36.7251H50.5054C51.6657 36.7251 51.9036 36.2225 52.1924 35.1692L52.826 32.8218C53.0372 32.1374 53.1949 31.7658 53.6173 31.5038H51.9304C50.7166 31.5038 50.2674 31.9797 49.9787 32.9796L49.4253 35.0382C49.2141 35.8295 49.1366 36.0942 48.4227 36.0942H48.0778L48.0805 36.7251ZM58.9456 36.7251H61.3464V36.0915H61.0016C60.3171 36.0915 60.2102 35.8269 59.999 35.0355L59.4456 32.9769C59.1568 31.9743 58.7344 31.5011 57.5207 31.5011H55.8363C56.2588 31.7658 56.4112 32.108 56.6224 32.8192L57.256 35.1665C57.5207 36.2493 57.7586 36.7251 58.9456 36.7251ZM61.6886 42H67.8056V41.3663H67.172C66.3298 41.3663 66.116 41.1284 66.116 40.2595V35.2226C66.8806 36.3562 68.1746 37.0433 69.7038 37.0433C72.5778 37.0433 74.8717 34.5115 74.8717 30.135C74.8717 26.1782 72.7088 23.7533 69.9123 23.7533C68.2788 23.7533 66.9046 24.7024 66.1133 26.3894V24.0688H61.6806V24.7024H62.2073C63.0789 24.7024 63.3141 24.9403 63.3141 25.8092V40.2595C63.3141 41.1311 63.0762 41.3663 62.2073 41.3663H61.6806V42H61.6886ZM68.9178 25.3841C70.6315 25.3841 72.0298 26.9936 72.0298 30.1831C72.0298 33.664 70.7358 35.5648 68.9713 35.5648C67.835 35.5648 66.8351 34.958 66.1213 33.9019V27.3599C66.8057 26.0686 67.7842 25.3815 68.9178 25.3841ZM79.045 36.9898C80.7587 36.9898 82.1302 36.1717 83.1595 34.327V34.6158C83.1595 36.1985 84.1621 36.8829 85.8223 36.8829C86.325 36.8829 86.9586 36.8321 87.3783 36.6984V36.0381C87.1671 36.0889 87.0094 36.1183 86.8516 36.1183C86.1913 36.1183 85.9801 35.7226 85.9801 35.089V28.3384C85.9801 25.2264 84.2396 23.748 81.3121 23.748C79.3605 23.748 77.4623 24.6463 76.2485 25.5954L76.6709 26.3359C77.9382 25.4644 79.176 24.9644 80.5208 24.9644C82.2612 24.9644 83.1569 25.9135 83.1569 28.1298V28.71L79.9112 29.9772C76.957 31.191 75.8742 32.3246 75.8742 34.0383C75.8769 35.7493 77.0907 36.9898 79.045 36.9898ZM78.6493 33.3485C78.6493 32.0305 79.414 31.0814 80.9699 30.3943L83.1595 29.4452V33.5597C82.3414 34.6933 81.3924 35.3536 80.3631 35.3536C79.3364 35.3536 78.652 34.6425 78.6493 33.3485ZM87.905 36.7251H93.9204V36.0915H93.4178C92.5462 36.0915 92.3377 35.8536 92.3377 34.9847V27.1513C92.9446 26.0953 93.8402 25.4376 94.8962 25.4376C96.2677 25.4376 97.1393 26.3867 97.1393 28.1806V34.9847C97.1393 35.8563 96.9281 36.0915 96.0832 36.0915H95.5806V36.7251H101.567V36.0915H101.04C100.142 36.0915 99.9331 35.8536 99.9331 34.9847V27.8865C99.9331 25.2237 98.3504 23.7453 96.11 23.7453C94.4765 23.7453 93.1023 24.5874 92.3377 26.2771V24.0608H87.905V24.6944H88.4317C89.33 24.6944 89.5385 24.9323 89.5385 25.8012V34.9794C89.5385 35.8509 89.3273 36.0862 88.4317 36.0862H87.905V36.7251ZM108.424 37.0406C110.165 37.0406 111.801 36.2493 112.988 35.3002L112.592 34.72C111.536 35.4846 110.349 35.8269 109.242 35.8269C106.553 35.8269 104.97 33.9287 104.97 30.2366V29.7607H113.303C113.252 26.1996 111.06 23.7747 107.871 23.7747C104.681 23.7747 102.12 26.6487 102.12 30.4478C102.123 34.6184 104.497 37.0433 108.424 37.0406ZM107.897 24.4324C109.48 24.4324 110.456 26.1461 110.614 29.0468H105.023C105.261 26.122 106.368 24.4324 107.897 24.4324ZM113.883 36.7225H120V36.0889H119.394C118.522 36.0889 118.313 35.8509 118.313 34.982V18.7886H113.881V19.4222H114.407C115.279 19.4222 115.514 19.6602 115.514 20.5291V34.982C115.514 35.8536 115.276 36.0889 114.407 36.0889H113.881L113.883 36.7225Z" fill="#7856FF"></path></g><defs><clipPath id="clip0_4919_23688"><rect width="99.35" height="23.5268" fill="white" transform="translate(20.6504 18.4731)"></rect></clipPath></defs></svg> 