<?xml version="1.0" encoding="UTF-8"?> <svg xmlns="http://www.w3.org/2000/svg" width="141" height="61" viewBox="0 0 141 61" fill="none"><g clip-path="url(#clip0_11380_125956)"><path d="M81.4059 34.9282C78.0524 36.9695 74.9904 36.605 72.9491 34.1263C71.0536 31.7205 71.2724 28.2211 73.4595 25.9611C75.1362 24.1385 79.2188 23.5553 81.333 25.6695C81.6246 24.1385 82.7911 24.8676 83.593 24.8676C84.6136 24.7947 84.1762 25.7424 84.1762 26.1798C84.2491 28.8773 84.1033 31.5747 84.2491 34.2721C84.4678 39.3753 81.1143 42.1456 75.5007 41.125C74.8446 40.9792 74.1885 40.7605 73.6053 40.4689C72.1472 39.8127 72.1472 39.8127 72.9491 38.3547C73.3136 37.6985 73.5324 37.6256 74.1885 37.9902C75.4278 38.7192 76.7401 39.0108 78.1253 38.865C80.2395 38.5734 81.333 37.2611 81.4059 34.9282ZM81.4788 30.3353C81.4788 28.4398 79.9478 26.836 77.9794 26.836C76.1569 26.836 74.553 28.4398 74.553 30.2624C74.553 32.1579 76.084 33.7618 78.0524 33.7618C79.9478 33.7618 81.4059 32.2308 81.4788 30.3353Z" fill="#3E94E5"></path><path d="M114.14 25.6697C114.504 25.3781 114.14 24.5762 114.577 24.6491C115.379 24.8678 115.962 24.2846 116.692 24.5033C117.056 24.6491 117.056 24.9407 117.056 25.2323C117.056 28.7317 117.056 32.1581 117.056 35.5846C117.056 36.022 116.91 36.3865 116.4 36.3136C115.598 36.1678 114.213 37.0426 114.213 35.22C111.005 37.2613 108.089 37.0426 106.121 34.7097C104.152 32.3768 104.006 28.5859 105.975 26.3259C108.016 23.92 110.859 23.7013 114.14 25.6697ZM111.005 34.0536C112.901 34.0536 114.504 32.4497 114.504 30.5542C114.504 28.44 112.901 26.8362 110.859 26.8362C109.037 26.8362 107.433 28.44 107.433 30.3355C107.433 32.4497 108.891 34.0536 111.005 34.0536Z" fill="#3E94E5"></path><path d="M61.2123 25.8154C62.4517 24.2844 64.0556 24.2844 65.6594 24.2844C67.5549 24.3573 69.3046 26.2528 69.3775 28.367C69.4504 30.5541 69.3775 32.8141 69.3775 35.0012C69.3775 36.0947 69.013 36.3135 67.9923 36.3135C66.753 36.3135 66.3156 36.0947 66.4614 34.7825C66.6072 33.1057 66.5343 31.4289 66.4614 29.7522C66.4614 27.8567 65.4407 26.7631 63.8368 26.6902C62.233 26.6902 61.0665 27.9296 61.0665 29.6793C61.0665 31.5018 60.9936 33.3244 61.0665 35.2199C61.1394 36.4593 60.2646 36.1676 59.6085 36.1676C58.9523 36.1676 58.1504 36.5322 58.1504 35.2199C58.2233 31.8664 58.1504 28.5128 58.1504 25.2322C58.1504 24.576 58.3691 24.2115 59.0252 24.3573C59.973 24.7218 61.3581 23.7741 61.2123 25.8154Z" fill="#3C93E4"></path><path d="M86.5098 28.7317C86.5098 27.6381 86.5098 26.6175 86.5098 25.5239C86.5098 24.7949 86.6556 24.3575 87.4575 24.5033C87.7491 24.5033 87.9678 24.5033 88.2594 24.5033C89.1343 24.3575 89.4988 24.6491 89.4259 25.5968C89.353 27.4923 89.353 29.3149 89.4259 31.2104C89.4259 32.7413 90.2278 33.762 91.4672 33.9807C92.9252 34.2723 94.2375 33.1788 94.3104 31.6478C94.3104 29.6794 94.3104 27.6381 94.3104 25.6697C94.3104 24.9407 94.3833 24.7949 95.1853 24.7949C97.2265 24.8678 97.2265 24.8678 97.2265 26.9091C97.2265 28.5859 97.2265 30.2626 97.1536 31.8665C97.0078 34.7826 94.9665 36.5323 91.8317 36.5323C88.7698 36.5323 86.6556 34.6368 86.5827 31.7936C86.5098 30.7729 86.5098 29.7523 86.5098 28.7317Z" fill="#3C93E4"></path><path d="M46.412 36.6052C44.4437 36.6781 43.1314 36.0949 41.9649 35.0742C41.4546 34.6368 41.2359 34.1994 41.892 33.762C42.4024 33.3974 42.6211 32.3039 43.5688 33.2516C44.3708 34.0536 45.3185 34.4181 46.4849 34.2723C47.0682 34.1994 47.6514 33.9078 47.8701 33.2516C48.0159 32.5226 47.5056 32.1581 46.9224 31.9394C45.9017 31.4291 44.8082 30.9916 43.7875 30.4813C42.4024 29.7523 41.8191 28.3671 42.2566 26.8362C42.6211 25.5239 43.9333 24.6491 45.3185 24.4304C46.9224 24.1387 48.3804 24.3574 49.7656 25.3052C50.1301 25.5968 50.7862 25.8884 50.1301 26.3987C49.6198 26.8362 49.5469 28.2213 48.3804 27.2007C47.7243 26.6904 46.9224 26.4716 46.1204 26.5445C45.5372 26.5445 45.1727 26.9091 45.0269 27.4194C44.8811 27.9297 45.2456 28.2942 45.683 28.5129C46.5578 28.9504 47.5056 29.3149 48.3804 29.6794C50.4217 30.6271 51.0778 31.6478 50.8591 33.4704C50.6404 35.0013 49.2553 36.2407 47.3598 36.5323C46.7766 36.6052 46.412 36.6052 46.412 36.6052Z" fill="#3C93E4"></path><path d="M99.4131 28.0027C99.4131 25.5968 99.4131 23.1181 99.4131 20.7123C99.4131 19.9833 99.5589 19.7646 100.288 19.8375C100.652 19.9104 101.09 19.9104 101.454 19.8375C102.11 19.7646 102.256 20.1291 102.256 20.6394C102.256 25.5968 102.256 30.5543 102.256 35.4388C102.256 36.0949 101.965 36.2407 101.381 36.2407C99.4131 36.3136 99.4131 36.3136 99.4131 34.4181C99.4131 32.3039 99.4131 30.1897 99.4131 28.0027Z" fill="#3E94E5"></path><path d="M122.013 26.2528C123.107 24.7218 124.2 24.2844 125.512 24.2844C126.387 24.2844 126.898 24.3573 126.752 25.5238C126.606 26.4715 126.679 27.3464 125.148 27.0547C123.763 26.7631 122.451 28.0754 122.378 29.6064C122.232 31.4289 122.232 33.2515 122.305 35.0741C122.378 36.4593 121.649 36.3135 120.774 36.3864C119.753 36.4593 119.389 36.2406 119.389 35.0741C119.461 32.0851 119.389 29.096 119.462 26.107C119.462 25.5967 118.951 24.5031 120.191 24.6489C120.92 24.6489 122.378 23.7741 122.013 26.2528Z" fill="#3C93E4"></path><path d="M55.8178 25.0134C55.8178 28.5127 55.8178 31.9392 55.8907 35.3657C55.8907 35.9489 55.7449 36.2405 55.0159 36.3134C52.9746 36.3863 52.9746 36.3863 52.9746 34.4179C52.9746 31.5747 53.0475 28.6586 52.9746 25.8153C52.9746 24.8676 53.1933 24.576 54.1411 24.7218C54.5785 24.7947 55.0888 24.7218 55.5262 24.7947C55.5991 24.8676 55.7449 24.9405 55.8178 25.0134Z" fill="#3E94E5"></path><path d="M31.5404 30.7C31.2488 25.5239 28.9158 22.0245 24.4688 19.6916C25.5623 19.1813 26.6558 19.4 27.6036 19.6187C32.7068 20.8581 33.29 22.0245 32.7797 27.3465C32.7797 28.44 32.3423 29.5336 31.5404 30.7Z" fill="#3E94E5"></path><path d="M35.4039 34.8555C34.3103 37.48 32.4877 39.2297 29.9361 40.3232C29.7903 40.3961 29.4987 40.469 29.3529 40.3961C26.5097 39.74 24.1039 38.2819 22.5 35.6574C27.02 37.6987 31.2484 37.4071 35.4039 34.8555Z" fill="#3E94E5"></path><path d="M28.4785 35.6574C32.634 32.8871 34.6024 29.0961 34.3108 24.1387C36.0605 26.3987 36.7166 28.9503 36.3521 31.7206C36.3521 31.9393 36.1334 32.158 35.9875 32.3767C33.9463 34.4909 31.4675 35.6574 28.4785 35.6574Z" fill="#3E94E5"></path><path d="M28.5514 25.1595C24.1772 23.0453 20.0217 23.3369 15.8662 26.0343C16.012 24.795 16.741 23.9201 17.3972 23.264C20.9694 19.6188 22.5004 19.4001 26.8017 22.7537C27.5307 23.4098 28.1869 24.1388 28.5514 25.1595Z" fill="#3E94E5"></path><path d="M23.011 25.0865C18.491 27.711 16.7413 31.502 17.0329 36.5323C15.9394 35.6574 15.6478 34.7097 15.3562 33.762C14.1168 29.1691 14.4813 27.8568 19.0742 25.8155C20.1678 25.2323 21.4071 24.9407 23.011 25.0865Z" fill="#3E94E5"></path><path d="M27.2391 41.1251C24.5417 41.4167 22.5004 40.9793 20.4591 39.9586C19.2926 39.3754 18.6365 38.5735 18.4907 37.2612C18.1991 34.8554 18.272 32.5954 19.8029 30.1167C19.73 35.4386 22.3546 38.8651 27.2391 41.1251Z" fill="#3E94E5"></path><path d="M54.4323 23.1909C53.4846 23.1909 52.6826 22.389 52.6826 21.3683C52.6826 20.3477 53.4117 19.6187 54.4323 19.6187C55.5258 19.6187 56.3278 20.4206 56.2549 21.4412C56.2549 22.389 55.38 23.1909 54.4323 23.1909Z" fill="#3E94E5"></path><path d="M55.817 25.0134C55.7441 24.9405 55.6712 24.8676 55.5254 24.7947C55.7441 24.7947 55.817 24.8676 55.817 25.0134Z" fill="#3C93E4"></path></g><defs><clipPath id="clip0_11380_125956"><rect width="113" height="23.329" fill="white" transform="translate(14.043 18.6709)"></rect></clipPath></defs></svg> 