<?xml version="1.0" encoding="UTF-8"?> <svg xmlns="http://www.w3.org/2000/svg" width="221" height="89" viewBox="0 0 221 89" fill="none"><path fill-rule="evenodd" clip-rule="evenodd" d="M83.7787 37.206H89.9483V34.6121H83.7787V28.5911H80.5995V34.6121H76.0733V37.206H80.6399V50.5517C80.6055 51.5384 80.7896 52.5203 81.1787 53.4278C81.4823 54.105 81.9442 54.6995 82.5258 55.1616C83.0567 55.5663 83.6672 55.8548 84.3174 56.0084C84.9311 56.1539 85.5591 56.2306 86.19 56.2367C86.8532 56.2365 87.5155 56.1826 88.1701 56.0756C88.7682 55.9714 89.3547 55.8093 89.9213 55.5917L89.7867 52.9037C89.355 53.1132 88.9039 53.2798 88.4395 53.401C87.9996 53.517 87.5474 53.5802 87.0925 53.5891C86.6382 53.5962 86.185 53.5419 85.7454 53.4278C85.3503 53.3234 84.9887 53.1198 84.6946 52.8366C84.3711 52.4967 84.1393 52.0805 84.0211 51.6269C83.8438 50.9883 83.7621 50.3271 83.7787 49.6647V37.206ZM114.815 45.3371V44.6786C114.824 43.2796 114.597 41.8893 114.142 40.566C113.713 39.3266 113.034 38.1877 112.148 37.2194C111.243 36.2278 110.13 35.4476 108.888 34.9347C107.449 34.347 105.904 34.0589 104.349 34.0879C102.856 34.075 101.376 34.363 99.9975 34.9347C98.6805 35.481 97.486 36.2843 96.4844 37.2975C95.4828 38.3108 94.6941 39.5133 94.1646 40.8347C93.5891 42.2563 93.3007 43.7771 93.316 45.3102C93.2985 46.8447 93.5917 48.367 94.1781 49.7856C94.7202 51.0951 95.5064 52.2901 96.4951 53.3069C97.5135 54.3298 98.7336 55.1308 100.078 55.6589C101.513 56.2332 103.046 56.5209 104.591 56.5056C106.335 56.5163 108.061 56.159 109.656 55.4573C111.354 54.6621 112.837 53.4731 113.98 51.9898L111.596 50.162C110.906 51.2149 109.985 52.0973 108.902 52.7424C107.612 53.5077 106.132 53.8944 104.632 53.858C102.519 53.8634 100.488 53.0432 98.9737 51.5731C98.2558 50.8719 97.6836 50.036 97.2899 49.1137C96.8857 48.1594 96.6619 47.1387 96.6299 46.1032H114.815V45.3371ZM109.602 38.644C110.855 40.0126 111.564 41.7904 111.596 43.6437H96.6567C96.7126 42.7322 96.9508 41.841 97.3573 41.0229C98.1955 39.3098 99.6329 37.9617 101.399 37.2329C102.334 36.85 103.337 36.6581 104.349 36.6684C105.315 36.6066 106.283 36.7508 107.189 37.0915C108.095 37.4322 108.917 37.9614 109.602 38.644ZM124.676 38.2543C124.676 37.0447 124.609 35.8217 124.488 34.6121H121.511C121.645 35.4319 121.645 36.1846 121.645 37.0716V39.3026V55.9545H124.892V45.0145C124.867 43.7516 125.054 42.4934 125.444 41.2918C125.768 40.3378 126.276 39.4566 126.939 38.6978C127.53 38.0397 128.256 37.5171 129.068 37.1657C129.847 36.835 130.686 36.6658 131.533 36.6684C132.517 36.6361 133.497 36.8197 134.402 37.206C135.131 37.5516 135.757 38.0795 136.221 38.7382C136.673 39.4542 136.976 40.2543 137.11 41.0901C137.307 42.0949 137.402 43.1171 137.393 44.1409V55.9545H140.572V42.8642C140.69 40.5541 139.952 38.2814 138.497 36.4802C137.702 35.638 136.728 34.9836 135.647 34.5651C134.565 34.1465 133.404 33.9743 132.247 34.0611C130.693 34.0613 129.166 34.4642 127.815 35.2303C126.515 35.9047 125.452 36.9599 124.771 38.2543H124.676ZM144.802 64.1932C144.46 64.1558 144.122 64.0883 143.791 63.9915L143.293 66.5318C143.731 66.6674 144.183 66.7531 144.64 66.7871C145.111 66.8543 145.516 66.8543 145.852 66.8543C146.901 66.893 147.945 66.7003 148.91 66.2897C149.653 65.9436 150.304 65.4279 150.81 64.7846C151.282 64.1427 151.617 63.4108 151.793 62.6342C151.982 61.8188 152.077 60.9847 152.076 60.1478V34.6121H148.897V59.7043C148.9 60.3201 148.859 60.9354 148.776 61.5456C148.715 62.0477 148.565 62.5348 148.331 62.9836C148.115 63.3775 147.793 63.7035 147.402 63.9243C146.909 64.1696 146.362 64.2852 145.812 64.2604C145.474 64.2563 145.137 64.2338 144.802 64.1932ZM152.55 27.2252C152.671 26.9532 152.73 26.6576 152.723 26.36C152.733 26.0621 152.676 25.7656 152.554 25.4931C152.433 25.2207 152.251 24.9794 152.022 24.7876C151.606 24.3924 151.054 24.1719 150.48 24.1719C149.905 24.1719 149.353 24.3924 148.937 24.7876C148.709 24.9794 148.526 25.2207 148.405 25.4931C148.284 25.7656 148.226 26.0621 148.237 26.36C148.229 26.6576 148.288 26.9532 148.409 27.2252C148.53 27.4972 148.711 27.7388 148.937 27.9325C149.353 28.3277 149.905 28.5482 150.48 28.5482C151.054 28.5482 151.606 28.3277 152.022 27.9325C152.249 27.7388 152.429 27.4972 152.55 27.2252ZM164.239 27.2234C164.36 26.9519 164.42 26.6572 164.415 26.36V26.3883C164.414 26.1018 164.352 25.8186 164.233 25.5578C164.112 25.2934 163.935 25.0581 163.715 24.8682C163.295 24.474 162.742 24.253 162.166 24.25C161.599 24.2401 161.049 24.4468 160.63 24.8279C160.401 25.0197 160.219 25.261 160.098 25.5334C159.976 25.8059 159.919 26.1024 159.929 26.4004C159.925 26.6916 159.985 26.9802 160.107 27.2452C160.228 27.5102 160.407 27.745 160.63 27.9325C161.043 28.3282 161.593 28.5497 162.166 28.5507C162.742 28.5477 163.295 28.3267 163.715 27.9325C163.939 27.737 164.118 27.495 164.239 27.2234ZM160.576 55.9277H163.755V34.6121H160.576V55.9277ZM175.259 38.2274C175.246 37.0178 175.179 35.7948 175.071 34.5852L172.067 34.6121C172.078 34.7537 172.091 34.8932 172.102 35.0318C172.16 35.6958 172.215 36.3377 172.215 37.0716V39.3026V55.9545H175.394V45.0145C175.367 43.7504 175.558 42.491 175.96 41.2918C176.278 40.3353 176.787 39.4531 177.455 38.6978C178.042 38.0368 178.77 37.5136 179.584 37.1657C180.358 36.835 181.193 36.6657 182.035 36.6684C183.02 36.6335 184 36.8171 184.905 37.206C185.637 37.5512 186.268 38.0789 186.737 38.7382C187.208 39.4519 187.532 40.2511 187.693 41.0901C187.885 42.0955 187.975 43.1175 187.963 44.1409V55.9277H191.142V42.8372C191.26 40.5273 190.521 38.2546 189.068 36.4534C188.274 35.6114 187.303 34.9571 186.224 34.5385C185.144 34.1199 183.985 33.9476 182.83 34.0342C181.272 34.0346 179.741 34.4374 178.384 35.2035C177.084 35.8744 176.026 36.9309 175.354 38.2274H175.259ZM67.3256 49.511C68.3235 47.1795 68.8473 44.6735 68.8664 42.1383C68.8558 39.6022 68.3445 37.0929 67.3619 34.7537C66.3794 32.4146 64.9446 30.2915 63.1395 28.5056C61.3345 26.7197 59.1946 25.306 56.8419 24.3452C54.4893 23.3844 51.9699 22.8954 49.4279 22.906C46.8828 22.8723 44.3561 23.3392 41.992 24.2803C39.628 25.2213 37.473 26.6179 35.6502 28.3903C33.8275 30.1627 32.3727 32.2761 31.369 34.6097C30.3653 36.9433 29.8324 39.4514 29.8008 41.9905C29.8005 44.529 30.3063 47.0419 31.2888 49.3834C32.2713 51.7249 33.7108 53.848 35.5236 55.6291C37.3364 57.4101 39.4861 58.8137 41.8478 59.7578C44.2094 60.7021 46.7357 61.1681 49.2798 61.1289C51.8201 61.1824 54.346 60.7317 56.7104 59.8033C59.0749 58.8747 61.2308 57.4866 63.0531 55.7199C64.8754 53.953 66.3278 51.8426 67.3256 49.511ZM61.7964 54.3727C58.4627 57.6057 53.9824 59.3918 49.3336 59.3414C44.6927 59.3776 40.2249 57.5856 36.9006 54.3545C33.5763 51.1234 31.664 46.7143 31.5789 42.0847C31.7064 37.4659 33.635 33.0789 36.9545 29.857C40.2741 26.635 44.7226 24.8323 49.3538 24.8323C53.985 24.8323 58.4335 26.635 61.753 29.857C65.0725 33.0789 67.0011 37.4659 67.1286 42.0847C67.047 46.7223 65.1303 51.1397 61.7964 54.3727ZM59.0792 54.8568C59.0867 54.8511 59.0942 54.8454 59.1017 54.8397V54.8665C59.0942 54.8633 59.0867 54.86 59.0792 54.8568ZM56.6091 55.841C57.5063 55.7403 58.3596 55.4002 59.0792 54.8568C58.8247 54.7471 58.5788 54.6492 58.3408 54.5544C57.9195 54.3866 57.5232 54.2288 57.1484 54.0333C55.6471 53.3727 54.3829 52.2717 53.524 50.8769C52.6649 49.4822 52.2517 47.8595 52.3393 46.2248C52.4232 45.1629 52.7248 44.1295 53.2253 43.1886C53.7258 42.2476 54.4146 41.4194 55.249 40.7548C57.6873 38.4969 59.4116 35.903 59.1557 32.4221C59.165 31.4887 58.8764 30.5765 58.3315 29.8178C57.7865 29.059 57.0136 28.4931 56.1246 28.202C56.1397 28.3412 56.1569 28.4773 56.1738 28.6113C56.2174 28.9562 56.2593 29.2879 56.2593 29.6266C56.4035 30.8575 56.2613 32.105 55.8441 33.2723C55.4266 34.4395 54.7452 35.4951 53.8527 36.357C52.96 37.2189 51.8804 37.8639 50.6974 38.242C49.5145 38.6201 48.2602 38.7212 47.0318 38.5372C46.5775 38.4795 46.1333 38.3561 45.6869 38.2322C45.4052 38.1539 45.1227 38.0754 44.8361 38.013C41.4414 37.247 38.2084 37.1798 35.4064 39.5183C34.7467 39.9669 34.2423 40.6081 33.9625 41.3541C33.6827 42.1001 33.6412 42.9143 33.8438 43.6846C34.0328 43.5653 34.2174 43.4472 34.3997 43.3304C34.8543 43.0394 35.2952 42.7571 35.7567 42.4885C36.805 41.8263 37.9922 41.4137 39.2261 41.2827C40.46 41.1518 41.7075 41.3061 42.8721 41.7337C44.0366 42.1613 45.0867 42.8506 45.9413 43.7483C46.7958 44.646 47.4316 45.7279 47.7996 46.9102C48.2037 48.2139 48.6618 49.5175 49.1467 50.7943C49.5601 51.8693 50.205 52.8405 51.0361 53.6393C51.8672 54.4383 52.8638 55.0453 53.9558 55.4176C54.7854 55.7965 55.7025 55.9428 56.6091 55.841Z" fill="#6BB4E1"></path></svg> 