<?xml version="1.0" encoding="UTF-8"?> <svg xmlns="http://www.w3.org/2000/svg" width="53" height="53" viewBox="0 0 53 53" fill="none"><g id="os"><g id="UI-Element-/logoMark"><path id="logo_fill" fill-rule="evenodd" clip-rule="evenodd" d="M42.4859 6.5C43.6894 6.5 44.8034 7.15122 45.3677 8.20985C45.9085 9.22387 45.8855 10.4188 45.3078 11.4106L45.2881 11.444L40.2243 19.9149C39.6516 20.8728 38.6178 21.4707 37.5129 21.4834L37.4769 21.4836L31.6943 21.4836L34.0977 26.9859L34.1073 27.002L34.1221 27.028C34.6881 28.051 34.6743 29.2673 34.0873 30.2751L34.0675 30.3086L29.0037 38.7796C28.4311 39.7375 27.3973 40.3353 26.2924 40.3481L26.2564 40.3483L19.159 40.3482L14.0568 45.7297L14.0472 45.7397C13.567 46.2277 12.9183 46.5 12.242 46.5C12.0729 46.5 11.9037 46.4829 11.7363 46.4488C10.9113 46.2803 10.2258 45.7142 9.89587 44.9334L9.88657 44.9111L7.20153 38.7474L7.18741 38.7238L7.17274 38.6984C7.1703 38.694 7.16782 38.6896 7.16523 38.6849C6.59922 37.662 6.61293 36.4457 7.19984 35.4378L7.21962 35.4043L12.131 27.1884L8.51205 18.9033L8.57837 18.8695L8.57737 18.8645C8.42424 18.1024 8.5475 17.3076 8.94076 16.6116L8.96248 16.5737L8.98256 16.5397L14.0464 8.06865C14.6191 7.11083 15.653 6.51295 16.7578 6.5H16.7938H42.4859ZM15.8967 40.2839L10.5163 40.2838L12.0965 43.9393L12.1004 43.949C12.1266 44.0145 12.169 44.0504 12.2321 44.0633C12.2883 44.0749 12.3338 44.063 12.3769 44.0238L12.3844 44.0164L15.8967 40.2839ZM31.2775 27.7162H15.0139C14.9959 27.7162 14.9779 27.7168 14.96 27.7181L14.9551 27.7184L19.4144 37.9189H26.2556C26.5368 37.9189 26.8077 37.7684 26.9617 37.5266L26.9739 37.5068L32.0451 29.0306C32.1964 28.7778 32.2131 28.4844 32.0932 28.2204C31.955 27.916 31.6342 27.7162 31.2775 27.7162ZM13.3232 29.8108L9.29841 36.5947C9.13825 36.8647 9.12897 37.1809 9.27238 37.4592L9.2876 37.4875L9.2957 37.5013L9.31195 37.5279L9.34414 37.5757L9.38007 37.6225L9.41445 37.6618L9.42041 37.6681L9.44366 37.6917L9.46386 37.7109C9.59046 37.8258 9.74697 37.8959 9.91959 37.914L9.95837 37.9173L9.98082 37.9184L10.0093 37.9189H16.8382L13.3232 29.8108ZM12.2649 21.5L14.0326 25.5541L14.067 25.5423C14.3723 25.4402 14.6914 25.3848 15.0141 25.3797L15.0625 25.3794L30.8272 25.3793L29.1358 21.5001L12.2649 21.5ZM42.441 8.86486H26.1194L30.5801 19.0676H37.4187C37.7005 19.0676 37.9716 18.9169 38.1257 18.675L38.1379 18.6552L43.2094 10.1792C43.3607 9.92639 43.3774 9.63325 43.2576 9.36949C43.1222 9.07133 42.8118 8.87342 42.4638 8.86514L42.441 8.86486ZM23.6208 8.86486H16.82C16.5403 8.86486 16.2706 9.01515 16.1171 9.25671L16.1049 9.2765L11.0468 17.7527C10.8957 18.0057 10.8791 18.2995 10.9988 18.5638C11.1337 18.8617 11.4424 19.059 11.7884 19.0673L11.811 19.0676H28.0698L23.6208 8.86486Z" fill="#4B39EF"></path></g></g></svg> 