<?xml version="1.0" encoding="UTF-8"?> <svg xmlns="http://www.w3.org/2000/svg" width="65" height="65" viewBox="0 0 65 65" fill="none"><path fill-rule="evenodd" clip-rule="evenodd" d="M29.7039 24.8536C29.7039 23.2619 31.01 22.6496 33.1731 22.6496C36.275 22.6496 40.1932 23.5884 43.295 25.2617V15.6704C39.9075 14.3236 36.5607 13.793 33.1731 13.793C24.8878 13.793 19.3779 18.1193 19.3779 25.3434C19.3779 36.6081 34.8873 34.8123 34.8873 39.6691C34.8873 41.5466 33.2547 42.1588 30.9692 42.1588C27.5816 42.1588 23.2553 40.7711 19.8269 38.8937V48.6074C23.6226 50.24 27.4591 50.9339 30.9692 50.9339C39.4585 50.9339 45.2949 46.73 45.2949 39.4243C45.2541 27.2616 29.7039 29.4248 29.7039 24.8536Z" fill="#635BFF"></path></svg> 