<?xml version="1.0" encoding="UTF-8"?> <svg xmlns="http://www.w3.org/2000/svg" width="64" height="64" viewBox="0 0 64 64" fill="none"><path d="M33.7088 19.0183L40.1941 22.7611C40.4272 22.8925 40.4357 23.2569 40.1941 23.3883L32.488 27.8391C32.255 27.9747 31.9794 27.9662 31.7632 27.8391L24.0572 23.3883C23.8198 23.2612 23.8156 22.8882 24.0572 22.7611L30.5382 19.0183V11.6895L13.9902 21.2436V40.3518V40.2628V40.3518L20.3356 36.6896V29.204C20.3314 28.9369 20.645 28.7461 20.8782 28.8903L28.5842 33.341C28.8173 33.4765 28.9487 33.7182 28.9487 33.9683V42.8654C28.9529 43.1324 28.6392 43.3232 28.4062 43.1791L21.9209 39.4363L15.5755 43.0985L32.1236 52.6526L48.6715 43.0985L42.3261 39.4363L35.8409 43.1791C35.612 43.319 35.2898 43.1367 35.2983 42.8654V33.9683C35.2983 33.7012 35.4467 33.4639 35.6629 33.341L43.3689 28.8903C43.5977 28.7504 43.9199 28.9284 43.9114 29.204V36.6896L50.2568 40.3518V21.2436L33.7088 11.6895V19.0183Z" fill="white"></path></svg> 