<?xml version="1.0" encoding="UTF-8"?> <svg xmlns="http://www.w3.org/2000/svg" width="65" height="65" viewBox="0 0 65 65" fill="none"><path fill-rule="evenodd" clip-rule="evenodd" d="M51.3256 33.1899H43.329C43.2945 36.0028 42.9704 38.679 42.4113 41.1137C44.4674 41.7339 46.3391 42.5403 47.9591 43.5002C49.9973 40.5593 51.2268 37.0153 51.3256 33.1899ZM43.3044 31.1899C43.2139 28.7425 42.9038 26.4108 42.4113 24.2664C44.4674 23.6462 46.3392 22.8398 47.9592 21.8799C49.8186 24.5627 51.0048 27.7475 51.2737 31.1899H43.3044ZM41.303 31.1899H33.332V25.6899V25.6771C35.839 25.6117 38.2455 25.3012 40.4775 24.7816C40.9255 26.7525 41.2143 28.9093 41.303 31.1899ZM31.332 33.1899H23.3352C23.3693 35.8412 23.6736 38.3418 24.1866 40.5985C26.4186 40.0789 28.8251 39.7684 31.332 39.703V33.1899ZM23.3611 31.1899H31.332V25.6899V25.6771C28.8251 25.6117 26.4185 25.3012 24.1866 24.7816C23.7386 26.7524 23.4498 28.9093 23.3611 31.1899ZM21.3597 31.1899H13.3904C13.6592 27.7475 14.8455 24.5627 16.705 21.8798C18.3249 22.8397 20.1966 23.6461 22.2527 24.2663C21.7603 26.4108 21.4501 28.7425 21.3597 31.1899ZM21.3351 33.1899H13.3385C13.4373 37.0153 14.6668 40.5593 16.7051 43.5003C18.325 42.5404 20.1967 41.7339 22.2528 41.1138C21.6937 38.679 21.3695 36.0029 21.3351 33.1899ZM41.3288 33.1899H33.332V39.703C35.839 39.7684 38.2455 40.0789 40.4775 40.5985C40.9905 38.3417 41.2947 35.8411 41.3288 33.1899ZM39.9694 22.8465C37.9136 23.3212 35.6802 23.6119 33.332 23.6764L33.332 22.6899L33.332 13.8239C34.9965 14.2652 36.7923 15.8167 38.3385 18.7687C38.9652 19.9651 39.5164 21.3359 39.9694 22.8465ZM31.332 13.8239L31.332 22.6899L31.332 23.6764C28.9839 23.6119 26.7504 23.3212 24.6947 22.8465C25.1476 21.3359 25.6988 19.9651 26.3255 18.7687C27.8718 15.8167 29.6676 14.2652 31.332 13.8239ZM24.6947 42.5336C26.7505 42.0589 28.9839 41.7683 31.332 41.7037V51.556C29.6676 51.1147 27.8718 49.5632 26.3255 46.6112C25.6989 45.4148 25.1477 44.0441 24.6947 42.5336ZM48.4116 46.198C44.7595 50.5408 39.3803 53.383 33.332 53.6665V53.6899H32.332H31.332V53.6665C25.2838 53.383 19.9047 50.5409 16.2525 46.1981L16.2264 46.2176L15.6324 45.4244C15.5519 45.319 15.4723 45.2128 15.3938 45.1059L15.0275 44.6168L15.0392 44.608C12.7013 41.2221 11.332 37.1159 11.332 32.6899C11.332 28.264 12.7012 24.1579 15.0391 20.772L15.0275 20.7633L15.3857 20.285C15.4696 20.1707 15.5546 20.0572 15.6407 19.9446L16.2264 19.1625L16.2524 19.1819C19.9045 14.8391 25.2837 11.9969 31.332 11.7133V11.6899H32.332H33.332V11.7133C39.3804 11.9969 44.7596 14.8391 48.4117 19.182L48.4379 19.1625L49.0339 19.9583C49.1129 20.0619 49.191 20.1661 49.2682 20.2711L49.6367 20.7633L49.625 20.7721C51.9629 24.158 53.332 28.2641 53.332 32.6899C53.332 37.1159 51.9628 41.222 49.6249 44.6079L49.6367 44.6168L49.2591 45.1211C49.1879 45.2178 49.116 45.3139 49.0432 45.4094L48.4379 46.2176L48.4116 46.198ZM33.332 41.7037V51.556C34.9965 51.1147 36.7923 49.5632 38.3385 46.6112C38.9652 45.4148 39.5164 44.0441 39.9694 42.5335C37.9136 42.0589 35.6802 41.7682 33.332 41.7037ZM46.724 20.2849C45.3206 21.0912 43.6968 21.7843 41.9027 22.3307C40.9349 19.0791 39.5257 16.3691 37.8305 14.4977C41.3268 15.553 44.3978 17.5886 46.724 20.2849ZM46.7239 45.0951C44.3977 47.7913 41.3267 49.8269 37.8305 50.8822C39.5256 49.0109 40.9349 46.3009 41.9026 43.0494C43.6967 43.5958 45.3205 44.2889 46.7239 45.0951ZM26.8335 50.8822C25.1384 49.0109 23.7292 46.3009 22.7614 43.0495C20.9674 43.5959 19.3436 44.2889 17.9403 45.0952C20.2664 47.7914 23.3374 49.8269 26.8335 50.8822ZM17.9402 20.2849C19.3435 21.0911 20.9673 21.7842 22.7614 22.3306C23.7291 19.0791 25.1384 16.369 26.8335 14.4977C23.3373 15.553 20.2663 17.5886 17.9402 20.2849Z" fill="#1169EE"></path></svg> 